<?xml version="1.0" encoding="utf-8"?>
<!-- Generator: Adobe Illustrator 16.2.0, SVG Export Plug-In . SVG Version: 6.00 Build 0)  -->
<!DOCTYPE svg PUBLIC "-//W3C//DTD SVG 1.1//EN" "http://www.w3.org/Graphics/SVG/1.1/DTD/svg11.dtd">
<svg version="1.1" id="Layer_1" xmlns="http://www.w3.org/2000/svg" xmlns:xlink="http://www.w3.org/1999/xlink" x="0px" y="0px"
	 width="380px" height="160px" viewBox="0 0 380 160" enable-background="new 0 0 380 160" xml:space="preserve">
<g>
	<g>
		<path fill="#808285" d="M149.607,106.827c0-0.558,0.449-1.008,1.006-1.008l0,0c0.558,0,1.008,0.45,1.008,1.008l0,0
			c0,0.556-0.45,1.006-1.008,1.006l0,0C150.057,107.833,149.607,107.383,149.607,106.827z M146.25,106.827
			c0-0.558,0.449-1.008,1.007-1.008l0,0c0.558,0,1.007,0.45,1.007,1.008l0,0c0,0.556-0.449,1.006-1.007,1.006l0,0
			C146.699,107.833,146.25,107.383,146.25,106.827z M142.894,106.827c0-0.558,0.449-1.008,1.007-1.008l0,0
			c0.557,0,1.007,0.45,1.007,1.008l0,0c0,0.556-0.45,1.006-1.007,1.006l0,0C143.343,107.833,142.894,107.383,142.894,106.827z
			 M139.537,106.827c0-0.558,0.449-1.008,1.006-1.008l0,0c0.557,0,1.008,0.45,1.008,1.008l0,0c0,0.556-0.451,1.006-1.008,1.006l0,0
			C139.986,107.833,139.537,107.383,139.537,106.827z M136.18,106.827c0-0.558,0.449-1.008,1.006-1.008l0,0
			c0.558,0,1.008,0.45,1.008,1.008l0,0c0,0.556-0.45,1.006-1.008,1.006l0,0C136.629,107.833,136.18,107.383,136.18,106.827z
			 M132.822,106.827c0-0.558,0.449-1.008,1.007-1.008l0,0c0.558,0,1.008,0.45,1.008,1.008l0,0c0,0.556-0.45,1.006-1.008,1.006l0,0
			C133.271,107.833,132.822,107.383,132.822,106.827z"/>
	</g>
	<g>
		<path fill="#808285" d="M148.674,117.427c-0.154-0.194-0.229-0.415-0.221-0.645l0,0c0-0.289,0.125-0.577,0.368-0.778l0,0
			c0.429-0.35,1.06-0.281,1.417,0.148l0,0c0.154,0.188,0.229,0.415,0.221,0.637l0,0c0,0.295-0.121,0.577-0.369,0.779l0,0
			c-0.181,0.153-0.408,0.228-0.631,0.228l0,0C149.162,117.796,148.875,117.668,148.674,117.427z M151.279,115.299
			c-0.156-0.188-0.229-0.416-0.229-0.638l0,0c0-0.289,0.127-0.578,0.369-0.778l0,0c0.428-0.35,1.066-0.29,1.416,0.147l0,0
			c0.154,0.188,0.229,0.41,0.229,0.637l0,0c0,0.289-0.129,0.578-0.369,0.779l0,0c-0.188,0.148-0.416,0.223-0.639,0.223l0,0
			C151.762,115.669,151.473,115.548,151.279,115.299z M153.877,113.178c-0.156-0.188-0.229-0.417-0.229-0.638l0,0
			c0-0.296,0.127-0.585,0.369-0.779l0,0c0.43-0.35,1.067-0.289,1.416,0.141l0,0c0.154,0.188,0.229,0.417,0.229,0.645l0,0
			c0,0.289-0.127,0.578-0.369,0.772l0,0c-0.188,0.154-0.416,0.229-0.639,0.229l0,0C154.366,113.547,154.078,113.419,153.877,113.178
			z M156.475,111.056c-0.154-0.188-0.229-0.415-0.229-0.644l0,0c0.007-0.29,0.128-0.578,0.369-0.773l0,0
			c0.437-0.355,1.067-0.288,1.417,0.142l0,0c0.154,0.188,0.228,0.416,0.228,0.644l0,0c0,0.289-0.127,0.578-0.369,0.773l0,0
			c-0.188,0.153-0.409,0.228-0.638,0.228l0,0C156.964,111.425,156.676,111.297,156.475,111.056z M159.072,108.935
			c-0.147-0.188-0.228-0.417-0.221-0.645l0,0c0-0.289,0.127-0.578,0.369-0.772l0,0c0.429-0.355,1.061-0.289,1.416,0.141l0,0
			c0.154,0.188,0.229,0.417,0.229,0.645l0,0c-0.007,0.289-0.129,0.571-0.37,0.772l0,0c-0.188,0.154-0.416,0.229-0.638,0.229l0,0
			C159.563,109.304,159.274,109.176,159.072,108.935z M160.086,106.759c-0.182-0.194-0.275-0.443-0.275-0.698l0,0
			c0.008-0.262,0.108-0.53,0.316-0.725l0,0c0.402-0.382,1.04-0.363,1.422,0.04l0,0c0.189,0.195,0.276,0.443,0.276,0.691l0,0
			c0,0.27-0.106,0.53-0.315,0.732l0,0c-0.194,0.182-0.443,0.274-0.691,0.274l0,0C160.557,107.074,160.288,106.968,160.086,106.759z
			 M157.783,104.322c-0.188-0.195-0.273-0.45-0.273-0.698l0,0c0-0.27,0.1-0.53,0.314-0.726l0,0c0.402-0.383,1.04-0.369,1.424,0.041
			l0,0c0.181,0.194,0.275,0.442,0.275,0.69l0,0c0,0.269-0.108,0.531-0.316,0.732l0,0c-0.195,0.181-0.443,0.275-0.691,0.275l0,0
			C158.248,104.638,157.979,104.53,157.783,104.322z M155.475,101.879c-0.182-0.194-0.275-0.443-0.275-0.692l0,0
			c0-0.269,0.107-0.53,0.315-0.725l0,0c0.403-0.383,1.04-0.369,1.423,0.034l0,0c0.188,0.2,0.275,0.449,0.275,0.697l0,0
			c0,0.269-0.107,0.531-0.315,0.731l0,0c-0.194,0.182-0.443,0.275-0.69,0.275l0,0C155.938,102.2,155.676,102.094,155.475,101.879z
			 M153.164,99.447c-0.181-0.201-0.274-0.449-0.274-0.697l0,0c0.007-0.27,0.106-0.531,0.315-0.732l0,0
			c0.402-0.375,1.041-0.363,1.424,0.041l0,0c0.188,0.201,0.273,0.449,0.273,0.699l0,0c0,0.267-0.106,0.529-0.314,0.723l0,0
			c-0.195,0.189-0.443,0.277-0.691,0.277l0,0C153.635,99.758,153.367,99.656,153.164,99.447z M150.862,97.004
			c-0.188-0.193-0.275-0.443-0.275-0.691l0,0c0-0.268,0.108-0.529,0.315-0.731l0,0c0.403-0.384,1.041-0.362,1.423,0.04l0,0
			c0.183,0.195,0.275,0.451,0.275,0.698l0,0c0,0.263-0.108,0.53-0.315,0.726l0,0c-0.194,0.188-0.443,0.275-0.691,0.275l0,0
			C151.326,97.32,151.057,97.219,150.862,97.004z"/>
	</g>
	<g>
		<path d="M174.671,153.661c-3.333,0-6.044-2.711-6.044-6.044v-92.08c0-3.333,2.711-6.044,6.044-6.044h149.938
			c3.332,0,6.044,2.712,6.044,6.044v92.08c0,3.333-2.712,6.044-6.044,6.044H174.671z"/>
	</g>
	<g>
		<path d="M174.671,153.084c-3.013,0-5.466-2.451-5.466-5.467v-92.08c0-3.014,2.453-5.467,5.466-5.467h149.938
			c3.014,0,5.467,2.453,5.467,5.467v92.08c0,3.016-2.453,5.467-5.467,5.467H174.671z"/>
	</g>
	<g>
		<path fill="#4E4E4E" d="M329.498,147.617c0,2.7-2.189,4.891-4.889,4.891H174.671c-2.7,0-4.889-2.19-4.889-4.891v-92.08
			c0-2.701,2.188-4.889,4.889-4.889h149.938c2.699,0,4.889,2.188,4.889,4.889V147.617z"/>
	</g>
	<g>
		<rect x="176.076" y="56.955" fill="#E6E6E5" width="147.092" height="82.581"/>
	</g>
	<g>
		<path fill="#4E4E4E" d="M176.416,154h147.186c2.965,0,27.86-1.853,27.86-4.143H147.781C147.781,152.146,173.455,154,176.416,154z"
			/>
	</g>
	<g>
		<g>
			<g>
				<defs>
					<circle id="SVGID_1_" cx="249.641" cy="53.781" r="1.038"/>
				</defs>
				<clipPath id="SVGID_2_">
					<use xlink:href="#SVGID_1_"  overflow="visible"/>
				</clipPath>
				<path clip-path="url(#SVGID_2_)" d="M248.603,52.744v2.074V52.744z"/>
				<rect x="248.603" y="52.744" clip-path="url(#SVGID_2_)" width="0.055" height="2.074"/>
				<rect x="248.657" y="52.744" clip-path="url(#SVGID_2_)" fill="#030303" width="0.054" height="2.074"/>
				<rect x="248.711" y="52.744" clip-path="url(#SVGID_2_)" fill="#070707" width="0.055" height="2.074"/>
				<rect x="248.766" y="52.744" clip-path="url(#SVGID_2_)" fill="#0B0B0B" width="0.055" height="2.074"/>
				<rect x="248.82" y="52.744" clip-path="url(#SVGID_2_)" fill="#0F0F0F" width="0.056" height="2.074"/>
				<rect x="248.876" y="52.744" clip-path="url(#SVGID_2_)" fill="#121213" width="0.055" height="2.074"/>
				<rect x="248.931" y="52.744" clip-path="url(#SVGID_2_)" fill="#151516" width="0.052" height="2.074"/>
				<rect x="248.982" y="52.744" clip-path="url(#SVGID_2_)" fill="#181819" width="0.059" height="2.074"/>
				<rect x="249.041" y="52.744" clip-path="url(#SVGID_2_)" fill="#1B1B1C" width="0.052" height="2.074"/>
				<rect x="249.093" y="52.744" clip-path="url(#SVGID_2_)" fill="#1E1E1F" width="0.055" height="2.074"/>
				<rect x="249.147" y="52.744" clip-path="url(#SVGID_2_)" fill="#212021" width="0.056" height="2.074"/>
				<rect x="249.203" y="52.744" clip-path="url(#SVGID_2_)" fill="#232324" width="0.055" height="2.074"/>
				<rect x="249.258" y="52.744" clip-path="url(#SVGID_2_)" fill="#262526" width="0.057" height="2.074"/>
				<rect x="249.314" y="52.744" clip-path="url(#SVGID_2_)" fill="#282829" width="0.052" height="2.074"/>
				<rect x="249.366" y="52.744" clip-path="url(#SVGID_2_)" fill="#2A2A2B" width="0.055" height="2.074"/>
				<rect x="249.421" y="52.744" clip-path="url(#SVGID_2_)" fill="#2D2C2D" width="0.055" height="2.074"/>
				<rect x="249.476" y="52.744" clip-path="url(#SVGID_2_)" fill="#2F2E30" width="0.056" height="2.074"/>
				<rect x="249.531" y="52.744" clip-path="url(#SVGID_2_)" fill="#313132" width="0.055" height="2.074"/>
				<rect x="249.586" y="52.744" clip-path="url(#SVGID_2_)" fill="#333334" width="0.052" height="2.074"/>
				<rect x="249.638" y="52.744" clip-path="url(#SVGID_2_)" fill="#353536" width="0.059" height="2.074"/>
				<rect x="249.696" y="52.744" clip-path="url(#SVGID_2_)" fill="#373738" width="0.053" height="2.074"/>
				<rect x="249.749" y="52.744" clip-path="url(#SVGID_2_)" fill="#39393A" width="0.055" height="2.074"/>
				<rect x="249.804" y="52.744" clip-path="url(#SVGID_2_)" fill="#3B3B3C" width="0.056" height="2.074"/>
				<rect x="249.859" y="52.744" clip-path="url(#SVGID_2_)" fill="#3D3D3E" width="0.055" height="2.074"/>
				<rect x="249.914" y="52.744" clip-path="url(#SVGID_2_)" fill="#3F3F40" width="0.056" height="2.074"/>
				<rect x="249.97" y="52.744" clip-path="url(#SVGID_2_)" fill="#404042" width="0.052" height="2.074"/>
				<rect x="250.021" y="52.744" clip-path="url(#SVGID_2_)" fill="#414143" width="0.055" height="2.074"/>
				<rect x="250.076" y="52.744" clip-path="url(#SVGID_2_)" fill="#424244" width="0.055" height="2.074"/>
				<rect x="250.131" y="52.744" clip-path="url(#SVGID_2_)" fill="#444345" width="0.056" height="2.074"/>
				<rect x="250.187" y="52.744" clip-path="url(#SVGID_2_)" fill="#454446" width="0.055" height="2.074"/>
				<rect x="250.241" y="52.744" clip-path="url(#SVGID_2_)" fill="#464547" width="0.056" height="2.074"/>
				<rect x="250.297" y="52.744" clip-path="url(#SVGID_2_)" fill="#474748" width="0.055" height="2.074"/>
				<rect x="250.352" y="52.744" clip-path="url(#SVGID_2_)" fill="#48484A" width="0.053" height="2.074"/>
				<rect x="250.404" y="52.744" clip-path="url(#SVGID_2_)" fill="#49494B" width="0.055" height="2.074"/>
				<rect x="250.459" y="52.744" clip-path="url(#SVGID_2_)" fill="#4A4A4C" width="0.056" height="2.074"/>
				<rect x="250.515" y="52.744" clip-path="url(#SVGID_2_)" fill="#4B4B4D" width="0.055" height="2.074"/>
				<rect x="250.569" y="52.744" clip-path="url(#SVGID_2_)" fill="#4C4C4E" width="0.056" height="2.074"/>
				<rect x="250.625" y="52.744" clip-path="url(#SVGID_2_)" fill="#4D4D4F" width="0.053" height="2.074"/>
				<path clip-path="url(#SVGID_2_)" fill="#4D4D4F" d="M250.678,54.818v-2.074V54.818z"/>
			</g>
		</g>
		<g>
			<g>
				<defs>
					<circle id="SVGID_3_" cx="249.641" cy="53.781" r="0.807"/>
				</defs>
				<clipPath id="SVGID_4_">
					<use xlink:href="#SVGID_3_"  overflow="visible"/>
				</clipPath>
				<path clip-path="url(#SVGID_4_)" d="M248.833,52.975v1.613V52.975z"/>
				<rect x="248.833" y="52.975" clip-path="url(#SVGID_4_)" width="0.043" height="1.613"/>
				<rect x="248.876" y="52.975" clip-path="url(#SVGID_4_)" fill="#030303" width="0.041" height="1.613"/>
				<rect x="248.917" y="52.975" clip-path="url(#SVGID_4_)" fill="#070707" width="0.042" height="1.613"/>
				<rect x="248.959" y="52.975" clip-path="url(#SVGID_4_)" fill="#0B0B0B" width="0.045" height="1.613"/>
				<rect x="249.004" y="52.975" clip-path="url(#SVGID_4_)" fill="#0F0F0F" width="0.042" height="1.613"/>
				<rect x="249.046" y="52.975" clip-path="url(#SVGID_4_)" fill="#121213" width="0.042" height="1.613"/>
				<rect x="249.088" y="52.975" clip-path="url(#SVGID_4_)" fill="#151516" width="0.042" height="1.613"/>
				<rect x="249.13" y="52.975" clip-path="url(#SVGID_4_)" fill="#181819" width="0.042" height="1.613"/>
				<rect x="249.172" y="52.975" clip-path="url(#SVGID_4_)" fill="#1B1B1C" width="0.041" height="1.613"/>
				<rect x="249.213" y="52.975" clip-path="url(#SVGID_4_)" fill="#1E1E1F" width="0.045" height="1.613"/>
				<rect x="249.258" y="52.975" clip-path="url(#SVGID_4_)" fill="#212021" width="0.043" height="1.613"/>
				<rect x="249.301" y="52.975" clip-path="url(#SVGID_4_)" fill="#232324" width="0.041" height="1.613"/>
				<rect x="249.342" y="52.975" clip-path="url(#SVGID_4_)" fill="#262526" width="0.043" height="1.613"/>
				<rect x="249.385" y="52.975" clip-path="url(#SVGID_4_)" fill="#282829" width="0.043" height="1.613"/>
				<rect x="249.428" y="52.975" clip-path="url(#SVGID_4_)" fill="#2A2A2B" width="0.043" height="1.613"/>
				<rect x="249.471" y="52.975" clip-path="url(#SVGID_4_)" fill="#2D2C2D" width="0.042" height="1.613"/>
				<rect x="249.513" y="52.975" clip-path="url(#SVGID_4_)" fill="#2F2E30" width="0.042" height="1.613"/>
				<rect x="249.555" y="52.975" clip-path="url(#SVGID_4_)" fill="#313132" width="0.042" height="1.613"/>
				<rect x="249.597" y="52.975" clip-path="url(#SVGID_4_)" fill="#333334" width="0.041" height="1.613"/>
				<rect x="249.638" y="52.975" clip-path="url(#SVGID_4_)" fill="#353536" width="0.045" height="1.613"/>
				<rect x="249.683" y="52.975" clip-path="url(#SVGID_4_)" fill="#373738" width="0.043" height="1.613"/>
				<rect x="249.726" y="52.975" clip-path="url(#SVGID_4_)" fill="#39393A" width="0.041" height="1.613"/>
				<rect x="249.767" y="52.975" clip-path="url(#SVGID_4_)" fill="#3B3B3C" width="0.043" height="1.613"/>
				<rect x="249.81" y="52.975" clip-path="url(#SVGID_4_)" fill="#3D3D3E" width="0.043" height="1.613"/>
				<rect x="249.853" y="52.975" clip-path="url(#SVGID_4_)" fill="#3F3F40" width="0.043" height="1.613"/>
				<rect x="249.896" y="52.975" clip-path="url(#SVGID_4_)" fill="#404042" width="0.042" height="1.613"/>
				<rect x="249.938" y="52.975" clip-path="url(#SVGID_4_)" fill="#414143" width="0.042" height="1.613"/>
				<rect x="249.979" y="52.975" clip-path="url(#SVGID_4_)" fill="#424244" width="0.042" height="1.613"/>
				<rect x="250.021" y="52.975" clip-path="url(#SVGID_4_)" fill="#444345" width="0.042" height="1.613"/>
				<rect x="250.063" y="52.975" clip-path="url(#SVGID_4_)" fill="#454446" width="0.045" height="1.613"/>
				<rect x="250.108" y="52.975" clip-path="url(#SVGID_4_)" fill="#464547" width="0.042" height="1.613"/>
				<rect x="250.15" y="52.975" clip-path="url(#SVGID_4_)" fill="#474748" width="0.041" height="1.613"/>
				<rect x="250.191" y="52.975" clip-path="url(#SVGID_4_)" fill="#48484A" width="0.043" height="1.613"/>
				<rect x="250.234" y="52.975" clip-path="url(#SVGID_4_)" fill="#49494B" width="0.044" height="1.613"/>
				<rect x="250.278" y="52.975" clip-path="url(#SVGID_4_)" fill="#4A4A4C" width="0.042" height="1.613"/>
				<rect x="250.32" y="52.975" clip-path="url(#SVGID_4_)" fill="#4B4B4D" width="0.043" height="1.613"/>
				<rect x="250.363" y="52.975" clip-path="url(#SVGID_4_)" fill="#4C4C4E" width="0.041" height="1.613"/>
				<rect x="250.404" y="52.975" clip-path="url(#SVGID_4_)" fill="#4D4D4F" width="0.042" height="1.613"/>
				<path clip-path="url(#SVGID_4_)" fill="#4D4D4F" d="M250.446,54.587v-1.613V54.587z"/>
			</g>
		</g>
		<g>
			<g>
				<defs>
					<circle id="SVGID_5_" cx="249.641" cy="53.781" r="0.807"/>
				</defs>
				<clipPath id="SVGID_6_">
					<use xlink:href="#SVGID_5_"  overflow="visible"/>
				</clipPath>
				<path clip-path="url(#SVGID_6_)" fill="#4D4D4F" d="M248.833,52.975v1.613V52.975z"/>
				<rect x="248.833" y="52.975" clip-path="url(#SVGID_6_)" fill="#4D4D4F" width="0.043" height="1.613"/>
				<rect x="248.876" y="52.975" clip-path="url(#SVGID_6_)" fill="#4C4C4E" width="0.041" height="1.613"/>
				<rect x="248.917" y="52.975" clip-path="url(#SVGID_6_)" fill="#4B4B4D" width="0.042" height="1.613"/>
				<rect x="248.959" y="52.975" clip-path="url(#SVGID_6_)" fill="#4A4A4C" width="0.045" height="1.613"/>
				<rect x="249.004" y="52.975" clip-path="url(#SVGID_6_)" fill="#49494B" width="0.042" height="1.613"/>
				<rect x="249.046" y="52.975" clip-path="url(#SVGID_6_)" fill="#48484A" width="0.042" height="1.613"/>
				<rect x="249.088" y="52.975" clip-path="url(#SVGID_6_)" fill="#474748" width="0.042" height="1.613"/>
				<rect x="249.13" y="52.975" clip-path="url(#SVGID_6_)" fill="#464547" width="0.042" height="1.613"/>
				<rect x="249.172" y="52.975" clip-path="url(#SVGID_6_)" fill="#454446" width="0.041" height="1.613"/>
				<rect x="249.213" y="52.975" clip-path="url(#SVGID_6_)" fill="#444345" width="0.045" height="1.613"/>
				<rect x="249.258" y="52.975" clip-path="url(#SVGID_6_)" fill="#424244" width="0.043" height="1.613"/>
				<rect x="249.301" y="52.975" clip-path="url(#SVGID_6_)" fill="#414143" width="0.041" height="1.613"/>
				<rect x="249.342" y="52.975" clip-path="url(#SVGID_6_)" fill="#404042" width="0.043" height="1.613"/>
				<rect x="249.385" y="52.975" clip-path="url(#SVGID_6_)" fill="#3F3F40" width="0.043" height="1.613"/>
				<rect x="249.428" y="52.975" clip-path="url(#SVGID_6_)" fill="#3D3D3E" width="0.043" height="1.613"/>
				<rect x="249.471" y="52.975" clip-path="url(#SVGID_6_)" fill="#3B3B3C" width="0.042" height="1.613"/>
				<rect x="249.513" y="52.975" clip-path="url(#SVGID_6_)" fill="#39393A" width="0.042" height="1.613"/>
				<rect x="249.555" y="52.975" clip-path="url(#SVGID_6_)" fill="#373738" width="0.042" height="1.613"/>
				<rect x="249.597" y="52.975" clip-path="url(#SVGID_6_)" fill="#353536" width="0.041" height="1.613"/>
				<rect x="249.638" y="52.975" clip-path="url(#SVGID_6_)" fill="#333334" width="0.045" height="1.613"/>
				<rect x="249.683" y="52.975" clip-path="url(#SVGID_6_)" fill="#313132" width="0.043" height="1.613"/>
				<rect x="249.726" y="52.975" clip-path="url(#SVGID_6_)" fill="#2F2E30" width="0.041" height="1.613"/>
				<rect x="249.767" y="52.975" clip-path="url(#SVGID_6_)" fill="#2D2C2D" width="0.043" height="1.613"/>
				<rect x="249.81" y="52.975" clip-path="url(#SVGID_6_)" fill="#2A2A2B" width="0.043" height="1.613"/>
				<rect x="249.853" y="52.975" clip-path="url(#SVGID_6_)" fill="#282829" width="0.043" height="1.613"/>
				<rect x="249.896" y="52.975" clip-path="url(#SVGID_6_)" fill="#262526" width="0.042" height="1.613"/>
				<rect x="249.938" y="52.975" clip-path="url(#SVGID_6_)" fill="#232324" width="0.042" height="1.613"/>
				<rect x="249.979" y="52.975" clip-path="url(#SVGID_6_)" fill="#212021" width="0.042" height="1.613"/>
				<rect x="250.021" y="52.975" clip-path="url(#SVGID_6_)" fill="#1E1E1F" width="0.042" height="1.613"/>
				<rect x="250.063" y="52.975" clip-path="url(#SVGID_6_)" fill="#1B1B1C" width="0.045" height="1.613"/>
				<rect x="250.108" y="52.975" clip-path="url(#SVGID_6_)" fill="#181819" width="0.042" height="1.613"/>
				<rect x="250.15" y="52.975" clip-path="url(#SVGID_6_)" fill="#151516" width="0.041" height="1.613"/>
				<rect x="250.191" y="52.975" clip-path="url(#SVGID_6_)" fill="#121213" width="0.043" height="1.613"/>
				<rect x="250.234" y="52.975" clip-path="url(#SVGID_6_)" fill="#0F0F0F" width="0.044" height="1.613"/>
				<rect x="250.278" y="52.975" clip-path="url(#SVGID_6_)" fill="#0B0B0B" width="0.042" height="1.613"/>
				<rect x="250.32" y="52.975" clip-path="url(#SVGID_6_)" fill="#070707" width="0.043" height="1.613"/>
				<rect x="250.363" y="52.975" clip-path="url(#SVGID_6_)" fill="#030303" width="0.041" height="1.613"/>
				<rect x="250.404" y="52.975" clip-path="url(#SVGID_6_)" width="0.042" height="1.613"/>
				<path clip-path="url(#SVGID_6_)" d="M250.446,54.587v-1.613V54.587z"/>
			</g>
		</g>
		<g>
			<g>
				<defs>
					<circle id="SVGID_7_" cx="249.641" cy="53.781" r="0.577"/>
				</defs>
				<clipPath id="SVGID_8_">
					<use xlink:href="#SVGID_7_"  overflow="visible"/>
				</clipPath>
				<path clip-path="url(#SVGID_8_)" d="M249.063,53.205v1.151V53.205z"/>
				<rect x="249.063" y="53.205" clip-path="url(#SVGID_8_)" width="0.029" height="1.151"/>
				<rect x="249.093" y="53.205" clip-path="url(#SVGID_8_)" fill="#030303" width="0.032" height="1.151"/>
				<rect x="249.125" y="53.205" clip-path="url(#SVGID_8_)" fill="#070707" width="0.031" height="1.151"/>
				<rect x="249.156" y="53.205" clip-path="url(#SVGID_8_)" fill="#0B0B0B" width="0.029" height="1.151"/>
				<rect x="249.186" y="53.205" clip-path="url(#SVGID_8_)" fill="#0F0F0F" width="0.027" height="1.151"/>
				<rect x="249.213" y="53.205" clip-path="url(#SVGID_8_)" fill="#121213" width="0.032" height="1.151"/>
				<rect x="249.245" y="53.205" clip-path="url(#SVGID_8_)" fill="#151516" width="0.031" height="1.151"/>
				<rect x="249.276" y="53.205" clip-path="url(#SVGID_8_)" fill="#181819" width="0.029" height="1.151"/>
				<rect x="249.306" y="53.205" clip-path="url(#SVGID_8_)" fill="#1B1B1C" width="0.031" height="1.151"/>
				<rect x="249.337" y="53.205" clip-path="url(#SVGID_8_)" fill="#1E1E1F" width="0.029" height="1.151"/>
				<rect x="249.366" y="53.205" clip-path="url(#SVGID_8_)" fill="#212021" width="0.031" height="1.151"/>
				<rect x="249.397" y="53.205" clip-path="url(#SVGID_8_)" fill="#232324" width="0.03" height="1.151"/>
				<rect x="249.428" y="53.205" clip-path="url(#SVGID_8_)" fill="#262526" width="0.029" height="1.151"/>
				<rect x="249.457" y="53.205" clip-path="url(#SVGID_8_)" fill="#282829" width="0.032" height="1.151"/>
				<rect x="249.489" y="53.205" clip-path="url(#SVGID_8_)" fill="#2A2A2B" width="0.028" height="1.151"/>
				<rect x="249.518" y="53.205" clip-path="url(#SVGID_8_)" fill="#2D2C2D" width="0.032" height="1.151"/>
				<rect x="249.55" y="53.205" clip-path="url(#SVGID_8_)" fill="#2F2E30" width="0.031" height="1.151"/>
				<rect x="249.581" y="53.205" clip-path="url(#SVGID_8_)" fill="#313132" width="0.029" height="1.151"/>
				<rect x="249.61" y="53.205" clip-path="url(#SVGID_8_)" fill="#333334" width="0.027" height="1.151"/>
				<rect x="249.638" y="53.205" clip-path="url(#SVGID_8_)" fill="#353536" width="0.032" height="1.151"/>
				<rect x="249.67" y="53.205" clip-path="url(#SVGID_8_)" fill="#373738" width="0.031" height="1.151"/>
				<rect x="249.701" y="53.205" clip-path="url(#SVGID_8_)" fill="#39393A" width="0.029" height="1.151"/>
				<rect x="249.73" y="53.205" clip-path="url(#SVGID_8_)" fill="#3B3B3C" width="0.031" height="1.151"/>
				<rect x="249.762" y="53.205" clip-path="url(#SVGID_8_)" fill="#3D3D3E" width="0.029" height="1.151"/>
				<rect x="249.791" y="53.205" clip-path="url(#SVGID_8_)" fill="#3F3F40" width="0.03" height="1.151"/>
				<rect x="249.821" y="53.205" clip-path="url(#SVGID_8_)" fill="#404042" width="0.031" height="1.151"/>
				<rect x="249.853" y="53.205" clip-path="url(#SVGID_8_)" fill="#414143" width="0.029" height="1.151"/>
				<rect x="249.882" y="53.205" clip-path="url(#SVGID_8_)" fill="#424244" width="0.032" height="1.151"/>
				<rect x="249.914" y="53.205" clip-path="url(#SVGID_8_)" fill="#444345" width="0.028" height="1.151"/>
				<rect x="249.942" y="53.205" clip-path="url(#SVGID_8_)" fill="#454446" width="0.032" height="1.151"/>
				<rect x="249.975" y="53.205" clip-path="url(#SVGID_8_)" fill="#464547" width="0.031" height="1.151"/>
				<rect x="250.006" y="53.205" clip-path="url(#SVGID_8_)" fill="#474748" width="0.029" height="1.151"/>
				<rect x="250.035" y="53.205" clip-path="url(#SVGID_8_)" fill="#48484A" width="0.03" height="1.151"/>
				<rect x="250.065" y="53.205" clip-path="url(#SVGID_8_)" fill="#49494B" width="0.029" height="1.151"/>
				<rect x="250.095" y="53.205" clip-path="url(#SVGID_8_)" fill="#4A4A4C" width="0.031" height="1.151"/>
				<rect x="250.126" y="53.205" clip-path="url(#SVGID_8_)" fill="#4B4B4D" width="0.029" height="1.151"/>
				<rect x="250.155" y="53.205" clip-path="url(#SVGID_8_)" fill="#4C4C4E" width="0.031" height="1.151"/>
				<rect x="250.187" y="53.205" clip-path="url(#SVGID_8_)" fill="#4D4D4F" width="0.029" height="1.151"/>
				<path clip-path="url(#SVGID_8_)" fill="#4D4D4F" d="M250.216,54.356v-1.151V54.356z"/>
			</g>
		</g>
		<g opacity="0.39">
			<g>
				<defs>
					<circle id="SVGID_9_" cx="249.926" cy="53.881" r="0.204"/>
				</defs>
				<clipPath id="SVGID_10_">
					<use xlink:href="#SVGID_9_"  overflow="visible"/>
				</clipPath>
				<path clip-path="url(#SVGID_10_)" fill="#FFFFFF" d="M249.722,53.68v0.404V53.68z"/>
				<rect x="249.722" y="53.68" clip-path="url(#SVGID_10_)" fill="#FFFFFF" width="0.004" height="0.404"/>
				<rect x="249.726" y="53.68" clip-path="url(#SVGID_10_)" fill="#FDFEFF" width="0.002" height="0.404"/>
				<path clip-path="url(#SVGID_10_)" fill="#FBFDFE" d="M249.728,53.68v0.404V53.68z"/>
				<rect x="249.728" y="53.68" clip-path="url(#SVGID_10_)" fill="#F9FCFE" width="0.005" height="0.404"/>
				<path clip-path="url(#SVGID_10_)" fill="#F8FBFE" d="M249.732,54.084V53.68V54.084z"/>
				<rect x="249.732" y="53.68" clip-path="url(#SVGID_10_)" fill="#F7FAFD" width="0.003" height="0.404"/>
				<rect x="249.735" y="53.68" clip-path="url(#SVGID_10_)" fill="#F5F9FD" width="0.002" height="0.404"/>
				<rect x="249.737" y="53.68" clip-path="url(#SVGID_10_)" fill="#F4F9FD" width="0.004" height="0.404"/>
				<rect x="249.741" y="53.68" clip-path="url(#SVGID_10_)" fill="#F3F8FD" width="0.003" height="0.404"/>
				<rect x="249.744" y="53.68" clip-path="url(#SVGID_10_)" fill="#F2F7FC" width="0.002" height="0.404"/>
				<rect x="249.746" y="53.68" clip-path="url(#SVGID_10_)" fill="#F1F6FC" width="0.003" height="0.404"/>
				<path clip-path="url(#SVGID_10_)" fill="#F0F6FC" d="M249.749,53.68v0.404V53.68z"/>
				<rect x="249.749" y="53.68" clip-path="url(#SVGID_10_)" fill="#EEF5FC" width="0.002" height="0.404"/>
				<rect x="249.751" y="53.68" clip-path="url(#SVGID_10_)" fill="#EDF4FB" width="0.003" height="0.404"/>
				<rect x="249.754" y="53.68" clip-path="url(#SVGID_10_)" fill="#ECF4FB" width="0.002" height="0.404"/>
				<rect x="249.756" y="53.68" clip-path="url(#SVGID_10_)" fill="#EBF3FB" width="0.004" height="0.404"/>
				<rect x="249.76" y="53.68" clip-path="url(#SVGID_10_)" fill="#EAF2FB" width="0.002" height="0.404"/>
				<rect x="249.762" y="53.68" clip-path="url(#SVGID_10_)" fill="#E9F2FB" width="0.003" height="0.404"/>
				<path clip-path="url(#SVGID_10_)" fill="#E8F1FA" d="M249.765,53.68v0.404V53.68z"/>
				<rect x="249.765" y="53.68" clip-path="url(#SVGID_10_)" fill="#E7F1FA" width="0.002" height="0.404"/>
				<rect x="249.767" y="53.68" clip-path="url(#SVGID_10_)" fill="#E6F0FA" width="0.003" height="0.404"/>
				<rect x="249.77" y="53.68" clip-path="url(#SVGID_10_)" fill="#E5EFFA" width="0.003" height="0.404"/>
				<rect x="249.772" y="53.68" clip-path="url(#SVGID_10_)" fill="#E3EFFA" width="0.003" height="0.404"/>
				<rect x="249.775" y="53.68" clip-path="url(#SVGID_10_)" fill="#E2EEF9" width="0.002" height="0.404"/>
				<rect x="249.777" y="53.68" clip-path="url(#SVGID_10_)" fill="#E1EEF9" width="0.003" height="0.404"/>
				<path clip-path="url(#SVGID_10_)" fill="#E0EDF9" d="M249.78,53.68v0.404V53.68z"/>
				<rect x="249.78" y="53.68" clip-path="url(#SVGID_10_)" fill="#DFECF9" width="0.005" height="0.404"/>
				<path clip-path="url(#SVGID_10_)" fill="#DEECF9" d="M249.785,53.68v0.404V53.68z"/>
				<rect x="249.785" y="53.68" clip-path="url(#SVGID_10_)" fill="#DDEBF8" width="0.002" height="0.404"/>
				<rect x="249.787" y="53.68" clip-path="url(#SVGID_10_)" fill="#DCEBF8" width="0.004" height="0.404"/>
				<rect x="249.791" y="53.68" clip-path="url(#SVGID_10_)" fill="#DBEAF8" width="0.003" height="0.404"/>
				<rect x="249.794" y="53.68" clip-path="url(#SVGID_10_)" fill="#DAE9F8" width="0.002" height="0.404"/>
				<rect x="249.796" y="53.68" clip-path="url(#SVGID_10_)" fill="#D8E9F8" width="0.003" height="0.404"/>
				<rect x="249.799" y="53.68" clip-path="url(#SVGID_10_)" fill="#D7E8F7" width="0.002" height="0.404"/>
				<path clip-path="url(#SVGID_10_)" fill="#D6E8F7" d="M249.801,53.68v0.404V53.68z"/>
				<rect x="249.801" y="53.68" clip-path="url(#SVGID_10_)" fill="#D5E7F7" width="0.003" height="0.404"/>
				<rect x="249.804" y="53.68" clip-path="url(#SVGID_10_)" fill="#D4E7F7" width="0.003" height="0.404"/>
				<rect x="249.807" y="53.68" clip-path="url(#SVGID_10_)" fill="#D3E6F7" width="0.003" height="0.404"/>
				<rect x="249.81" y="53.68" clip-path="url(#SVGID_10_)" fill="#D2E6F7" width="0.002" height="0.404"/>
				<rect x="249.812" y="53.68" clip-path="url(#SVGID_10_)" fill="#D1E5F6" width="0.003" height="0.404"/>
				<rect x="249.814" y="53.68" clip-path="url(#SVGID_10_)" fill="#D0E4F6" width="0.002" height="0.404"/>
				<path clip-path="url(#SVGID_10_)" fill="#CFE4F6" d="M249.816,53.68v0.404V53.68z"/>
				<rect x="249.816" y="53.68" clip-path="url(#SVGID_10_)" fill="#CEE3F6" width="0.003" height="0.404"/>
				<rect x="249.819" y="53.68" clip-path="url(#SVGID_10_)" fill="#CDE3F6" width="0.002" height="0.404"/>
				<rect x="249.821" y="53.68" clip-path="url(#SVGID_10_)" fill="#CBE2F5" width="0.004" height="0.404"/>
				<rect x="249.825" y="53.68" clip-path="url(#SVGID_10_)" fill="#CAE2F5" width="0.002" height="0.404"/>
				<rect x="249.827" y="53.68" clip-path="url(#SVGID_10_)" fill="#C9E1F5" width="0.003" height="0.404"/>
				<rect x="249.83" y="53.68" clip-path="url(#SVGID_10_)" fill="#C8E1F5" width="0.002" height="0.404"/>
				<path clip-path="url(#SVGID_10_)" fill="#C7E0F5" d="M249.832,53.68v0.404V53.68z"/>
				<rect x="249.832" y="53.68" clip-path="url(#SVGID_10_)" fill="#C6E0F5" width="0.007" height="0.404"/>
				<path clip-path="url(#SVGID_10_)" fill="#C5DFF4" d="M249.839,53.68v0.404V53.68z"/>
				<rect x="249.839" y="53.68" clip-path="url(#SVGID_10_)" fill="#C4DFF4" width="0.002" height="0.404"/>
				<rect x="249.841" y="53.68" clip-path="url(#SVGID_10_)" fill="#C3DEF4" width="0.003" height="0.404"/>
				<rect x="249.844" y="53.68" clip-path="url(#SVGID_10_)" fill="#C2DEF4" width="0.002" height="0.404"/>
				<rect x="249.846" y="53.68" clip-path="url(#SVGID_10_)" fill="#C1DDF4" width="0.003" height="0.404"/>
				<rect x="249.849" y="53.68" clip-path="url(#SVGID_10_)" fill="#C0DDF4" width="0.002" height="0.404"/>
				<rect x="249.851" y="53.68" clip-path="url(#SVGID_10_)" fill="#BFDCF3" width="0.002" height="0.404"/>
				<path clip-path="url(#SVGID_10_)" fill="#BEDCF3" d="M249.853,53.68v0.404V53.68z"/>
				<rect x="249.853" y="53.68" clip-path="url(#SVGID_10_)" fill="#BCDBF3" width="0.004" height="0.404"/>
				<rect x="249.856" y="53.68" clip-path="url(#SVGID_10_)" fill="#BBDAF3" width="0.003" height="0.404"/>
				<rect x="249.859" y="53.68" clip-path="url(#SVGID_10_)" fill="#BADAF3" width="0.002" height="0.404"/>
				<rect x="249.861" y="53.68" clip-path="url(#SVGID_10_)" fill="#B9D9F3" width="0.003" height="0.404"/>
				<rect x="249.864" y="53.68" clip-path="url(#SVGID_10_)" fill="#B8D9F2" width="0.002" height="0.404"/>
				<rect x="249.866" y="53.68" clip-path="url(#SVGID_10_)" fill="#B7D8F2" width="0.003" height="0.404"/>
				<path clip-path="url(#SVGID_10_)" fill="#B6D8F2" d="M249.869,53.68v0.404V53.68z"/>
				<rect x="249.869" y="53.68" clip-path="url(#SVGID_10_)" fill="#B5D7F2" width="0.003" height="0.404"/>
				<rect x="249.872" y="53.68" clip-path="url(#SVGID_10_)" fill="#B4D7F2" width="0.003" height="0.404"/>
				<rect x="249.875" y="53.68" clip-path="url(#SVGID_10_)" fill="#B3D6F2" width="0.002" height="0.404"/>
				<rect x="249.877" y="53.68" clip-path="url(#SVGID_10_)" fill="#B2D6F1" width="0.003" height="0.404"/>
				<rect x="249.88" y="53.68" clip-path="url(#SVGID_10_)" fill="#B1D5F1" width="0.002" height="0.404"/>
				<rect x="249.882" y="53.68" clip-path="url(#SVGID_10_)" fill="#B0D5F1" width="0.003" height="0.404"/>
				<path clip-path="url(#SVGID_10_)" fill="#AED4F1" d="M249.885,53.68v0.404V53.68z"/>
				<rect x="249.885" y="53.68" clip-path="url(#SVGID_10_)" fill="#ADD4F1" width="0.006" height="0.404"/>
				<path clip-path="url(#SVGID_10_)" fill="#ACD3F1" d="M249.891,53.68v0.404V53.68z"/>
				<rect x="249.891" y="53.68" clip-path="url(#SVGID_10_)" fill="#ABD3F0" width="0.002" height="0.404"/>
				<rect x="249.893" y="53.68" clip-path="url(#SVGID_10_)" fill="#AAD2F0" width="0.003" height="0.404"/>
				<rect x="249.896" y="53.68" clip-path="url(#SVGID_10_)" fill="#A9D2F0" width="0.002" height="0.404"/>
				<rect x="249.897" y="53.68" clip-path="url(#SVGID_10_)" fill="#A8D1F0" width="0.003" height="0.404"/>
				<rect x="249.9" y="53.68" clip-path="url(#SVGID_10_)" fill="#A7D1F0" width="0.004" height="0.404"/>
				<rect x="249.904" y="53.68" clip-path="url(#SVGID_10_)" fill="#A6D0F0" width="0.002" height="0.404"/>
				<path clip-path="url(#SVGID_10_)" fill="#A5D0EF" d="M249.906,53.68v0.404V53.68z"/>
				<rect x="249.906" y="53.68" clip-path="url(#SVGID_10_)" fill="#A4D0EF" width="0.003" height="0.404"/>
				<rect x="249.909" y="53.68" clip-path="url(#SVGID_10_)" fill="#A3CFEF" width="0.002" height="0.404"/>
				<rect x="249.911" y="53.68" clip-path="url(#SVGID_10_)" fill="#A1CFEF" width="0.003" height="0.404"/>
				<rect x="249.914" y="53.68" clip-path="url(#SVGID_10_)" fill="#A0CEEF" width="0.002" height="0.404"/>
				<rect x="249.916" y="53.68" clip-path="url(#SVGID_10_)" fill="#9FCEEF" width="0.003" height="0.404"/>
				<rect x="249.919" y="53.68" clip-path="url(#SVGID_10_)" fill="#9ECDEE" width="0.003" height="0.404"/>
				<path clip-path="url(#SVGID_10_)" fill="#9DCDEE" d="M249.922,53.68v0.404V53.68z"/>
				<rect x="249.922" y="53.68" clip-path="url(#SVGID_10_)" fill="#9CCCEE" width="0.003" height="0.404"/>
				<rect x="249.925" y="53.68" clip-path="url(#SVGID_10_)" fill="#9BCCEE" width="0.002" height="0.404"/>
				<rect x="249.927" y="53.68" clip-path="url(#SVGID_10_)" fill="#9ACBEE" width="0.003" height="0.404"/>
				<rect x="249.93" y="53.68" clip-path="url(#SVGID_10_)" fill="#99CBEE" width="0.002" height="0.404"/>
				<rect x="249.932" y="53.68" clip-path="url(#SVGID_10_)" fill="#98CAED" width="0.003" height="0.404"/>
				<rect x="249.935" y="53.68" clip-path="url(#SVGID_10_)" fill="#97CAED" width="0.003" height="0.404"/>
				<path clip-path="url(#SVGID_10_)" fill="#95CAED" d="M249.938,53.68v0.404V53.68z"/>
				<rect x="249.938" y="53.68" clip-path="url(#SVGID_10_)" fill="#94C9ED" width="0.005" height="0.404"/>
				<path clip-path="url(#SVGID_10_)" fill="#93C9ED" d="M249.942,53.68v0.404V53.68z"/>
				<rect x="249.942" y="53.68" clip-path="url(#SVGID_10_)" fill="#92C8ED" width="0.003" height="0.404"/>
				<rect x="249.945" y="53.68" clip-path="url(#SVGID_10_)" fill="#91C8EC" width="0.002" height="0.404"/>
				<rect x="249.947" y="53.68" clip-path="url(#SVGID_10_)" fill="#90C7EC" width="0.003" height="0.404"/>
				<rect x="249.95" y="53.68" clip-path="url(#SVGID_10_)" fill="#8FC7EC" width="0.002" height="0.404"/>
				<path clip-path="url(#SVGID_10_)" fill="#8EC6EC" d="M249.952,53.68v0.404V53.68z"/>
				<rect x="249.952" y="53.68" clip-path="url(#SVGID_10_)" fill="#8DC6EC" width="0.007" height="0.404"/>
				<path clip-path="url(#SVGID_10_)" fill="#8CC5EC" d="M249.959,53.68v0.404V53.68z"/>
				<rect x="249.959" y="53.68" clip-path="url(#SVGID_10_)" fill="#8BC5EB" width="0.002" height="0.404"/>
				<rect x="249.961" y="53.68" clip-path="url(#SVGID_10_)" fill="#89C5EB" width="0.003" height="0.404"/>
				<rect x="249.964" y="53.68" clip-path="url(#SVGID_10_)" fill="#88C4EB" width="0.002" height="0.404"/>
				<rect x="249.966" y="53.68" clip-path="url(#SVGID_10_)" fill="#87C4EB" width="0.004" height="0.404"/>
				<rect x="249.97" y="53.68" clip-path="url(#SVGID_10_)" fill="#86C3EB" width="0.002" height="0.404"/>
				<rect x="249.972" y="53.68" clip-path="url(#SVGID_10_)" fill="#85C3EB" width="0.003" height="0.404"/>
				<path clip-path="url(#SVGID_10_)" fill="#84C2EB" d="M249.975,54.084V53.68V54.084z"/>
				<rect x="249.975" y="53.68" clip-path="url(#SVGID_10_)" fill="#83C2EA" width="0.002" height="0.404"/>
				<rect x="249.977" y="53.68" clip-path="url(#SVGID_10_)" fill="#82C1EA" width="0.003" height="0.404"/>
				<rect x="249.979" y="53.68" clip-path="url(#SVGID_10_)" fill="#81C1EA" width="0.002" height="0.404"/>
				<rect x="249.981" y="53.68" clip-path="url(#SVGID_10_)" fill="#80C1EA" width="0.003" height="0.404"/>
				<rect x="249.984" y="53.68" clip-path="url(#SVGID_10_)" fill="#7FC0EA" width="0.003" height="0.404"/>
				<rect x="249.987" y="53.68" clip-path="url(#SVGID_10_)" fill="#7DC0EA" width="0.003" height="0.404"/>
				<path clip-path="url(#SVGID_10_)" fill="#7CBFE9" d="M249.99,53.68v0.404V53.68z"/>
				<rect x="249.99" y="53.68" clip-path="url(#SVGID_10_)" fill="#7BBFE9" width="0.005" height="0.404"/>
				<path clip-path="url(#SVGID_10_)" fill="#7ABFE9" d="M249.995,53.68v0.404V53.68z"/>
				<rect x="249.995" y="53.68" clip-path="url(#SVGID_10_)" fill="#79BEE9" width="0.002" height="0.404"/>
				<rect x="249.997" y="53.68" clip-path="url(#SVGID_10_)" fill="#78BEE9" width="0.003" height="0.404"/>
				<rect x="250" y="53.68" clip-path="url(#SVGID_10_)" fill="#77BDE9" width="0.004" height="0.404"/>
				<rect x="250.004" y="53.68" clip-path="url(#SVGID_10_)" fill="#76BDE9" width="0.002" height="0.404"/>
				<path clip-path="url(#SVGID_10_)" fill="#75BDE8" d="M250.006,53.68v0.404V53.68z"/>
				<rect x="250.006" y="53.68" clip-path="url(#SVGID_10_)" fill="#73BCE8" width="0.005" height="0.404"/>
				<path clip-path="url(#SVGID_10_)" fill="#72BCE8" d="M250.011,53.68v0.404V53.68z"/>
				<rect x="250.011" y="53.68" clip-path="url(#SVGID_10_)" fill="#71BBE8" width="0.003" height="0.404"/>
				<rect x="250.014" y="53.68" clip-path="url(#SVGID_10_)" fill="#70BBE8" width="0.002" height="0.404"/>
				<rect x="250.016" y="53.68" clip-path="url(#SVGID_10_)" fill="#6FBBE8" width="0.003" height="0.404"/>
				<rect x="250.019" y="53.68" clip-path="url(#SVGID_10_)" fill="#6EBAE8" width="0.003" height="0.404"/>
				<rect x="250.021" y="53.68" clip-path="url(#SVGID_10_)" fill="#6DBAE7" width="0.003" height="0.404"/>
				<rect x="250.024" y="53.68" clip-path="url(#SVGID_10_)" fill="#6BB9E7" width="0.002" height="0.404"/>
				<path clip-path="url(#SVGID_10_)" fill="#6AB9E7" d="M250.026,53.68v0.404V53.68z"/>
				<rect x="250.026" y="53.68" clip-path="url(#SVGID_10_)" fill="#69B9E7" width="0.003" height="0.404"/>
				<rect x="250.029" y="53.68" clip-path="url(#SVGID_10_)" fill="#68B8E7" width="0.002" height="0.404"/>
				<rect x="250.031" y="53.68" clip-path="url(#SVGID_10_)" fill="#67B8E7" width="0.004" height="0.404"/>
				<rect x="250.035" y="53.68" clip-path="url(#SVGID_10_)" fill="#66B8E7" width="0.002" height="0.404"/>
				<rect x="250.037" y="53.68" clip-path="url(#SVGID_10_)" fill="#64B7E6" width="0.003" height="0.404"/>
				<rect x="250.04" y="53.68" clip-path="url(#SVGID_10_)" fill="#63B7E6" width="0.002" height="0.404"/>
				<path clip-path="url(#SVGID_10_)" fill="#62B6E6" d="M250.042,53.68v0.404V53.68z"/>
				<rect x="250.042" y="53.68" clip-path="url(#SVGID_10_)" fill="#61B6E6" width="0.003" height="0.404"/>
				<rect x="250.045" y="53.68" clip-path="url(#SVGID_10_)" fill="#60B6E6" width="0.002" height="0.404"/>
				<rect x="250.047" y="53.68" clip-path="url(#SVGID_10_)" fill="#5EB5E6" width="0.003" height="0.404"/>
				<rect x="250.05" y="53.68" clip-path="url(#SVGID_10_)" fill="#5DB5E6" width="0.004" height="0.404"/>
				<rect x="250.054" y="53.68" clip-path="url(#SVGID_10_)" fill="#5CB5E5" width="0.002" height="0.404"/>
				<rect x="250.056" y="53.68" clip-path="url(#SVGID_10_)" fill="#5BB4E5" width="0.003" height="0.404"/>
				<path clip-path="url(#SVGID_10_)" fill="#59B4E5" d="M250.059,53.68v0.404V53.68z"/>
				<rect x="250.059" y="53.68" clip-path="url(#SVGID_10_)" fill="#58B4E5" width="0.005" height="0.404"/>
				<path clip-path="url(#SVGID_10_)" fill="#57B3E5" d="M250.063,53.68v0.404V53.68z"/>
				<rect x="250.063" y="53.68" clip-path="url(#SVGID_10_)" fill="#55B3E5" width="0.002" height="0.404"/>
				<rect x="250.065" y="53.68" clip-path="url(#SVGID_10_)" fill="#54B3E5" width="0.004" height="0.404"/>
				<rect x="250.069" y="53.68" clip-path="url(#SVGID_10_)" fill="#53B2E5" width="0.002" height="0.404"/>
				<rect x="250.071" y="53.68" clip-path="url(#SVGID_10_)" fill="#51B2E4" width="0.003" height="0.404"/>
				<rect x="250.074" y="53.68" clip-path="url(#SVGID_10_)" fill="#50B1E4" width="0.002" height="0.404"/>
				<rect x="250.076" y="53.68" clip-path="url(#SVGID_10_)" fill="#4FB1E4" width="0.003" height="0.404"/>
				<path clip-path="url(#SVGID_10_)" fill="#4DB1E4" d="M250.079,53.68v0.404V53.68z"/>
				<rect x="250.079" y="53.68" clip-path="url(#SVGID_10_)" fill="#4CB0E4" width="0.002" height="0.404"/>
				<rect x="250.081" y="53.68" clip-path="url(#SVGID_10_)" fill="#4AB0E4" width="0.003" height="0.404"/>
				<rect x="250.084" y="53.68" clip-path="url(#SVGID_10_)" fill="#49B0E4" width="0.003" height="0.404"/>
				<rect x="250.087" y="53.68" clip-path="url(#SVGID_10_)" fill="#47AFE4" width="0.003" height="0.404"/>
				<rect x="250.09" y="53.68" clip-path="url(#SVGID_10_)" fill="#46AFE3" width="0.002" height="0.404"/>
				<rect x="250.092" y="53.68" clip-path="url(#SVGID_10_)" fill="#44AFE3" width="0.003" height="0.404"/>
				<path clip-path="url(#SVGID_10_)" fill="#43AEE3" d="M250.095,53.68v0.404V53.68z"/>
				<rect x="250.095" y="53.68" clip-path="url(#SVGID_10_)" fill="#41AEE3" width="0.002" height="0.404"/>
				<rect x="250.097" y="53.68" clip-path="url(#SVGID_10_)" fill="#40AEE3" width="0.004" height="0.404"/>
				<rect x="250.101" y="53.68" clip-path="url(#SVGID_10_)" fill="#3EADE3" width="0.003" height="0.404"/>
				<rect x="250.104" y="53.68" clip-path="url(#SVGID_10_)" fill="#3CADE3" width="0.002" height="0.404"/>
				<rect x="250.105" y="53.68" clip-path="url(#SVGID_10_)" fill="#3BADE3" width="0.003" height="0.404"/>
				<rect x="250.108" y="53.68" clip-path="url(#SVGID_10_)" fill="#39ADE2" width="0.002" height="0.404"/>
				<path clip-path="url(#SVGID_10_)" fill="#37ACE2" d="M250.11,53.68v0.404V53.68z"/>
				<rect x="250.11" y="53.68" clip-path="url(#SVGID_10_)" fill="#35ACE2" width="0.005" height="0.404"/>
				<path clip-path="url(#SVGID_10_)" fill="#33ACE2" d="M250.115,53.68v0.404V53.68z"/>
				<rect x="250.115" y="53.68" clip-path="url(#SVGID_10_)" fill="#31ABE2" width="0.004" height="0.404"/>
				<rect x="250.119" y="53.68" clip-path="url(#SVGID_10_)" fill="#30ABE2" width="0.002" height="0.404"/>
				<rect x="250.121" y="53.68" clip-path="url(#SVGID_10_)" fill="#2EABE2" width="0.003" height="0.404"/>
				<rect x="250.124" y="53.68" clip-path="url(#SVGID_10_)" fill="#2BAAE2" width="0.002" height="0.404"/>
				<rect x="250.126" y="53.68" clip-path="url(#SVGID_10_)" fill="#29AAE1" width="0.003" height="0.404"/>
				<rect x="250.129" y="53.68" clip-path="url(#SVGID_10_)" fill="#27AAE1" width="0.002" height="0.404"/>
				<path clip-path="url(#SVGID_10_)" fill="#27AAE1" d="M250.131,54.084V53.68V54.084z"/>
			</g>
		</g>
		<g opacity="0.39">
			<g>
				<defs>
					<circle id="SVGID_11_" cx="249.926" cy="53.881" r="0.204"/>
				</defs>
				<clipPath id="SVGID_12_">
					<use xlink:href="#SVGID_11_"  overflow="visible"/>
				</clipPath>
				<path clip-path="url(#SVGID_12_)" fill="#FFFFFF" d="M249.722,53.68v0.404V53.68z"/>
				<rect x="249.722" y="53.68" clip-path="url(#SVGID_12_)" fill="#FFFFFF" width="0.004" height="0.404"/>
				<rect x="249.726" y="53.68" clip-path="url(#SVGID_12_)" fill="#FDFEFF" width="0.002" height="0.404"/>
				<path clip-path="url(#SVGID_12_)" fill="#FBFDFE" d="M249.728,53.68v0.404V53.68z"/>
				<rect x="249.728" y="53.68" clip-path="url(#SVGID_12_)" fill="#F9FCFE" width="0.005" height="0.404"/>
				<path clip-path="url(#SVGID_12_)" fill="#F8FBFE" d="M249.732,54.084V53.68V54.084z"/>
				<rect x="249.732" y="53.68" clip-path="url(#SVGID_12_)" fill="#F7FAFD" width="0.003" height="0.404"/>
				<rect x="249.735" y="53.68" clip-path="url(#SVGID_12_)" fill="#F5F9FD" width="0.002" height="0.404"/>
				<rect x="249.737" y="53.68" clip-path="url(#SVGID_12_)" fill="#F4F9FD" width="0.004" height="0.404"/>
				<rect x="249.741" y="53.68" clip-path="url(#SVGID_12_)" fill="#F3F8FD" width="0.003" height="0.404"/>
				<rect x="249.744" y="53.68" clip-path="url(#SVGID_12_)" fill="#F2F7FC" width="0.002" height="0.404"/>
				<rect x="249.746" y="53.68" clip-path="url(#SVGID_12_)" fill="#F1F6FC" width="0.003" height="0.404"/>
				<path clip-path="url(#SVGID_12_)" fill="#F0F6FC" d="M249.749,53.68v0.404V53.68z"/>
				<rect x="249.749" y="53.68" clip-path="url(#SVGID_12_)" fill="#EEF5FC" width="0.002" height="0.404"/>
				<rect x="249.751" y="53.68" clip-path="url(#SVGID_12_)" fill="#EDF4FB" width="0.003" height="0.404"/>
				<rect x="249.754" y="53.68" clip-path="url(#SVGID_12_)" fill="#ECF4FB" width="0.002" height="0.404"/>
				<rect x="249.756" y="53.68" clip-path="url(#SVGID_12_)" fill="#EBF3FB" width="0.004" height="0.404"/>
				<rect x="249.76" y="53.68" clip-path="url(#SVGID_12_)" fill="#EAF2FB" width="0.002" height="0.404"/>
				<rect x="249.762" y="53.68" clip-path="url(#SVGID_12_)" fill="#E9F2FB" width="0.003" height="0.404"/>
				<path clip-path="url(#SVGID_12_)" fill="#E8F1FA" d="M249.765,53.68v0.404V53.68z"/>
				<rect x="249.765" y="53.68" clip-path="url(#SVGID_12_)" fill="#E7F1FA" width="0.002" height="0.404"/>
				<rect x="249.767" y="53.68" clip-path="url(#SVGID_12_)" fill="#E6F0FA" width="0.003" height="0.404"/>
				<rect x="249.77" y="53.68" clip-path="url(#SVGID_12_)" fill="#E5EFFA" width="0.003" height="0.404"/>
				<rect x="249.772" y="53.68" clip-path="url(#SVGID_12_)" fill="#E3EFFA" width="0.003" height="0.404"/>
				<rect x="249.775" y="53.68" clip-path="url(#SVGID_12_)" fill="#E2EEF9" width="0.002" height="0.404"/>
				<rect x="249.777" y="53.68" clip-path="url(#SVGID_12_)" fill="#E1EEF9" width="0.003" height="0.404"/>
				<path clip-path="url(#SVGID_12_)" fill="#E0EDF9" d="M249.78,53.68v0.404V53.68z"/>
				<rect x="249.78" y="53.68" clip-path="url(#SVGID_12_)" fill="#DFECF9" width="0.005" height="0.404"/>
				<path clip-path="url(#SVGID_12_)" fill="#DEECF9" d="M249.785,53.68v0.404V53.68z"/>
				<rect x="249.785" y="53.68" clip-path="url(#SVGID_12_)" fill="#DDEBF8" width="0.002" height="0.404"/>
				<rect x="249.787" y="53.68" clip-path="url(#SVGID_12_)" fill="#DCEBF8" width="0.004" height="0.404"/>
				<rect x="249.791" y="53.68" clip-path="url(#SVGID_12_)" fill="#DBEAF8" width="0.003" height="0.404"/>
				<rect x="249.794" y="53.68" clip-path="url(#SVGID_12_)" fill="#DAE9F8" width="0.002" height="0.404"/>
				<rect x="249.796" y="53.68" clip-path="url(#SVGID_12_)" fill="#D8E9F8" width="0.003" height="0.404"/>
				<rect x="249.799" y="53.68" clip-path="url(#SVGID_12_)" fill="#D7E8F7" width="0.002" height="0.404"/>
				<path clip-path="url(#SVGID_12_)" fill="#D6E8F7" d="M249.801,53.68v0.404V53.68z"/>
				<rect x="249.801" y="53.68" clip-path="url(#SVGID_12_)" fill="#D5E7F7" width="0.003" height="0.404"/>
				<rect x="249.804" y="53.68" clip-path="url(#SVGID_12_)" fill="#D4E7F7" width="0.003" height="0.404"/>
				<rect x="249.807" y="53.68" clip-path="url(#SVGID_12_)" fill="#D3E6F7" width="0.003" height="0.404"/>
				<rect x="249.81" y="53.68" clip-path="url(#SVGID_12_)" fill="#D2E6F7" width="0.002" height="0.404"/>
				<rect x="249.812" y="53.68" clip-path="url(#SVGID_12_)" fill="#D1E5F6" width="0.003" height="0.404"/>
				<rect x="249.814" y="53.68" clip-path="url(#SVGID_12_)" fill="#D0E4F6" width="0.002" height="0.404"/>
				<path clip-path="url(#SVGID_12_)" fill="#CFE4F6" d="M249.816,53.68v0.404V53.68z"/>
				<rect x="249.816" y="53.68" clip-path="url(#SVGID_12_)" fill="#CEE3F6" width="0.003" height="0.404"/>
				<rect x="249.819" y="53.68" clip-path="url(#SVGID_12_)" fill="#CDE3F6" width="0.002" height="0.404"/>
				<rect x="249.821" y="53.68" clip-path="url(#SVGID_12_)" fill="#CBE2F5" width="0.004" height="0.404"/>
				<rect x="249.825" y="53.68" clip-path="url(#SVGID_12_)" fill="#CAE2F5" width="0.002" height="0.404"/>
				<rect x="249.827" y="53.68" clip-path="url(#SVGID_12_)" fill="#C9E1F5" width="0.003" height="0.404"/>
				<rect x="249.83" y="53.68" clip-path="url(#SVGID_12_)" fill="#C8E1F5" width="0.002" height="0.404"/>
				<path clip-path="url(#SVGID_12_)" fill="#C7E0F5" d="M249.832,53.68v0.404V53.68z"/>
				<rect x="249.832" y="53.68" clip-path="url(#SVGID_12_)" fill="#C6E0F5" width="0.007" height="0.404"/>
				<path clip-path="url(#SVGID_12_)" fill="#C5DFF4" d="M249.839,53.68v0.404V53.68z"/>
				<rect x="249.839" y="53.68" clip-path="url(#SVGID_12_)" fill="#C4DFF4" width="0.002" height="0.404"/>
				<rect x="249.841" y="53.68" clip-path="url(#SVGID_12_)" fill="#C3DEF4" width="0.003" height="0.404"/>
				<rect x="249.844" y="53.68" clip-path="url(#SVGID_12_)" fill="#C2DEF4" width="0.002" height="0.404"/>
				<rect x="249.846" y="53.68" clip-path="url(#SVGID_12_)" fill="#C1DDF4" width="0.003" height="0.404"/>
				<rect x="249.849" y="53.68" clip-path="url(#SVGID_12_)" fill="#C0DDF4" width="0.002" height="0.404"/>
				<rect x="249.851" y="53.68" clip-path="url(#SVGID_12_)" fill="#BFDCF3" width="0.002" height="0.404"/>
				<path clip-path="url(#SVGID_12_)" fill="#BEDCF3" d="M249.853,53.68v0.404V53.68z"/>
				<rect x="249.853" y="53.68" clip-path="url(#SVGID_12_)" fill="#BCDBF3" width="0.004" height="0.404"/>
				<rect x="249.856" y="53.68" clip-path="url(#SVGID_12_)" fill="#BBDAF3" width="0.003" height="0.404"/>
				<rect x="249.859" y="53.68" clip-path="url(#SVGID_12_)" fill="#BADAF3" width="0.002" height="0.404"/>
				<rect x="249.861" y="53.68" clip-path="url(#SVGID_12_)" fill="#B9D9F3" width="0.003" height="0.404"/>
				<rect x="249.864" y="53.68" clip-path="url(#SVGID_12_)" fill="#B8D9F2" width="0.002" height="0.404"/>
				<rect x="249.866" y="53.68" clip-path="url(#SVGID_12_)" fill="#B7D8F2" width="0.003" height="0.404"/>
				<path clip-path="url(#SVGID_12_)" fill="#B6D8F2" d="M249.869,53.68v0.404V53.68z"/>
				<rect x="249.869" y="53.68" clip-path="url(#SVGID_12_)" fill="#B5D7F2" width="0.003" height="0.404"/>
				<rect x="249.872" y="53.68" clip-path="url(#SVGID_12_)" fill="#B4D7F2" width="0.003" height="0.404"/>
				<rect x="249.875" y="53.68" clip-path="url(#SVGID_12_)" fill="#B3D6F2" width="0.002" height="0.404"/>
				<rect x="249.877" y="53.68" clip-path="url(#SVGID_12_)" fill="#B2D6F1" width="0.003" height="0.404"/>
				<rect x="249.88" y="53.68" clip-path="url(#SVGID_12_)" fill="#B1D5F1" width="0.002" height="0.404"/>
				<rect x="249.882" y="53.68" clip-path="url(#SVGID_12_)" fill="#B0D5F1" width="0.003" height="0.404"/>
				<path clip-path="url(#SVGID_12_)" fill="#AED4F1" d="M249.885,53.68v0.404V53.68z"/>
				<rect x="249.885" y="53.68" clip-path="url(#SVGID_12_)" fill="#ADD4F1" width="0.006" height="0.404"/>
				<path clip-path="url(#SVGID_12_)" fill="#ACD3F1" d="M249.891,53.68v0.404V53.68z"/>
				<rect x="249.891" y="53.68" clip-path="url(#SVGID_12_)" fill="#ABD3F0" width="0.002" height="0.404"/>
				<rect x="249.893" y="53.68" clip-path="url(#SVGID_12_)" fill="#AAD2F0" width="0.003" height="0.404"/>
				<rect x="249.896" y="53.68" clip-path="url(#SVGID_12_)" fill="#A9D2F0" width="0.002" height="0.404"/>
				<rect x="249.897" y="53.68" clip-path="url(#SVGID_12_)" fill="#A8D1F0" width="0.003" height="0.404"/>
				<rect x="249.9" y="53.68" clip-path="url(#SVGID_12_)" fill="#A7D1F0" width="0.004" height="0.404"/>
				<rect x="249.904" y="53.68" clip-path="url(#SVGID_12_)" fill="#A6D0F0" width="0.002" height="0.404"/>
				<path clip-path="url(#SVGID_12_)" fill="#A5D0EF" d="M249.906,53.68v0.404V53.68z"/>
				<rect x="249.906" y="53.68" clip-path="url(#SVGID_12_)" fill="#A4D0EF" width="0.003" height="0.404"/>
				<rect x="249.909" y="53.68" clip-path="url(#SVGID_12_)" fill="#A3CFEF" width="0.002" height="0.404"/>
				<rect x="249.911" y="53.68" clip-path="url(#SVGID_12_)" fill="#A1CFEF" width="0.003" height="0.404"/>
				<rect x="249.914" y="53.68" clip-path="url(#SVGID_12_)" fill="#A0CEEF" width="0.002" height="0.404"/>
				<rect x="249.916" y="53.68" clip-path="url(#SVGID_12_)" fill="#9FCEEF" width="0.003" height="0.404"/>
				<rect x="249.919" y="53.68" clip-path="url(#SVGID_12_)" fill="#9ECDEE" width="0.003" height="0.404"/>
				<path clip-path="url(#SVGID_12_)" fill="#9DCDEE" d="M249.922,53.68v0.404V53.68z"/>
				<rect x="249.922" y="53.68" clip-path="url(#SVGID_12_)" fill="#9CCCEE" width="0.003" height="0.404"/>
				<rect x="249.925" y="53.68" clip-path="url(#SVGID_12_)" fill="#9BCCEE" width="0.002" height="0.404"/>
				<rect x="249.927" y="53.68" clip-path="url(#SVGID_12_)" fill="#9ACBEE" width="0.003" height="0.404"/>
				<rect x="249.93" y="53.68" clip-path="url(#SVGID_12_)" fill="#99CBEE" width="0.002" height="0.404"/>
				<rect x="249.932" y="53.68" clip-path="url(#SVGID_12_)" fill="#98CAED" width="0.003" height="0.404"/>
				<rect x="249.935" y="53.68" clip-path="url(#SVGID_12_)" fill="#97CAED" width="0.003" height="0.404"/>
				<path clip-path="url(#SVGID_12_)" fill="#95CAED" d="M249.938,53.68v0.404V53.68z"/>
				<rect x="249.938" y="53.68" clip-path="url(#SVGID_12_)" fill="#94C9ED" width="0.005" height="0.404"/>
				<path clip-path="url(#SVGID_12_)" fill="#93C9ED" d="M249.942,53.68v0.404V53.68z"/>
				<rect x="249.942" y="53.68" clip-path="url(#SVGID_12_)" fill="#92C8ED" width="0.003" height="0.404"/>
				<rect x="249.945" y="53.68" clip-path="url(#SVGID_12_)" fill="#91C8EC" width="0.002" height="0.404"/>
				<rect x="249.947" y="53.68" clip-path="url(#SVGID_12_)" fill="#90C7EC" width="0.003" height="0.404"/>
				<rect x="249.95" y="53.68" clip-path="url(#SVGID_12_)" fill="#8FC7EC" width="0.002" height="0.404"/>
				<path clip-path="url(#SVGID_12_)" fill="#8EC6EC" d="M249.952,53.68v0.404V53.68z"/>
				<rect x="249.952" y="53.68" clip-path="url(#SVGID_12_)" fill="#8DC6EC" width="0.007" height="0.404"/>
				<path clip-path="url(#SVGID_12_)" fill="#8CC5EC" d="M249.959,53.68v0.404V53.68z"/>
				<rect x="249.959" y="53.68" clip-path="url(#SVGID_12_)" fill="#8BC5EB" width="0.002" height="0.404"/>
				<rect x="249.961" y="53.68" clip-path="url(#SVGID_12_)" fill="#89C5EB" width="0.003" height="0.404"/>
				<rect x="249.964" y="53.68" clip-path="url(#SVGID_12_)" fill="#88C4EB" width="0.002" height="0.404"/>
				<rect x="249.966" y="53.68" clip-path="url(#SVGID_12_)" fill="#87C4EB" width="0.004" height="0.404"/>
				<rect x="249.97" y="53.68" clip-path="url(#SVGID_12_)" fill="#86C3EB" width="0.002" height="0.404"/>
				<rect x="249.972" y="53.68" clip-path="url(#SVGID_12_)" fill="#85C3EB" width="0.003" height="0.404"/>
				<path clip-path="url(#SVGID_12_)" fill="#84C2EB" d="M249.975,54.084V53.68V54.084z"/>
				<rect x="249.975" y="53.68" clip-path="url(#SVGID_12_)" fill="#83C2EA" width="0.002" height="0.404"/>
				<rect x="249.977" y="53.68" clip-path="url(#SVGID_12_)" fill="#82C1EA" width="0.003" height="0.404"/>
				<rect x="249.979" y="53.68" clip-path="url(#SVGID_12_)" fill="#81C1EA" width="0.002" height="0.404"/>
				<rect x="249.981" y="53.68" clip-path="url(#SVGID_12_)" fill="#80C1EA" width="0.003" height="0.404"/>
				<rect x="249.984" y="53.68" clip-path="url(#SVGID_12_)" fill="#7FC0EA" width="0.003" height="0.404"/>
				<rect x="249.987" y="53.68" clip-path="url(#SVGID_12_)" fill="#7DC0EA" width="0.003" height="0.404"/>
				<path clip-path="url(#SVGID_12_)" fill="#7CBFE9" d="M249.99,53.68v0.404V53.68z"/>
				<rect x="249.99" y="53.68" clip-path="url(#SVGID_12_)" fill="#7BBFE9" width="0.005" height="0.404"/>
				<path clip-path="url(#SVGID_12_)" fill="#7ABFE9" d="M249.995,53.68v0.404V53.68z"/>
				<rect x="249.995" y="53.68" clip-path="url(#SVGID_12_)" fill="#79BEE9" width="0.002" height="0.404"/>
				<rect x="249.997" y="53.68" clip-path="url(#SVGID_12_)" fill="#78BEE9" width="0.003" height="0.404"/>
				<rect x="250" y="53.68" clip-path="url(#SVGID_12_)" fill="#77BDE9" width="0.004" height="0.404"/>
				<rect x="250.004" y="53.68" clip-path="url(#SVGID_12_)" fill="#76BDE9" width="0.002" height="0.404"/>
				<path clip-path="url(#SVGID_12_)" fill="#75BDE8" d="M250.006,53.68v0.404V53.68z"/>
				<rect x="250.006" y="53.68" clip-path="url(#SVGID_12_)" fill="#73BCE8" width="0.005" height="0.404"/>
				<path clip-path="url(#SVGID_12_)" fill="#72BCE8" d="M250.011,53.68v0.404V53.68z"/>
				<rect x="250.011" y="53.68" clip-path="url(#SVGID_12_)" fill="#71BBE8" width="0.003" height="0.404"/>
				<rect x="250.014" y="53.68" clip-path="url(#SVGID_12_)" fill="#70BBE8" width="0.002" height="0.404"/>
				<rect x="250.016" y="53.68" clip-path="url(#SVGID_12_)" fill="#6FBBE8" width="0.003" height="0.404"/>
				<rect x="250.019" y="53.68" clip-path="url(#SVGID_12_)" fill="#6EBAE8" width="0.003" height="0.404"/>
				<rect x="250.021" y="53.68" clip-path="url(#SVGID_12_)" fill="#6DBAE7" width="0.003" height="0.404"/>
				<rect x="250.024" y="53.68" clip-path="url(#SVGID_12_)" fill="#6BB9E7" width="0.002" height="0.404"/>
				<path clip-path="url(#SVGID_12_)" fill="#6AB9E7" d="M250.026,53.68v0.404V53.68z"/>
				<rect x="250.026" y="53.68" clip-path="url(#SVGID_12_)" fill="#69B9E7" width="0.003" height="0.404"/>
				<rect x="250.029" y="53.68" clip-path="url(#SVGID_12_)" fill="#68B8E7" width="0.002" height="0.404"/>
				<rect x="250.031" y="53.68" clip-path="url(#SVGID_12_)" fill="#67B8E7" width="0.004" height="0.404"/>
				<rect x="250.035" y="53.68" clip-path="url(#SVGID_12_)" fill="#66B8E7" width="0.002" height="0.404"/>
				<rect x="250.037" y="53.68" clip-path="url(#SVGID_12_)" fill="#64B7E6" width="0.003" height="0.404"/>
				<rect x="250.04" y="53.68" clip-path="url(#SVGID_12_)" fill="#63B7E6" width="0.002" height="0.404"/>
				<path clip-path="url(#SVGID_12_)" fill="#62B6E6" d="M250.042,53.68v0.404V53.68z"/>
				<rect x="250.042" y="53.68" clip-path="url(#SVGID_12_)" fill="#61B6E6" width="0.003" height="0.404"/>
				<rect x="250.045" y="53.68" clip-path="url(#SVGID_12_)" fill="#60B6E6" width="0.002" height="0.404"/>
				<rect x="250.047" y="53.68" clip-path="url(#SVGID_12_)" fill="#5EB5E6" width="0.003" height="0.404"/>
				<rect x="250.05" y="53.68" clip-path="url(#SVGID_12_)" fill="#5DB5E6" width="0.004" height="0.404"/>
				<rect x="250.054" y="53.68" clip-path="url(#SVGID_12_)" fill="#5CB5E5" width="0.002" height="0.404"/>
				<rect x="250.056" y="53.68" clip-path="url(#SVGID_12_)" fill="#5BB4E5" width="0.003" height="0.404"/>
				<path clip-path="url(#SVGID_12_)" fill="#59B4E5" d="M250.059,53.68v0.404V53.68z"/>
				<rect x="250.059" y="53.68" clip-path="url(#SVGID_12_)" fill="#58B4E5" width="0.005" height="0.404"/>
				<path clip-path="url(#SVGID_12_)" fill="#57B3E5" d="M250.063,53.68v0.404V53.68z"/>
				<rect x="250.063" y="53.68" clip-path="url(#SVGID_12_)" fill="#55B3E5" width="0.002" height="0.404"/>
				<rect x="250.065" y="53.68" clip-path="url(#SVGID_12_)" fill="#54B3E5" width="0.004" height="0.404"/>
				<rect x="250.069" y="53.68" clip-path="url(#SVGID_12_)" fill="#53B2E5" width="0.002" height="0.404"/>
				<rect x="250.071" y="53.68" clip-path="url(#SVGID_12_)" fill="#51B2E4" width="0.003" height="0.404"/>
				<rect x="250.074" y="53.68" clip-path="url(#SVGID_12_)" fill="#50B1E4" width="0.002" height="0.404"/>
				<rect x="250.076" y="53.68" clip-path="url(#SVGID_12_)" fill="#4FB1E4" width="0.003" height="0.404"/>
				<path clip-path="url(#SVGID_12_)" fill="#4DB1E4" d="M250.079,53.68v0.404V53.68z"/>
				<rect x="250.079" y="53.68" clip-path="url(#SVGID_12_)" fill="#4CB0E4" width="0.002" height="0.404"/>
				<rect x="250.081" y="53.68" clip-path="url(#SVGID_12_)" fill="#4AB0E4" width="0.003" height="0.404"/>
				<rect x="250.084" y="53.68" clip-path="url(#SVGID_12_)" fill="#49B0E4" width="0.003" height="0.404"/>
				<rect x="250.087" y="53.68" clip-path="url(#SVGID_12_)" fill="#47AFE4" width="0.003" height="0.404"/>
				<rect x="250.09" y="53.68" clip-path="url(#SVGID_12_)" fill="#46AFE3" width="0.002" height="0.404"/>
				<rect x="250.092" y="53.68" clip-path="url(#SVGID_12_)" fill="#44AFE3" width="0.003" height="0.404"/>
				<path clip-path="url(#SVGID_12_)" fill="#43AEE3" d="M250.095,53.68v0.404V53.68z"/>
				<rect x="250.095" y="53.68" clip-path="url(#SVGID_12_)" fill="#41AEE3" width="0.002" height="0.404"/>
				<rect x="250.097" y="53.68" clip-path="url(#SVGID_12_)" fill="#40AEE3" width="0.004" height="0.404"/>
				<rect x="250.101" y="53.68" clip-path="url(#SVGID_12_)" fill="#3EADE3" width="0.003" height="0.404"/>
				<rect x="250.104" y="53.68" clip-path="url(#SVGID_12_)" fill="#3CADE3" width="0.002" height="0.404"/>
				<rect x="250.105" y="53.68" clip-path="url(#SVGID_12_)" fill="#3BADE3" width="0.003" height="0.404"/>
				<rect x="250.108" y="53.68" clip-path="url(#SVGID_12_)" fill="#39ADE2" width="0.002" height="0.404"/>
				<path clip-path="url(#SVGID_12_)" fill="#37ACE2" d="M250.11,53.68v0.404V53.68z"/>
				<rect x="250.11" y="53.68" clip-path="url(#SVGID_12_)" fill="#35ACE2" width="0.005" height="0.404"/>
				<path clip-path="url(#SVGID_12_)" fill="#33ACE2" d="M250.115,53.68v0.404V53.68z"/>
				<rect x="250.115" y="53.68" clip-path="url(#SVGID_12_)" fill="#31ABE2" width="0.004" height="0.404"/>
				<rect x="250.119" y="53.68" clip-path="url(#SVGID_12_)" fill="#30ABE2" width="0.002" height="0.404"/>
				<rect x="250.121" y="53.68" clip-path="url(#SVGID_12_)" fill="#2EABE2" width="0.003" height="0.404"/>
				<rect x="250.124" y="53.68" clip-path="url(#SVGID_12_)" fill="#2BAAE2" width="0.002" height="0.404"/>
				<rect x="250.126" y="53.68" clip-path="url(#SVGID_12_)" fill="#29AAE1" width="0.003" height="0.404"/>
				<rect x="250.129" y="53.68" clip-path="url(#SVGID_12_)" fill="#27AAE1" width="0.002" height="0.404"/>
				<path clip-path="url(#SVGID_12_)" fill="#27AAE1" d="M250.131,54.084V53.68V54.084z"/>
			</g>
		</g>
	</g>
	<g>
		<g>
			<defs>
				<rect id="SVGID_13_" x="169.381" y="147.55" width="160.566" height="1.764"/>
			</defs>
			<clipPath id="SVGID_14_">
				<use xlink:href="#SVGID_13_"  overflow="visible"/>
			</clipPath>
			<path clip-path="url(#SVGID_14_)" d="M169.383,149.313h160.564H169.383z"/>
			<rect x="169.383" y="147.55" clip-path="url(#SVGID_14_)" width="160.564" height="1.764"/>
			<path clip-path="url(#SVGID_14_)" d="M329.947,147.55H169.383H329.947z"/>
		</g>
	</g>
	<g>
		<rect x="147.781" y="149.043" width="203.719" height="1.039"/>
	</g>
	<g>
		<path fill="#E6E7E8" d="M266.427,149.616c0,0.489-0.682,0.886-1.525,0.886h-30.559c-0.843,0-1.527-0.396-1.527-0.886l0,0
			c0-0.491,0.886-0.388,1.73-0.388l30.198-0.009C265.588,149.22,266.427,149.125,266.427,149.616L266.427,149.616z"/>
	</g>
	<g>
		<path fill="#E6E6E5" d="M266.427,149.437c0,0.49-0.682,0.887-1.525,0.887h-30.559c-0.843,0-1.527-0.396-1.527-0.887l0,0
			c0-0.488,0.886-0.388,1.73-0.388l30.198-0.009C265.588,149.04,266.427,148.948,266.427,149.437L266.427,149.437z"/>
	</g>
	<g>
		<ellipse cx="217.576" cy="151.414" rx="1.155" ry="0.231"/>
	</g>
	<g>
		<ellipse cx="281.667" cy="151.483" rx="1.155" ry="0.232"/>
	</g>
	<g>
		<rect x="198.03" y="71.074" fill="#D1D3D4" width="113.121" height="29.974"/>
	</g>
	<g>
		<rect x="176.076" y="56.955" fill-rule="evenodd" clip-rule="evenodd" fill="#CDCCCC" width="147.092" height="9.688"/>
	</g>
	<g>
		<g>
			<rect x="185.117" y="59.888" fill-rule="evenodd" clip-rule="evenodd" fill="#FFFFFF" width="134.692" height="3.04"/>
		</g>
	</g>
	<g>
		<ellipse fill-rule="evenodd" clip-rule="evenodd" fill="#FFFFFF" cx="181.484" cy="61.408" rx="1.414" ry="1.517"/>
	</g>
	<g>
		<rect x="187.381" y="70.878" fill="#D1D3D4" width="0.168" height="64.316"/>
	</g>
	<g>
		<circle fill="#27AAE1" cx="187.464" cy="107.373" r="1.808"/>
	</g>
	<g>
		<polygon fill="#FFFFFF" points="188.698,106.584 188.695,106.584 188.701,106.588 		"/>
	</g>
	<g>
		<polygon fill="#FFFFFF" points="186.23,106.584 186.228,106.588 186.232,106.584 		"/>
	</g>
	<g>
		<path fill="#FFFFFF" d="M188.425,106.788c-0.001-0.003,0.003-0.005,0.003-0.007c-0.002-0.007-0.012-0.005-0.014-0.01
			c0-0.003-0.002-0.003-0.005-0.004c-0.014-0.02-0.028-0.039-0.052-0.039h-1.785c-0.024,0-0.04,0.02-0.054,0.039
			c-0.001,0.001-0.003,0.001-0.003,0.004c-0.004,0.005-0.013,0.003-0.014,0.01c-0.002,0.002,0.002,0.004,0.001,0.007
			c-0.013,0.015-0.028,0.028-0.028,0.046v1.109c0,0.042,0.033,0.076,0.076,0.076h1.828c0.041,0,0.075-0.034,0.075-0.076v-1.109
			C188.454,106.816,188.438,106.803,188.425,106.788z M188.131,106.878l-0.666,0.5l-0.668-0.5H188.131z M188.303,107.87h-1.678
			v-0.886l0.795,0.596c0.027,0.021,0.063,0.018,0.09,0l0.793-0.596V107.87z"/>
	</g>
	<g>
		<circle fill="#27AAE1" cx="187.464" cy="72.112" r="1.808"/>
	</g>
	<g>
		<path fill="#FFFFFF" d="M188.425,71.527c-0.001-0.004,0.003-0.005,0.003-0.008c-0.002-0.006-0.012-0.006-0.014-0.01
			c0-0.002-0.002-0.002-0.005-0.003c-0.014-0.02-0.028-0.04-0.052-0.04h-1.785c-0.024,0-0.04,0.02-0.054,0.04
			c-0.001,0.001-0.003,0.001-0.003,0.003c-0.004,0.004-0.013,0.003-0.014,0.01c-0.002,0.002,0.002,0.004,0.001,0.008
			c-0.013,0.013-0.028,0.026-0.028,0.045v1.11c0,0.041,0.033,0.075,0.076,0.075h1.828c0.041,0,0.075-0.034,0.075-0.075v-1.11
			C188.454,71.553,188.438,71.54,188.425,71.527z M188.131,71.617l-0.666,0.5l-0.668-0.5H188.131z M188.303,72.608h-1.678v-0.885
			l0.795,0.595c0.027,0.021,0.063,0.019,0.09,0l0.793-0.595V72.608z"/>
	</g>
	<g>
		<circle fill="#FFFFFF" cx="203.731" cy="76.951" r="3.03"/>
	</g>
	<g>
		<polygon fill="#DCDBDB" points="211.845,73.029 211.845,74.485 209.792,75.848 211.845,77.595 211.845,83.324 295.904,83.324 
			295.904,73.029 		"/>
	</g>
	<g>
		<rect x="215.266" y="74.699" fill="#A7A9AC" width="24.207" height="1.653"/>
	</g>
	<g>
		<rect x="215.266" y="77.394" fill="#C1C1C0" width="77.9" height="1.654"/>
	</g>
	<g>
		<rect x="215.266" y="79.74" fill="#C1C1C0" width="38.234" height="1.654"/>
	</g>
	<g>
		<circle fill="#FFFFFF" cx="292.874" cy="91.871" r="3.03"/>
	</g>
	<g>
		<polygon fill="#DCDBDB" points="284.761,87.949 284.761,89.406 286.813,90.77 284.761,92.516 284.761,98.246 200.701,98.246 
			200.701,87.949 		"/>
	</g>
	<g>
		<rect x="203.438" y="89.619" fill="#A7A9AC" width="24.208" height="1.654"/>
	</g>
	<g>
		<rect x="203.438" y="92.315" fill="#C1C1C0" width="77.9" height="1.653"/>
	</g>
	<g>
		<rect x="203.438" y="94.661" fill="#C1C1C0" width="38.234" height="1.653"/>
	</g>
	<g>
		<rect x="198.03" y="104.241" fill="#D1D3D4" width="113.121" height="29.975"/>
	</g>
	<g>
		<circle fill="#FFFFFF" cx="203.731" cy="110.118" r="3.03"/>
	</g>
	<g>
		<polygon fill="#DCDBDB" points="211.845,106.197 211.845,107.652 209.792,109.016 211.845,110.763 211.845,116.492 
			295.904,116.492 295.904,106.197 		"/>
	</g>
	<g>
		<rect x="215.266" y="107.866" fill="#A7A9AC" width="24.207" height="1.653"/>
	</g>
	<g>
		<rect x="215.266" y="110.562" fill="#C1C1C0" width="77.9" height="1.653"/>
	</g>
	<g>
		<rect x="215.266" y="112.908" fill="#C1C1C0" width="38.234" height="1.653"/>
	</g>
	<g>
		<circle fill="#FFFFFF" cx="292.874" cy="125.039" r="3.03"/>
	</g>
	<g>
		<polygon fill="#DCDBDB" points="284.761,121.117 284.761,122.573 286.813,123.937 284.761,125.684 284.761,131.412 
			200.701,131.412 200.701,121.117 		"/>
	</g>
	<g>
		<rect x="203.438" y="122.788" fill="#A7A9AC" width="24.208" height="1.652"/>
	</g>
	<g>
		<rect x="203.438" y="125.483" fill="#C1C1C0" width="77.9" height="1.653"/>
	</g>
	<g>
		<rect x="203.438" y="127.829" fill="#C1C1C0" width="38.234" height="1.653"/>
	</g>
	<g>
		<g>
			<path fill="#27AAE1" d="M204.661,109.493c-0.008,0.025-0.017,0.05-0.029,0.074c-0.155,0.342-0.5,0.581-0.9,0.581
				s-0.745-0.239-0.9-0.581c-0.012-0.024-0.02-0.049-0.029-0.074c-0.44,0.127-0.765,0.534-0.765,1.016v0.602
				c0.402,0.487,1.014,0.797,1.694,0.797c0.683,0,1.292-0.31,1.695-0.797v-0.602C205.427,110.027,205.104,109.62,204.661,109.493z"
				/>
		</g>
		<g>
			<path fill="#27AAE1" d="M203.731,109.99c0.336,0,0.627-0.201,0.758-0.487c0.009-0.021,0.017-0.042,0.024-0.063
				c0.031-0.089,0.05-0.182,0.05-0.28c0-0.459-0.373-0.832-0.832-0.832s-0.83,0.373-0.83,0.832c0,0.099,0.017,0.191,0.05,0.28
				c0.007,0.021,0.015,0.043,0.024,0.063C203.105,109.789,203.396,109.99,203.731,109.99z"/>
		</g>
	</g>
	<g>
		<g>
			<path fill="#1C75BC" d="M293.804,124.267c-0.01,0.025-0.019,0.051-0.029,0.074c-0.155,0.344-0.5,0.581-0.9,0.581
				s-0.745-0.237-0.901-0.581c-0.012-0.023-0.021-0.049-0.028-0.074c-0.442,0.128-0.766,0.534-0.766,1.017v0.601
				c0.403,0.488,1.013,0.799,1.695,0.799s1.292-0.311,1.694-0.799v-0.601C294.568,124.801,294.246,124.396,293.804,124.267z"/>
		</g>
		<g>
			<path fill="#1C75BC" d="M292.874,124.765c0.336,0,0.625-0.202,0.756-0.488c0.01-0.021,0.018-0.041,0.025-0.063
				c0.032-0.087,0.049-0.182,0.049-0.28c0-0.459-0.371-0.831-0.83-0.831s-0.832,0.372-0.832,0.831c0,0.099,0.019,0.193,0.05,0.28
				c0.008,0.022,0.015,0.043,0.024,0.063C292.246,124.563,292.536,124.765,292.874,124.765z"/>
		</g>
	</g>
	<g>
		<g>
			<path fill="#1C75BC" d="M293.804,91.247c-0.01,0.025-0.019,0.05-0.029,0.074c-0.155,0.343-0.5,0.581-0.9,0.581
				s-0.745-0.238-0.901-0.581c-0.012-0.024-0.021-0.049-0.028-0.074c-0.442,0.128-0.766,0.534-0.766,1.015v0.603
				c0.403,0.487,1.013,0.798,1.695,0.798s1.292-0.311,1.694-0.798v-0.603C294.568,91.781,294.246,91.375,293.804,91.247z"/>
		</g>
		<g>
			<path fill="#1C75BC" d="M292.874,91.744c0.336,0,0.625-0.201,0.756-0.488c0.01-0.02,0.018-0.041,0.025-0.063
				c0.032-0.088,0.049-0.182,0.049-0.28c0-0.46-0.371-0.831-0.83-0.831s-0.832,0.371-0.832,0.831c0,0.099,0.019,0.192,0.05,0.28
				c0.008,0.021,0.015,0.043,0.024,0.063C292.246,91.543,292.536,91.744,292.874,91.744z"/>
		</g>
	</g>
	<g>
		<g>
			<path fill="#27AAE1" d="M204.661,76.326c-0.008,0.026-0.017,0.051-0.029,0.074c-0.155,0.343-0.5,0.582-0.9,0.582
				s-0.745-0.239-0.9-0.582c-0.012-0.023-0.02-0.048-0.029-0.074c-0.44,0.127-0.765,0.534-0.765,1.016v0.601
				c0.402,0.488,1.014,0.799,1.694,0.799c0.683,0,1.292-0.311,1.695-0.799v-0.601C205.427,76.859,205.104,76.454,204.661,76.326z"/>
		</g>
		<g>
			<path fill="#27AAE1" d="M203.731,76.824c0.336,0,0.627-0.202,0.758-0.489c0.009-0.021,0.017-0.041,0.024-0.063
				c0.031-0.087,0.05-0.182,0.05-0.28c0-0.46-0.373-0.832-0.832-0.832s-0.83,0.372-0.83,0.832c0,0.098,0.017,0.192,0.05,0.28
				c0.007,0.021,0.015,0.042,0.024,0.063C203.105,76.622,203.396,76.824,203.731,76.824z"/>
		</g>
	</g>
	<g>
		<g>
			<path fill="#808285" d="M95.478,46.516H68.394c-0.476,0-0.866,0.39-0.866,0.866v10.601c0,0.477,0.391,0.867,0.866,0.867h0.712
				c0.477,0,0.866,0.39,0.866,0.866v1.21v1.237l2.59-2.778c0.364-0.298,0.983-0.534,1.433-0.534h21.483
				c0.476,0,0.866-0.39,0.866-0.867V47.382C96.344,46.906,95.953,46.516,95.478,46.516z"/>
		</g>
		<g>
			<path fill="#1C75BC" d="M95.926,46.057H68.843c-0.476,0-0.866,0.391-0.866,0.866v10.601c0,0.477,0.391,0.866,0.866,0.866h0.712
				c0.477,0,0.866,0.39,0.866,0.866v1.209v1.238l2.591-2.778c0.363-0.299,0.983-0.535,1.432-0.535h21.482
				c0.477,0,0.867-0.39,0.867-0.866V46.923C96.793,46.448,96.402,46.057,95.926,46.057z"/>
		</g>
		<g>
			<g>
				<polygon fill-rule="evenodd" clip-rule="evenodd" fill="#B2D1E5" points="109.36,94.07 102.228,81.719 109.36,69.368 
					123.623,69.368 130.753,81.719 123.623,94.07 				"/>
			</g>
			<g>
				<g>
					<path fill="#2E404E" d="M118.125,88.621c0,0,2.715,0.396,3.115,0.814c0.35,0.363,1.074,3.846,1.241,4.609
						c-4.763,0-6.13,0-6.13,0V88.77L118.125,88.621z"/>
				</g>
				<g>
					<rect x="114.926" y="86.757" fill="#D9A88C" width="2.854" height="3.13"/>
				</g>
				<g>
					<g>
						<path fill="#E9C0A7" d="M116.352,77.802c1.387,0,3.578,0.787,3.578,4.479c0,2.131-0.694,3.527-0.998,3.914
							c-0.277,0.355-1.843,1.112-2.58,1.112C116.352,83.576,116.352,77.802,116.352,77.802z"/>
					</g>
					<g>
						<path fill="#E9C0A7" d="M120.621,83.161c0.059-0.59-0.223-1.112-0.629-1.169c-0.408-0.056-0.789,0.377-0.851,0.967
							c-0.061,0.59,0.22,1.112,0.629,1.168C120.179,84.184,120.558,83.75,120.621,83.161z"/>
					</g>
				</g>
				<g>
					<g>
						<path fill="#F2D8BC" d="M116.354,77.802c-1.386,0-3.578,0.787-3.578,4.479c0,2.131,0.694,3.527,0.998,3.914
							c0.277,0.355,1.844,1.112,2.58,1.112C116.354,83.576,116.354,77.802,116.354,77.802z"/>
					</g>
					<g>
						<path fill="#F2D8BC" d="M112.086,83.161c-0.061-0.59,0.221-1.112,0.629-1.169c0.406-0.056,0.787,0.377,0.848,0.967
							c0.062,0.59-0.221,1.112-0.627,1.168C112.527,84.184,112.147,83.75,112.086,83.161z"/>
					</g>
				</g>
				<g>
					<path fill="#670E0E" d="M118.385,85.598c-0.717,0-1.229-0.581-2.05-0.581s-1.335,0.581-2.051,0.581
						c-0.785,0-1.279-1.354-1.429-1.828c0.201,1.366,0.666,2.26,0.899,2.558c0.279,0.354,1.845,1.112,2.58,1.112l0,0l0,0
						c0.733,0,2.3-0.758,2.579-1.112c0.232-0.298,0.697-1.191,0.898-2.559C119.665,84.242,119.171,85.598,118.385,85.598z"/>
				</g>
				<g>
					<path fill="#344750" d="M114.58,88.621c0,0-2.714,0.396-3.115,0.814c-0.35,0.363-1.074,3.846-1.242,4.609
						c4.764,0,6.129,0,6.129,0V88.77L114.58,88.621z"/>
				</g>
				<g>
					<polyline fill="#B9C7CF" points="118.158,88.549 116.352,88.77 114.547,88.549 116.352,94.045 					"/>
				</g>
				<g>
					<polygon fill="#B73D41" points="116.168,89.3 115.807,93.018 116.354,94.045 116.898,93.018 116.537,89.3 					"/>
				</g>
				<g>
					<path fill="#232C31" d="M115.051,90.921l-1.436-2.13c0.393-0.143,0.814-0.25,1.257-0.322l1.481,5.576l-2.075-2.971
						L115.051,90.921z"/>
				</g>
				<g>
					<path fill="#232C31" d="M117.654,90.921l1.437-2.13c-0.392-0.143-0.814-0.25-1.259-0.322l-1.479,5.576l2.073-2.971
						L117.654,90.921z"/>
				</g>
				<g>
					<path fill="#B73D41" d="M116.839,89.27l-0.485,0.486l-0.488-0.486l0.488-0.488L116.839,89.27z"/>
				</g>
				<g>
					<polygon fill="#FFFFFF" points="116.352,88.77 114.904,88.187 114.547,88.549 115.268,90.148 					"/>
				</g>
				<g>
					<polygon fill="#FFFFFF" points="116.352,88.77 117.801,88.187 118.158,88.549 117.438,90.148 					"/>
				</g>
				<g>
					<polygon fill="#FFFFFF" points="116.369,85.028 116.369,85.376 115.311,85.604 115.09,85.604 					"/>
				</g>
				<g>
					<polygon fill="#FFFFFF" points="116.357,85.028 116.357,85.376 117.418,85.604 117.638,85.604 					"/>
				</g>
				<g>
					<path fill="#563929" d="M119.235,82.555c0.149-0.381,0.444-0.625,0.757-0.582c0,0,0,0.001,0.002,0.001
						c0.143-0.438,0.191-0.959-0.002-1.512c-1.031-2.937,0.139-3.461,0.139-3.461s-1.14-0.051-2.024,0.682
						c0.61-0.946,0.885-1.19,0.885-1.19s-1.283-0.275-2.656,1.128c0.305-0.763,0.671-1.151,0.671-1.151s-2.868,0.022-3.906,2.097
						c-0.592,1.183-0.638,2.466-0.494,3.435c0.035-0.014,0.07-0.023,0.109-0.029c0.133-0.019,0.268,0.018,0.385,0.096
						c0-0.448,0-0.844,0-0.906c0.55-0.245,1.131-0.55,1.099-1.77c1.283,0,1.983,0,1.983,0h2.046c0,0-0.091,1.373,1.008,1.708
						C119.235,81.674,119.235,82.18,119.235,82.555z"/>
				</g>
			</g>
		</g>
		<g>
			<g>
				<polygon fill-rule="evenodd" clip-rule="evenodd" fill="#B2D1E5" points="63.529,98.738 54.713,83.467 63.529,68.195 
					81.164,68.195 89.98,83.467 81.164,98.738 				"/>
			</g>
			<g>
				<g>
					<path fill="#451A14" d="M77.604,86.916c0,2.891-2.345,1.391-5.235,1.391l0,0c-2.892,0-5.236,1.5-5.236-1.391v-4.732
						c0-2.891,2.345-5.234,5.236-5.234l0,0c2.891,0,5.235,2.344,5.235,5.234V86.916z"/>
				</g>
				<g>
					<g>
						<g>
							<circle fill="#451A14" cx="72.392" cy="82.229" r="5.339"/>
						</g>
						<g>
							<polygon fill="#EAC8AE" points="74.179,93.663 72.369,98.738 70.605,93.663 70.605,89.746 74.179,89.746 							"/>
						</g>
						<g>
							<g>
								<path fill="#F2D8BC" d="M72.392,78.888c-1.733,0-4.478,0.986-4.478,5.607c0,2.668,1.041,3.927,1.418,4.409
									c0.35,0.445,2.139,1.883,3.06,1.883C72.392,86.117,72.392,78.888,72.392,78.888z"/>
							</g>
							<g>
								<path fill="#F2D8BC" d="M67.05,85.598c-0.075-0.738,0.276-1.395,0.785-1.465c0.511-0.07,0.988,0.473,1.063,1.211
									c0.076,0.738-0.275,1.393-0.785,1.463S67.127,86.335,67.05,85.598z"/>
							</g>
						</g>
						<g>
							<g>
								<g>
									<path fill="#E9C0A7" d="M72.378,78.888c1.735,0,4.476,0.986,4.476,5.607c0,2.668-1.037,3.927-1.416,4.409
										c-0.35,0.445-2.139,1.883-3.06,1.883C72.378,86.117,72.378,78.888,72.378,78.888z"/>
								</g>
							</g>
							<g>
								<g>
									<path fill="#E9C0A7" d="M77.733,85.598c0.076-0.738-0.276-1.395-0.786-1.465c-0.511-0.07-0.986,0.473-1.063,1.211
										c-0.077,0.738,0.275,1.393,0.786,1.463C77.181,86.877,77.656,86.335,77.733,85.598z"/>
								</g>
							</g>
						</g>
						<g>
							<path fill="#EAC8AE" d="M72.369,98.738v-4.881c0,0-1.332-0.33-1.627-1.408c-0.141-0.52-0.137-0.936-0.137-0.936
								s-2.915,0.984-3.565,2c-0.542,1.612-0.69,5.225-0.69,5.225H72.369z"/>
						</g>
						<g>
							<path fill="#EAC8AE" d="M72.369,98.738v-4.881c0,0,1.334-0.33,1.627-1.408c0.141-0.52,0.137-0.936,0.137-0.936
								s2.916,0.984,3.566,2c0.54,1.612,0.689,5.225,0.689,5.225H72.369z"/>
						</g>
						<g>
							<path fill="#FFFFFF" d="M72.392,89.16c0.677,0,1.225-0.415,1.225-0.928h-2.448C71.168,88.745,71.715,89.16,72.392,89.16z"/>
						</g>
					</g>
					<g>
						<path fill="#451A14" d="M72.141,77.558c-3.17,0-4.135,2.776-4.135,4.056c-1.15,1.598,0.104,3.027,0.991,3.529
							c0-0.297,0-0.406,0-0.786c0-1.033,0.981-1.99,2.458-1.83c1.322,0.143,2.155-0.605,2.858-1.876
							C75.183,78.949,74.098,77.558,72.141,77.558z"/>
					</g>
					<g>
						<path fill="#451A14" d="M74.179,80.129c0,0,0.74,3.006,2.769,4.004c0.361-2.703,0.574-2.133,0-3.557s-2.769-2.481-2.769-2.481
							V80.129z"/>
					</g>
				</g>
				<g>
					<path fill="#75B6E4" d="M72.369,98.738v-4.104l-1.764-3.121c0,0-2.915,0.984-3.565,2c-0.542,1.612-0.69,5.225-0.69,5.225
						H72.369z"/>
				</g>
				<g>
					<path fill="#5FABDC" d="M72.369,98.738v-4.104l1.764-3.121c0,0,2.916,0.984,3.566,2c0.54,1.612,0.689,5.225,0.689,5.225H72.369
						z"/>
				</g>
				<g>
					<polygon fill="#FFFFFF" points="72.369,94.635 70.605,91.514 68.984,92.031 70.363,95.126 					"/>
				</g>
				<g>
					<polygon fill="#FFFFFF" points="72.369,94.635 74.133,91.514 75.754,92.031 74.375,95.126 					"/>
				</g>
			</g>
		</g>
		<g>
			<g>
				<polygon fill-rule="evenodd" clip-rule="evenodd" fill="#B2D1E5" points="38.27,139.11 31.5,127.387 38.27,115.663 
					51.807,115.663 58.576,127.387 51.807,139.11 				"/>
			</g>
			<g>
				<g>
					<g>
						<rect x="43.619" y="131.858" fill="#D9A88C" width="2.839" height="3.113"/>
					</g>
					<g>
						<path fill="#C0D5E0" d="M46.802,133.714c0,0,2.7,0.396,3.1,0.811c0.347,0.361,1.069,3.826,1.235,4.586c-4.74,0-6.1,0-6.1,0
							v-5.249L46.802,133.714z"/>
					</g>
					<g>
						<g>
							<path fill="#E9C0A7" d="M45.037,122.948c1.38,0,3.561,0.783,3.561,4.458c0,2.119-0.692,3.51-0.993,3.895
								c-0.276,0.354-1.835,1.106-2.567,1.106C45.037,128.695,45.037,122.948,45.037,122.948z"/>
						</g>
						<g>
							<path fill="#E9C0A7" d="M49.283,128.281c0.061-0.586-0.219-1.108-0.625-1.163c-0.406-0.057-0.783,0.375-0.846,0.962
								c-0.059,0.586,0.221,1.105,0.626,1.163C48.844,129.298,49.223,128.868,49.283,128.281z"/>
						</g>
					</g>
					<g>
						<g>
							<path fill="#F2D8BC" d="M45.037,122.948c-1.379,0-3.559,0.783-3.559,4.458c0,2.119,0.691,3.51,0.992,3.895
								c0.279,0.354,1.836,1.106,2.566,1.106C45.037,128.695,45.037,122.948,45.037,122.948z"/>
						</g>
						<g>
							<path fill="#F2D8BC" d="M40.793,128.281c-0.062-0.586,0.218-1.108,0.625-1.163c0.405-0.057,0.783,0.375,0.844,0.962
								c0.062,0.586-0.219,1.105-0.625,1.163C41.232,129.298,40.854,128.868,40.793,128.281z"/>
						</g>
					</g>
					<g>
						<path fill="#D0E1EB" d="M43.273,133.714c0,0-2.699,0.396-3.1,0.811c-0.347,0.361-1.068,3.826-1.235,4.586
							c4.741,0,6.099,0,6.099,0v-5.249L43.273,133.714z"/>
					</g>
					<g>
						<polygon fill="#FFFFFF" points="45.037,133.861 43.596,133.281 43.241,133.643 43.959,135.233 						"/>
					</g>
					<g>
						<polygon fill="#FFFFFF" points="45.037,133.861 46.48,133.281 46.836,133.643 46.117,135.233 						"/>
					</g>
				</g>
				<g>
					<path fill="#8B603D" d="M48.674,127.205c0,0,1.168-5.32-3.66-5.32c-4.854,0-3.635,5.174-3.635,5.174s0.662-0.38,0.662,1.317
						c0.263,0,0.122,0,0.122,0s0.235-1.139,0.308-2.158c1.707,0,3.215-0.22,4.484-1.269c0.721,0,0.819,0.896,0.819,1.583
						l-0.315,0.122c0,0,0.306,0.598,0.328,1.722c0.218,0,0.218,0,0.218,0S47.973,126.503,48.674,127.205z"/>
				</g>
				<g>
					<path fill="#FFFFFF" d="M45.037,131.021c0.645,0,1.164-0.213,1.164-0.474h-2.326C43.875,130.808,44.396,131.021,45.037,131.021
						z"/>
				</g>
			</g>
		</g>
		<g>
			<g>
				<polygon fill-rule="evenodd" clip-rule="evenodd" fill="#B2D1E5" points="97.354,139.068 91.396,128.749 97.354,118.43 
					109.271,118.43 115.228,128.749 109.271,139.068 				"/>
			</g>
			<g>
				<g>
					<g>
						<g>
							<g>
								<g>
									<circle fill="#492C1C" cx="103.16" cy="127.973" r="3.604"/>
								</g>
								<g>
									<polygon fill="#EAC8AE" points="104.364,135.692 103.145,139.117 101.953,135.692 101.953,133.047 104.364,133.047 
																			"/>
								</g>
								<g>
									<g>
										<path fill="#F2D8BC" d="M103.158,125.719c-1.17,0-3.022,0.664-3.022,3.784c0,1.802,0.702,2.65,0.958,2.977
											c0.236,0.3,1.445,1.271,2.064,1.271C103.158,130.598,103.158,125.719,103.158,125.719z"/>
									</g>
									<g>
										<path fill="#F2D8BC" d="M99.553,130.246c-0.051-0.498,0.188-0.94,0.531-0.987c0.345-0.046,0.665,0.318,0.719,0.817
											c0.051,0.497-0.188,0.939-0.532,0.988C99.926,131.11,99.605,130.745,99.553,130.246z"/>
									</g>
								</g>
								<g>
									<g>
										<g>
											<path fill="#E9C0A7" d="M103.15,125.719c1.17,0,3.023,0.664,3.023,3.784c0,1.802-0.703,2.65-0.959,2.977
												c-0.236,0.3-1.443,1.271-2.064,1.271C103.15,130.598,103.15,125.719,103.15,125.719z"/>
										</g>
									</g>
									<g>
										<g>
											<path fill="#E9C0A7" d="M106.765,130.246c0.052-0.498-0.186-0.94-0.53-0.987c-0.346-0.046-0.666,0.318-0.718,0.817
												c-0.052,0.497,0.186,0.939,0.53,0.988C106.393,131.11,106.714,130.745,106.765,130.246z"/>
										</g>
									</g>
								</g>
								<g>
									<path fill="#EAC8AE" d="M103.145,139.117v-3.294c0,0-0.9-0.223-1.1-0.952c-0.094-0.351-0.092-0.632-0.092-0.632
										s-1.967,0.665-2.406,1.351c-0.365,1.088-0.465,3.527-0.465,3.527H103.145z"/>
								</g>
								<g>
									<path fill="#EAC8AE" d="M103.145,139.117v-3.294c0,0,0.899-0.223,1.098-0.952c0.096-0.351,0.092-0.632,0.092-0.632
										s1.969,0.665,2.408,1.351c0.365,1.088,0.465,3.527,0.465,3.527H103.145z"/>
								</g>
								<g>
									<path fill="#EAC8AE" d="M103.145,139.117v-3.294c0,0-0.9-0.223-1.1-0.952c-0.094-0.351-0.092-0.632-0.092-0.632
										s-1.967,0.665-2.406,1.351c-0.365,1.088-0.465,3.527-0.465,3.527H103.145z"/>
								</g>
								<g>
									<path fill="#EAC8AE" d="M103.145,139.117v-3.294c0,0,0.899-0.223,1.098-0.952c0.096-0.351,0.092-0.632,0.092-0.632
										s1.969,0.665,2.408,1.351c0.365,1.088,0.465,3.527,0.465,3.527H103.145z"/>
								</g>
								<g>
									<path fill="#FFFFFF" d="M103.158,132.652c0.457,0,0.828-0.28,0.828-0.627h-1.652
										C102.334,132.372,102.703,132.652,103.158,132.652z"/>
								</g>
							</g>
							<g>
								<path fill="#492C1C" d="M102.988,124.82c-2.139,0-2.789,1.874-2.789,2.737c-0.777,1.079,0.068,2.044,0.669,2.384
									c0-0.2,0-0.274,0-0.532c0-0.696,0.663-1.343,1.658-1.234c0.894,0.096,1.456-0.408,1.931-1.267
									C105.043,125.759,104.311,124.82,102.988,124.82z"/>
							</g>
							<g>
								<path fill="#492C1C" d="M104.364,126.555c0,0,0.501,2.03,1.87,2.704c0.244-1.825,0.387-1.441,0-2.4
									c-0.388-0.961-1.87-1.675-1.87-1.675V126.555z"/>
							</g>
						</g>
					</g>
				</g>
				<g>
					<path fill="#FAA31F" d="M106.742,135.59c-0.369-0.573-1.797-1.128-2.262-1.298c-0.025,0.715-0.615,1.287-1.336,1.287
						c-0.723,0-1.311-0.572-1.34-1.287c-0.462,0.17-1.893,0.725-2.258,1.298c-0.365,1.088-0.465,3.527-0.465,3.527h4.063h4.063
						C107.207,139.117,107.107,136.678,106.742,135.59z"/>
				</g>
				<g>
					<path fill="#F78F21" d="M107.207,139.117c0,0-0.1-2.439-0.465-3.527c-0.369-0.573-1.797-1.128-2.262-1.298
						c-0.025,0.715-0.615,1.287-1.336,1.287v3.538H107.207z"/>
				</g>
				<g>
					<path fill="#3DB54A" d="M101.365,134.464c0.135,0.861,0.879,1.521,1.779,1.521c0.899,0,1.645-0.66,1.778-1.521
						c-0.181-0.074-0.337-0.133-0.442-0.172c-0.025,0.715-0.615,1.287-1.336,1.287c-0.723,0-1.311-0.572-1.34-1.287
						C101.701,134.331,101.547,134.39,101.365,134.464z"/>
				</g>
				<g>
					<circle fill="#492C1C" cx="103.159" cy="124.368" r="1.206"/>
				</g>
			</g>
		</g>
		<g>
			<g>
				<circle fill="#FFFFFF" cx="79.403" cy="52.167" r="0.79"/>
			</g>
			<g>
				<circle fill="#FFFFFF" cx="82.326" cy="52.167" r="0.789"/>
			</g>
			<g>
				<circle fill="#FFFFFF" cx="85.286" cy="52.167" r="0.79"/>
			</g>
		</g>
		<g>
			<path fill="#808285" d="M64.155,103.509H44.76c-0.342,0-0.62,0.279-0.62,0.619v7.592c0,0.341,0.278,0.62,0.62,0.62h0.51
				c0.342,0,0.621,0.279,0.621,0.622v0.865v0.886l1.854-1.989c0.26-0.214,0.704-0.384,1.026-0.384h15.384
				c0.341,0,0.622-0.279,0.622-0.62v-7.592C64.777,103.788,64.496,103.509,64.155,103.509z"/>
		</g>
		<g>
			<path fill="#1C75BC" d="M64.477,103.18H45.082c-0.342,0-0.621,0.279-0.621,0.621v7.591c0,0.341,0.279,0.62,0.621,0.62h0.51
				c0.341,0,0.621,0.279,0.621,0.621v0.865v0.887l1.854-1.989c0.26-0.214,0.705-0.384,1.026-0.384h15.384
				c0.342,0,0.621-0.279,0.621-0.62v-7.591C65.098,103.459,64.818,103.18,64.477,103.18z"/>
		</g>
		<g>
			<g>
				<circle fill="#FFFFFF" cx="52.644" cy="107.556" r="0.565"/>
			</g>
			<g>
				<circle fill="#FFFFFF" cx="54.737" cy="107.556" r="0.566"/>
			</g>
			<g>
				<circle fill="#FFFFFF" cx="56.858" cy="107.556" r="0.566"/>
			</g>
		</g>
		<g>
			<path fill="#808285" d="M101.228,57.626h18.294c0.322,0,0.586,0.264,0.586,0.585v7.161c0,0.322-0.264,0.586-0.586,0.586h-0.48
				c-0.322,0-0.585,0.263-0.585,0.584v0.817v0.836l-1.749-1.877c-0.246-0.202-0.664-0.36-0.969-0.36h-14.511
				c-0.321,0-0.587-0.264-0.587-0.586v-7.161C100.641,57.89,100.906,57.626,101.228,57.626z"/>
		</g>
		<g>
			<path fill="#1C75BC" d="M100.924,57.316h18.295c0.321,0,0.584,0.264,0.584,0.585v7.161c0,0.322-0.263,0.585-0.584,0.585h-0.481
				c-0.321,0-0.586,0.264-0.586,0.585v0.816v0.836l-1.749-1.877c-0.244-0.202-0.664-0.361-0.967-0.361h-14.512
				c-0.322,0-0.585-0.263-0.585-0.585v-7.161C100.339,57.58,100.602,57.316,100.924,57.316z"/>
		</g>
		<g>
			<g>
				<circle fill="#FFFFFF" cx="112.085" cy="61.443" r="0.534"/>
			</g>
			<g>
				<circle fill="#FFFFFF" cx="110.111" cy="61.443" r="0.533"/>
			</g>
			<g>
				<circle fill="#FFFFFF" cx="108.11" cy="61.443" r="0.534"/>
			</g>
		</g>
		<g>
			<path fill="#808285" d="M87.894,104.67h18.294c0.322,0,0.586,0.263,0.586,0.585v7.16c0,0.322-0.264,0.585-0.586,0.585h-0.48
				c-0.322,0-0.586,0.264-0.586,0.586v0.816v0.837l-1.748-1.877c-0.246-0.203-0.664-0.362-0.969-0.362H87.894
				c-0.321,0-0.585-0.263-0.585-0.585v-7.16C87.309,104.933,87.572,104.67,87.894,104.67z"/>
		</g>
		<g>
			<path fill="#1C75BC" d="M87.59,104.36h18.295c0.321,0,0.585,0.263,0.585,0.585v7.16c0,0.322-0.264,0.585-0.585,0.585h-0.48
				c-0.324,0-0.586,0.264-0.586,0.587v0.815v0.835l-1.75-1.875c-0.244-0.202-0.664-0.362-0.967-0.362H87.59
				c-0.322,0-0.585-0.263-0.585-0.585v-7.16C87.005,104.623,87.268,104.36,87.59,104.36z"/>
		</g>
		<g>
			<g>
				<circle fill="#FFFFFF" cx="98.751" cy="108.486" r="0.534"/>
			</g>
			<g>
				<circle fill="#FFFFFF" cx="96.777" cy="108.486" r="0.533"/>
			</g>
			<g>
				<circle fill="#FFFFFF" cx="94.777" cy="108.486" r="0.533"/>
			</g>
		</g>
	</g>
</g>
</svg>
