<?xml version="1.0" encoding="utf-8"?>
<!-- Generator: Adobe Illustrator 16.2.0, SVG Export Plug-In . SVG Version: 6.00 Build 0)  -->
<!DOCTYPE svg PUBLIC "-//W3C//DTD SVG 1.1//EN" "http://www.w3.org/Graphics/SVG/1.1/DTD/svg11.dtd">
<svg version="1.1" id="Layer_1" xmlns="http://www.w3.org/2000/svg" xmlns:xlink="http://www.w3.org/1999/xlink" x="0px" y="0px"
	 width="380px" height="160px" viewBox="0 0 380 160" enable-background="new 0 0 380 160" xml:space="preserve">
<g>
	<g>
		<path fill="#00AEEF" d="M192.695,154.779L192.695,154.779c-0.008,0-0.018,0-0.021,0c-0.572,0-1.035-0.445-1.061-1.016
			c0-0.02,0-0.037,0-0.055c0.004-0.568,0.455-1.027,1.02-1.047c1.391-0.061,2.793-0.162,4.158-0.307l0,0
			c0.582-0.064,1.109,0.365,1.168,0.947c0.064,0.58-0.361,1.104-0.941,1.162c-1.396,0.148-2.828,0.254-4.258,0.314h-0.014
			c-0.012,0-0.021,0-0.029,0H192.695z M187.162,154.775c-0.018,0-0.031,0-0.047,0c-1.426-0.064-2.869-0.17-4.291-0.322l-0.004-0.047
			v0.02l-0.006,0.021c-0.543-0.059-0.949-0.514-0.945-1.057c0-0.037,0.004-0.072,0.004-0.109c0.064-0.574,0.572-0.994,1.15-0.943
			h0.021c0.012,0,0.025,0.006,0.041,0.006c1.342,0.143,2.721,0.25,4.096,0.309h0.021c0.586,0.025,1.041,0.521,1.02,1.104
			C188.197,154.328,187.73,154.775,187.162,154.775z M202.355,153.662c-0.504,0-0.941-0.359-1.039-0.857
			c-0.014-0.072-0.018-0.143-0.018-0.215c0.004-0.502,0.365-0.936,0.861-1.027c1.354-0.26,2.721-0.57,4.066-0.922l0.029-0.004l0,0
			c0.553-0.131,1.125,0.217,1.266,0.764c0.148,0.564-0.191,1.146-0.756,1.295c-1.389,0.361-2.801,0.684-4.205,0.951
			C202.492,153.658,202.424,153.662,202.355,153.662z M177.48,153.633c-0.072,0-0.141-0.004-0.205-0.018
			c-1.416-0.275-2.83-0.598-4.205-0.963c-0.467-0.123-0.795-0.547-0.789-1.031c0-0.09,0.012-0.178,0.033-0.264
			c0.148-0.555,0.738-0.904,1.299-0.756c1.338,0.354,2.707,0.668,4.066,0.93c0.279,0.057,0.518,0.213,0.68,0.451
			c0.156,0.232,0.215,0.514,0.16,0.793C178.422,153.271,177.984,153.633,177.48,153.633z M211.77,151.111
			c-0.449,0-0.854-0.283-1.002-0.709c-0.041-0.119-0.063-0.242-0.059-0.365c0.004-0.441,0.289-0.84,0.705-0.988
			c1.307-0.463,2.613-0.973,3.879-1.516c0.525-0.225,1.172,0.035,1.396,0.557c0.229,0.535-0.021,1.162-0.557,1.393
			c-1.311,0.564-2.66,1.09-4.01,1.57C212.008,151.09,211.889,151.111,211.77,151.111z M168.074,151.061
			c-0.123,0-0.242-0.021-0.355-0.063c-1.359-0.484-2.709-1.02-4.016-1.584c-0.395-0.17-0.645-0.557-0.641-0.984
			c0-0.141,0.029-0.279,0.084-0.412c0.225-0.518,0.861-0.777,1.385-0.557l0.012,0.006c0.018,0.004,0.029,0.012,0.043,0.016
			c1.256,0.545,2.551,1.053,3.84,1.516h0.006c0.551,0.195,0.84,0.807,0.645,1.354C168.924,150.777,168.52,151.061,168.074,151.061z
			 M220.684,147.182c-0.395,0-0.756-0.217-0.938-0.561c-0.086-0.156-0.129-0.336-0.129-0.51c0.004-0.391,0.221-0.746,0.564-0.93
			c1.219-0.648,2.438-1.354,3.613-2.084c0.482-0.301,1.158-0.139,1.459,0.344c0.311,0.498,0.158,1.156-0.344,1.461
			c-1.223,0.76-2.479,1.486-3.73,2.152C221.027,147.139,220.854,147.182,220.684,147.182z M159.156,147.096
			c-0.174,0-0.348-0.041-0.504-0.127c-1.266-0.678-2.518-1.408-3.73-2.164c-0.307-0.195-0.492-0.525-0.498-0.891
			c-0.004-0.199,0.051-0.4,0.162-0.574c0.297-0.479,0.977-0.641,1.461-0.334c1.166,0.729,2.385,1.434,3.611,2.096
			c0.25,0.133,0.432,0.357,0.514,0.629c0.08,0.271,0.055,0.561-0.082,0.807C159.904,146.885,159.547,147.096,159.156,147.096z
			 M228.908,141.961c-0.33,0-0.648-0.162-0.848-0.43c-0.141-0.186-0.213-0.406-0.213-0.635c0-0.318,0.141-0.607,0.383-0.811h-0.01
			l0.082-0.057c1.086-0.811,2.164-1.668,3.195-2.547l0.043-0.033c0.428-0.365,1.129-0.311,1.492,0.119
			c0.383,0.445,0.328,1.115-0.117,1.498c-1.078,0.912-2.203,1.813-3.346,2.66c-0.008,0.01-0.016,0.018-0.025,0.021l-0.008,0.006
			C229.354,141.889,229.139,141.961,228.908,141.961z M150.932,141.846c-0.229,0-0.449-0.072-0.633-0.211
			c-1.141-0.854-2.275-1.762-3.369-2.695c-0.234-0.199-0.369-0.492-0.369-0.803c0-0.254,0.088-0.5,0.254-0.691
			c0.365-0.43,1.07-0.484,1.498-0.119c1.045,0.895,2.139,1.773,3.256,2.609c0.471,0.354,0.564,1.02,0.217,1.486
			C151.58,141.693,151.271,141.846,150.932,141.846z M236.277,135.572c-0.285,0-0.549-0.109-0.748-0.309
			c-0.203-0.199-0.313-0.467-0.313-0.752c-0.006-0.279,0.105-0.547,0.305-0.75c0.973-0.977,1.932-2.004,2.844-3.057
			c0.369-0.42,1.074-0.471,1.498-0.102c0.441,0.385,0.488,1.057,0.102,1.498c-0.951,1.09-1.939,2.152-2.938,3.158
			C236.828,135.459,236.561,135.572,236.277,135.572z M143.584,135.434c-0.283,0-0.555-0.111-0.756-0.314
			c-1.006-1.014-1.986-2.08-2.924-3.158l-0.004-0.004c-0.166-0.195-0.26-0.441-0.26-0.695c0-0.307,0.133-0.6,0.365-0.803
			c0.43-0.369,1.129-0.318,1.498,0.105c0.908,1.049,1.863,2.08,2.836,3.064c0.412,0.416,0.408,1.092-0.008,1.498
			C144.133,135.326,143.865,135.434,143.584,135.434z M242.613,128.158c-0.229,0-0.445-0.068-0.629-0.203
			c-0.271-0.199-0.428-0.51-0.432-0.85c0-0.229,0.068-0.449,0.207-0.637c0.824-1.121,1.617-2.283,2.361-3.441
			c0.301-0.48,0.984-0.633,1.463-0.322c0.494,0.313,0.637,0.971,0.322,1.463c-0.768,1.207-1.586,2.402-2.436,3.557
			C243.271,127.996,242.949,128.158,242.613,128.158z M137.27,128.006c-0.336,0-0.658-0.162-0.857-0.434
			c-0.842-1.15-1.656-2.348-2.424-3.561c-0.111-0.174-0.17-0.373-0.166-0.572c0-0.365,0.184-0.701,0.492-0.893
			c0.48-0.309,1.164-0.152,1.465,0.326c0.738,1.164,1.527,2.322,2.348,3.447l0.025,0.033h-0.004
			c0.152,0.227,0.211,0.488,0.168,0.756c-0.041,0.281-0.195,0.527-0.424,0.693C137.711,127.938,137.494,128.006,137.27,128.006z
			 M247.779,119.887c-0.17,0-0.34-0.043-0.492-0.123c-0.354-0.184-0.568-0.549-0.564-0.951c0-0.166,0.043-0.332,0.119-0.48
			c0.645-1.223,1.256-2.486,1.82-3.76c0.229-0.518,0.879-0.773,1.4-0.539c0.26,0.115,0.459,0.322,0.561,0.59
			c0.102,0.264,0.094,0.553-0.021,0.811c-0.582,1.313-1.215,2.619-1.881,3.883C248.539,119.67,248.178,119.887,247.779,119.887z
			 M132.129,119.725c-0.398,0-0.76-0.217-0.941-0.568c-0.658-1.266-1.287-2.572-1.863-3.879c-0.064-0.141-0.094-0.289-0.094-0.438
			c0.004-0.42,0.254-0.795,0.633-0.963c0.525-0.23,1.17,0.02,1.4,0.543c0.561,1.268,1.166,2.533,1.803,3.756
			c0.133,0.25,0.158,0.539,0.072,0.807c-0.084,0.271-0.268,0.492-0.521,0.623C132.469,119.688,132.299,119.725,132.129,119.725z
			 M251.654,110.93c-0.115,0-0.234-0.02-0.348-0.059c-0.43-0.148-0.719-0.557-0.713-1.01c0-0.115,0.02-0.229,0.059-0.34
			c0.455-1.307,0.865-2.648,1.23-3.98l0.004-0.006c0.15-0.551,0.744-0.895,1.305-0.742c0.564,0.152,0.895,0.738,0.742,1.303
			c-0.383,1.389-0.811,2.771-1.273,4.121C252.512,110.643,252.107,110.93,251.654,110.93z M128.283,110.773
			c-0.449,0-0.854-0.285-1.002-0.713c-0.461-1.354-0.887-2.742-1.264-4.125c-0.025-0.094-0.039-0.191-0.039-0.289
			c0.01-0.477,0.332-0.887,0.785-1.01c0.557-0.154,1.154,0.191,1.303,0.746c0.354,1.303,0.756,2.623,1.201,3.922l0.021,0.064
			c0.094,0.268,0.072,0.555-0.051,0.811c-0.123,0.254-0.34,0.445-0.611,0.539C128.518,110.756,128.402,110.773,128.283,110.773z
			 M254.137,101.5c-0.063,0-0.127-0.006-0.191-0.018c-0.504-0.094-0.873-0.535-0.869-1.049c0-0.055,0.004-0.113,0.018-0.174v-0.012
			c0.004-0.014,0.004-0.031,0.008-0.047c0.246-1.338,0.455-2.709,0.615-4.078c0.068-0.578,0.6-1.002,1.176-0.932
			c0.582,0.068,0.998,0.596,0.93,1.178c-0.166,1.426-0.383,2.855-0.641,4.252v0.012C255.088,101.139,254.65,101.5,254.137,101.5z
			 M125.826,101.342c-0.514,0-0.951-0.369-1.045-0.873c-0.254-1.4-0.467-2.836-0.631-4.262c-0.006-0.047-0.006-0.094-0.006-0.137
			c0.006-0.535,0.408-0.98,0.939-1.039c0.58-0.068,1.111,0.355,1.176,0.93c0.156,1.371,0.365,2.764,0.611,4.129
			c0.105,0.574-0.281,1.129-0.854,1.236C125.953,101.334,125.891,101.342,125.826,101.342z M255.182,91.811
			c-0.014,0-0.021,0-0.035,0c-0.58-0.021-1.031-0.488-1.025-1.07c0-0.008,0-0.018,0-0.025c0.025-0.709,0.037-1.436,0.037-2.16
			c0-0.688-0.012-1.363-0.033-2.017c-0.018-0.585,0.445-1.073,1.027-1.095c0.584-0.029,1.078,0.441,1.094,1.031
			c0.021,0.691,0.035,1.388,0.035,2.08c0,0.742-0.014,1.49-0.039,2.229C256.225,91.359,255.758,91.811,255.182,91.811z
			 M124.803,91.645c-0.572,0-1.039-0.451-1.057-1.027c-0.021-0.695-0.029-1.393-0.029-2.063c0-0.752,0.008-1.508,0.033-2.25
			c0.021-0.586,0.506-1.04,1.096-1.023c0.582,0.018,1.031,0.488,1.027,1.07c0,0.008,0,0.017,0,0.025
			c-0.025,0.726-0.039,1.46-0.039,2.178c0,0.653,0.014,1.324,0.035,1.998c0.016,0.586-0.445,1.074-1.031,1.092
			C124.828,91.645,124.816,91.645,124.803,91.645z M254.787,82.064c-0.539,0-0.994-0.402-1.053-0.938l0.018-0.004h-0.018
			c0,0-0.004,0-0.004-0.005c-0.158-1.367-0.361-2.754-0.611-4.122c-0.051-0.28,0.012-0.56,0.174-0.793
			c0.16-0.233,0.402-0.391,0.678-0.441c0.574-0.102,1.135,0.289,1.236,0.857c0.254,1.388,0.467,2.81,0.629,4.223
			c0.004,0.014,0.004,0.025,0.008,0.043v0.021l0,0c0.004,0.038,0.004,0.072,0.004,0.114c-0.004,0.53-0.412,0.976-0.938,1.04
			C254.867,82.064,254.824,82.064,254.787,82.064z M125.229,81.903c-0.043,0-0.086-0.005-0.123-0.009
			c-0.285-0.033-0.535-0.174-0.715-0.395c-0.174-0.225-0.25-0.5-0.221-0.781c0.17-1.421,0.387-2.86,0.646-4.265
			c0.105-0.569,0.666-0.959,1.234-0.853c0.51,0.093,0.875,0.535,0.871,1.048c0,0.063-0.006,0.127-0.018,0.187
			c-0.25,1.358-0.463,2.75-0.623,4.129C126.217,81.5,125.768,81.903,125.229,81.903z M252.949,72.489c-0.48,0-0.9-0.323-1.027-0.781
			c-0.365-1.35-0.777-2.691-1.223-3.99c-0.191-0.556,0.105-1.159,0.658-1.35c0.547-0.187,1.162,0.119,1.35,0.658
			c0.463,1.35,0.887,2.737,1.264,4.125c0.027,0.093,0.039,0.191,0.039,0.289c-0.008,0.471-0.326,0.887-0.785,1.01
			C253.135,72.477,253.043,72.489,252.949,72.489z M127.092,72.324c-0.094,0-0.188-0.013-0.281-0.038
			c-0.564-0.153-0.895-0.739-0.742-1.303c0.377-1.379,0.811-2.767,1.277-4.121c0.188-0.539,0.807-0.84,1.35-0.654
			c0.428,0.149,0.717,0.556,0.713,1.01c0,0.115-0.021,0.229-0.059,0.34c-0.455,1.311-0.871,2.652-1.236,3.989
			C127.986,72.005,127.566,72.324,127.092,72.324z M249.693,63.3c-0.42,0-0.803-0.246-0.973-0.632
			c-0.559-1.269-1.166-2.534-1.807-3.761c-0.133-0.25-0.158-0.539-0.072-0.811c0.084-0.267,0.271-0.488,0.521-0.62
			c0.152-0.081,0.318-0.123,0.488-0.123c0.398,0,0.76,0.221,0.941,0.573c0.662,1.265,1.291,2.572,1.873,3.884
			c0.059,0.14,0.088,0.289,0.088,0.437c-0.004,0.416-0.25,0.794-0.631,0.963C249.986,63.271,249.842,63.3,249.693,63.3z
			 M130.371,63.139c-0.148,0-0.293-0.03-0.428-0.093c-0.26-0.115-0.459-0.323-0.561-0.586c-0.102-0.268-0.094-0.556,0.021-0.815
			c0.576-1.299,1.209-2.606,1.881-3.879c0.182-0.352,0.543-0.569,0.938-0.569c0.174,0,0.344,0.042,0.496,0.123
			c0.354,0.187,0.568,0.552,0.564,0.951c0,0.165-0.043,0.331-0.123,0.479c-0.641,1.222-1.252,2.487-1.816,3.76
			C131.17,62.893,130.793,63.139,130.371,63.139z M245.096,54.701c-0.338,0-0.652-0.161-0.852-0.433l0,0l-0.043-0.059
			c-0.004-0.009-0.008-0.017-0.014-0.026c-0.738-1.154-1.52-2.304-2.33-3.412l-0.008-0.013c-0.166-0.225-0.232-0.509-0.191-0.79
			c0.047-0.28,0.195-0.526,0.426-0.692c0.457-0.331,1.148-0.225,1.48,0.233c0.85,1.159,1.664,2.355,2.428,3.561
			c0.109,0.174,0.166,0.369,0.166,0.573c0,0.365-0.184,0.696-0.492,0.891C245.496,54.646,245.301,54.701,245.096,54.701z
			 M134.994,54.548c-0.203,0-0.398-0.059-0.574-0.166c-0.492-0.318-0.635-0.972-0.322-1.468c0.773-1.206,1.592-2.402,2.441-3.557
			c0.33-0.454,1.027-0.56,1.48-0.225c0.271,0.199,0.434,0.509,0.434,0.845c0.004,0.233-0.068,0.45-0.203,0.636
			c-0.824,1.125-1.621,2.284-2.361,3.446C135.689,54.366,135.359,54.548,134.994,54.548z M239.273,46.883
			c-0.311,0-0.6-0.132-0.803-0.365c-0.912-1.053-1.867-2.08-2.84-3.064l-0.033-0.034h0.004c-0.377-0.42-0.365-1.065,0.043-1.465
			c0.398-0.399,1.1-0.395,1.498,0.009c1.002,1.014,1.99,2.076,2.934,3.162c0.164,0.191,0.258,0.441,0.258,0.696
			c0,0.305-0.135,0.598-0.365,0.802C239.773,46.79,239.527,46.883,239.273,46.883z M140.842,46.743
			c-0.258,0-0.504-0.094-0.695-0.263c-0.441-0.382-0.488-1.053-0.102-1.494c0.934-1.074,1.922-2.135,2.938-3.158
			c0.398-0.399,1.1-0.403,1.502-0.004c0.199,0.2,0.311,0.467,0.311,0.751c0.004,0.284-0.107,0.547-0.307,0.751
			c-0.971,0.976-1.932,2.003-2.848,3.051C141.441,46.611,141.148,46.743,140.842,46.743z M232.352,40.012
			c-0.256,0-0.498-0.089-0.693-0.255c-1.053-0.9-2.146-1.774-3.26-2.606c-0.225-0.17-0.373-0.42-0.41-0.7
			c-0.043-0.28,0.029-0.561,0.199-0.786c0.34-0.454,1.027-0.556,1.484-0.212c1.15,0.857,2.283,1.766,3.367,2.691
			c0.236,0.199,0.369,0.492,0.373,0.802c0,0.254-0.09,0.501-0.256,0.696C232.953,39.875,232.66,40.012,232.352,40.012z
			 M224.486,34.248c-0.199,0-0.395-0.06-0.564-0.161c-1.168-0.73-2.381-1.435-3.607-2.097c-0.518-0.276-0.713-0.921-0.434-1.435
			c0.268-0.501,0.934-0.705,1.436-0.433c1.256,0.675,2.512,1.401,3.73,2.161c0.309,0.195,0.496,0.526,0.5,0.891
			c0,0.204-0.055,0.399-0.16,0.573C225.191,34.061,224.852,34.248,224.486,34.248z"/>
	</g>
	<g>
		<path fill="#6AB6E2" d="M164.967,73.537c0.582,0.348,1.162,0.705,1.74,1.058l1.74,1.062l3.463,2.146
			c1.156,0.714,2.301,1.445,3.451,2.167l1.723,1.084l1.717,1.098l3.43,2.195l3.422,2.211l3.057,1.996l3.057-1.997l1.709-1.106
			l1.711-1.105l3.432-2.195l1.715-1.098l1.725-1.084c1.15-0.722,2.295-1.451,3.449-2.167l3.463-2.145l1.74-1.061
			c0.58-0.353,1.158-0.709,1.742-1.058l1.748-1.049c0.584-0.345,1.168-0.694,1.756-1.035h-54.492
			c0.588,0.341,1.172,0.69,1.756,1.036L164.967,73.537z"/>
	</g>
	<g>
		<path fill="#298DC4" d="M178.328,83.189l-0.145-0.099l-1.689-1.138l-1.684-1.148c-1.119-0.768-2.246-1.525-3.361-2.3l-3.348-2.322
			l-1.666-1.172c-0.555-0.392-1.111-0.78-1.664-1.176l-1.658-1.185c-0.551-0.399-1.104-0.794-1.65-1.197v31.47l0.461-0.525
			L178.328,83.189z"/>
	</g>
	<g>
		<polygon fill="none" points="215.254,102.844 214.447,101.902 215.381,103.01 		"/>
	</g>
	<g>
		<path fill="#298DC4" d="M215.955,103.6V71.452c-0.547,0.403-1.1,0.799-1.65,1.198l-1.658,1.185
			c-0.551,0.396-1.109,0.785-1.664,1.176l-1.666,1.172l-3.348,2.322c-1.115,0.774-2.24,1.533-3.361,2.301l-1.682,1.148l-1.074,0.723
			l15.402,20.166l0.648,0.756H215.955z"/>
	</g>
	<g>
		<polygon fill="#6AB6E2" points="215.254,102.844 215.381,103.01 214.447,101.902 214.443,101.9 214.447,101.902 198.811,83.377 
			195.854,85.364 194.16,86.493 192.463,87.619 189.063,89.859 188.709,90.092 188.355,89.859 184.955,87.619 181.564,85.362 
			179.373,83.89 161.721,102.635 161.924,102.396 161.463,102.922 161.463,103.6 215.902,103.6 		"/>
	</g>
	<g>
		<circle fill="#27AAE1" cx="212.13" cy="71.452" r="11.007"/>
		<path fill="#FFFFFF" d="M212.129,83.096c-6.42,0-11.643-5.224-11.643-11.644c0-6.42,5.223-11.644,11.643-11.644
			s11.645,5.223,11.645,11.644C223.773,77.872,218.549,83.096,212.129,83.096z M212.129,61.082c-5.717,0-10.369,4.652-10.369,10.37
			c0,5.718,4.652,10.37,10.369,10.37c5.719,0,10.371-4.652,10.371-10.37C222.5,65.734,217.848,61.082,212.129,61.082z"/>
	</g>
	<g>
		<g>
			<path fill="#FFFFFF" d="M209.26,74.924c0.344,0.221,1.146,0.566,1.988,0.566c1.561,0,2.043-0.994,2.029-1.74
				c-0.014-1.256-1.146-1.795-2.32-1.795h-0.676v-0.912h0.676c0.885,0,2.002-0.455,2.002-1.519c0-0.718-0.455-1.353-1.574-1.353
				c-0.717,0-1.408,0.317-1.795,0.594l-0.316-0.884c0.469-0.345,1.381-0.69,2.348-0.69c1.768,0,2.568,1.049,2.568,2.14
				c0,0.925-0.553,1.712-1.658,2.112v0.028c1.105,0.221,2.002,1.049,2.002,2.306c0,1.436-1.117,2.692-3.271,2.692
				c-1.008,0-1.893-0.318-2.334-0.608L209.26,74.924z"/>
		</g>
	</g>
	<g>
		<path fill="#298DC4" d="M142.234,28.795c0.092-0.288,0.285-0.454,0.58-0.497l26.93-4.762c0.154-0.036,0.303-0.022,0.447,0.041
			s0.256,0.164,0.334,0.301c0.168,0.246,0.168,0.522,0,0.828L157.92,44.025c-0.148,0.177-0.332,0.286-0.559,0.326
			c-0.141,0.007-0.27-0.015-0.385-0.065c-0.086-0.038-0.166-0.09-0.242-0.158l-5.549-5.641l-2.479,1.76
			c-0.248,0.168-0.5,0.195-0.762,0.081c-0.26-0.114-0.412-0.319-0.455-0.613l-0.602-5.595l-4.477-4.549
			C142.203,29.341,142.143,29.082,142.234,28.795L142.234,28.795z M144.51,29.507l3.471,3.539c0.016,0.042,0.039,0.086,0.07,0.134
			l0.047,0.072l17.221-7.411L144.51,29.507z M148.408,33.958l0.469,4.243l18.869-12.589L148.408,33.958z M151.881,37.136
			c0.162,0.105,0.293,0.198,0.396,0.277l4.857,4.976l10.066-15.412L151.881,37.136z"/>
	</g>
</g>
</svg>
