<?xml version="1.0" encoding="utf-8"?>
<!-- Generator: Adobe Illustrator 16.2.0, SVG Export Plug-In . SVG Version: 6.00 Build 0)  -->
<!DOCTYPE svg PUBLIC "-//W3C//DTD SVG 1.1//EN" "http://www.w3.org/Graphics/SVG/1.1/DTD/svg11.dtd">
<svg version="1.1" id="Layer_1" xmlns="http://www.w3.org/2000/svg" xmlns:xlink="http://www.w3.org/1999/xlink" x="0px" y="0px"
	 width="380px" height="160px" viewBox="0 0 380 160" enable-background="new 0 0 380 160" xml:space="preserve">
<g>
	<g>
		<path fill="#73B6E4" d="M261.484,150.211h-0.443c-0.488,0-0.889-0.396-0.889-0.889c0-0.488,0.4-0.887,0.889-0.887h0.443
			c0.488,0,0.887,0.398,0.887,0.887C262.371,149.814,261.973,150.211,261.484,150.211z M256.6,150.211h-0.443
			c-0.488,0-0.889-0.396-0.889-0.889c0-0.488,0.4-0.887,0.889-0.887h0.443c0.488,0,0.889,0.398,0.889,0.887
			C257.488,149.814,257.088,150.211,256.6,150.211z M251.717,150.211h-0.445c-0.488,0-0.887-0.396-0.887-0.889
			c0-0.488,0.398-0.887,0.887-0.887h0.445c0.488,0,0.887,0.398,0.887,0.887C252.604,149.814,252.205,150.211,251.717,150.211z
			 M246.832,150.211h-0.445c-0.488,0-0.887-0.396-0.887-0.889c0-0.488,0.398-0.887,0.887-0.887h0.445
			c0.488,0,0.887,0.398,0.887,0.887C247.719,149.814,247.32,150.211,246.832,150.211z M241.947,150.211h-0.445
			c-0.488,0-0.887-0.396-0.887-0.889c0-0.488,0.398-0.887,0.887-0.887h0.445c0.488,0,0.887,0.398,0.887,0.887
			C242.834,149.814,242.436,150.211,241.947,150.211z M263.912,148.199c-0.488,0-0.887-0.4-0.887-0.889v-0.443
			c0-0.49,0.398-0.889,0.887-0.889s0.889,0.398,0.889,0.889v0.443C264.801,147.799,264.4,148.199,263.912,148.199z M240.346,146.93
			c-0.49,0-0.889-0.396-0.889-0.885v-0.443c0-0.492,0.398-0.889,0.889-0.889c0.486,0,0.885,0.396,0.885,0.889v0.443
			C241.23,146.533,240.832,146.93,240.346,146.93z M263.912,143.314c-0.488,0-0.887-0.398-0.887-0.887v-0.443
			c0-0.49,0.398-0.889,0.887-0.889s0.889,0.398,0.889,0.889v0.443C264.801,142.916,264.4,143.314,263.912,143.314z M240.346,142.051
			c-0.49,0-0.889-0.4-0.889-0.889v-0.445c0-0.492,0.398-0.889,0.889-0.889c0.486,0,0.885,0.396,0.885,0.889v0.445
			C241.23,141.65,240.832,142.051,240.346,142.051z M263.912,138.432c-0.488,0-0.887-0.4-0.887-0.889V137.1
			c0-0.488,0.398-0.889,0.887-0.889s0.889,0.4,0.889,0.889v0.443C264.801,138.031,264.4,138.432,263.912,138.432z M240.346,137.164
			c-0.49,0-0.889-0.396-0.889-0.891v-0.439c0-0.494,0.398-0.889,0.889-0.889c0.486,0,0.885,0.395,0.885,0.889v0.439
			C241.23,136.768,240.832,137.164,240.346,137.164z M263.912,133.547c-0.488,0-0.887-0.4-0.887-0.889v-0.443
			c0-0.488,0.398-0.889,0.887-0.889s0.889,0.4,0.889,0.889v0.443C264.801,133.146,264.4,133.547,263.912,133.547z M240.346,132.277
			c-0.49,0-0.889-0.396-0.889-0.885v-0.449c0-0.486,0.398-0.883,0.889-0.883c0.486,0,0.885,0.396,0.885,0.883v0.449
			C241.23,131.881,240.832,132.277,240.346,132.277z M263.912,128.662c-0.488,0-0.887-0.4-0.887-0.889v-0.443
			c0-0.488,0.398-0.889,0.887-0.889s0.889,0.4,0.889,0.889v0.443C264.801,128.262,264.4,128.662,263.912,128.662z M240.346,127.396
			c-0.49,0-0.889-0.398-0.889-0.889v-0.443c0-0.492,0.398-0.889,0.889-0.889c0.486,0,0.885,0.396,0.885,0.889v0.443
			C241.23,126.998,240.832,127.396,240.346,127.396z M240.346,122.512c-0.49,0-0.889-0.398-0.889-0.889v-0.443
			c0-0.492,0.398-0.889,0.889-0.889c0.486,0,0.885,0.396,0.885,0.889v0.443C241.23,122.113,240.832,122.512,240.346,122.512z
			 M239.998,117.971h-0.443c-0.49,0-0.889-0.396-0.889-0.885c0-0.492,0.398-0.893,0.889-0.893h0.443c0.488,0,0.889,0.4,0.889,0.893
			C240.887,117.574,240.486,117.971,239.998,117.971z M235.113,117.971h-0.443c-0.49,0-0.889-0.396-0.889-0.885
			c0-0.492,0.398-0.893,0.889-0.893h0.443c0.488,0,0.889,0.4,0.889,0.893C236.002,117.574,235.602,117.971,235.113,117.971z
			 M230.229,117.971h-0.443c-0.488,0-0.889-0.396-0.889-0.885c0-0.492,0.4-0.893,0.889-0.893h0.443c0.488,0,0.889,0.4,0.889,0.893
			C231.117,117.574,230.717,117.971,230.229,117.971z"/>
	</g>
	<g>
		<path fill="#73B6E4" d="M125.357,144.967h-0.444c-0.488,0-0.888-0.4-0.888-0.889c0-0.492,0.399-0.887,0.888-0.887h0.444
			c0.488,0,0.888,0.395,0.888,0.887C126.245,144.566,125.846,144.967,125.357,144.967z M120.473,144.967h-0.444
			c-0.493,0-0.888-0.4-0.888-0.889c0-0.492,0.396-0.887,0.888-0.887h0.444c0.488,0,0.888,0.395,0.888,0.887
			C121.361,144.566,120.961,144.967,120.473,144.967z M128.834,144.004c-0.488,0-0.888-0.4-0.888-0.889v-0.443
			c0-0.494,0.4-0.889,0.888-0.889s0.888,0.395,0.888,0.889v0.443C129.722,143.604,129.322,144.004,128.834,144.004z
			 M128.834,139.119c-0.488,0-0.888-0.4-0.888-0.889v-0.443c0-0.494,0.4-0.889,0.888-0.889s0.888,0.395,0.888,0.889v0.443
			C129.722,138.719,129.322,139.119,128.834,139.119z M128.834,134.234c-0.488,0-0.888-0.4-0.888-0.887v-0.445
			c0-0.494,0.4-0.889,0.888-0.889s0.888,0.395,0.888,0.889v0.445C129.722,133.834,129.322,134.234,128.834,134.234z M128.834,129.35
			c-0.488,0-0.888-0.398-0.888-0.889v-0.441c0-0.494,0.4-0.889,0.888-0.889s0.888,0.395,0.888,0.889v0.441
			C129.722,128.951,129.322,129.35,128.834,129.35z M128.834,124.467c-0.488,0-0.888-0.4-0.888-0.889v-0.445
			c0-0.492,0.4-0.887,0.888-0.887s0.888,0.395,0.888,0.887v0.445C129.722,124.066,129.322,124.467,128.834,124.467z M136.09,121.508
			h-0.444c-0.488,0-0.888-0.395-0.888-0.883c0-0.492,0.399-0.889,0.888-0.889h0.444c0.493,0,0.888,0.396,0.888,0.889
			C136.978,121.113,136.583,121.508,136.09,121.508z M131.205,121.508h-0.444c-0.488,0-0.883-0.395-0.883-0.883
			c0-0.492,0.395-0.889,0.883-0.889h0.444c0.493,0,0.893,0.396,0.893,0.889C132.098,121.113,131.698,121.508,131.205,121.508z"/>
	</g>
	<g>
		<path fill="#73B6E4" d="M185.972,104.697c-0.488,0-0.888-0.398-0.888-0.889v-0.443c0-0.492,0.4-0.889,0.888-0.889
			c0.493,0,0.888,0.396,0.888,0.889v0.443C186.86,104.299,186.465,104.697,185.972,104.697z M185.972,99.813
			c-0.488,0-0.888-0.4-0.888-0.887V98.48c0-0.492,0.4-0.889,0.888-0.889c0.493,0,0.888,0.396,0.888,0.889v0.445
			C186.86,99.412,186.465,99.813,185.972,99.813z M185.972,94.928c-0.488,0-0.888-0.398-0.888-0.889v-0.441
			c0-0.494,0.4-0.889,0.888-0.889c0.493,0,0.888,0.395,0.888,0.889v0.441C186.86,94.529,186.465,94.928,185.972,94.928z
			 M185.972,90.045c-0.488,0-0.888-0.4-0.888-0.889v-0.443c0-0.494,0.4-0.889,0.888-0.889c0.493,0,0.888,0.395,0.888,0.889v0.443
			C186.86,89.645,186.465,90.045,185.972,90.045z M185.972,85.16c-0.488,0-0.888-0.4-0.888-0.889v-0.443
			c0-0.494,0.4-0.889,0.888-0.889c0.493,0,0.888,0.395,0.888,0.889v0.443C186.86,84.76,186.465,85.16,185.972,85.16z
			 M185.972,80.276c-0.488,0-0.888-0.399-0.888-0.888v-0.444c0-0.488,0.4-0.889,0.888-0.889c0.493,0,0.888,0.4,0.888,0.889v0.444
			C186.86,79.876,186.465,80.276,185.972,80.276z M185.972,75.391c-0.488,0-0.888-0.399-0.888-0.888v-0.444
			c0-0.492,0.4-0.888,0.888-0.888c0.493,0,0.888,0.396,0.888,0.888v0.444C186.86,74.992,186.465,75.391,185.972,75.391z
			 M185.972,70.507c-0.488,0-0.888-0.399-0.888-0.888v-0.444c0-0.488,0.4-0.888,0.888-0.888c0.493,0,0.888,0.4,0.888,0.888v0.444
			C186.86,70.107,186.465,70.507,185.972,70.507z"/>
	</g>
	<g>
		<path fill="#73B6E4" d="M151.138,89.219c-0.489,0-0.884-0.396-0.884-0.889v-0.443c0-0.488,0.396-0.889,0.884-0.889
			c0.493,0,0.888,0.4,0.888,0.889v0.443C152.026,88.822,151.631,89.219,151.138,89.219z M150.401,84.533
			c-0.236,0-0.462-0.094-0.626-0.262c-0.071-0.066-0.142-0.129-0.222-0.186c-0.195-0.135-0.324-0.338-0.364-0.574
			c-0.044-0.23,0.009-0.465,0.147-0.66c0.271-0.387,0.848-0.488,1.234-0.219c0.164,0.111,0.32,0.244,0.462,0.387
			c0.165,0.164,0.257,0.391,0.257,0.627c0,0.238-0.093,0.461-0.262,0.629C150.863,84.439,150.641,84.533,150.401,84.533z
			 M145.716,83.793h-0.443c-0.489,0-0.889-0.4-0.889-0.889s0.4-0.889,0.889-0.889h0.443c0.489,0,0.889,0.4,0.889,0.889
			S146.205,83.793,145.716,83.793z M140.832,83.793h-0.444c-0.489,0-0.888-0.4-0.888-0.889s0.399-0.889,0.888-0.889h0.444
			c0.488,0,0.888,0.4,0.888,0.889S141.32,83.793,140.832,83.793z M135.947,83.793h-0.444c-0.487,0-0.888-0.4-0.888-0.889
			s0.4-0.889,0.888-0.889h0.444c0.488,0,0.888,0.4,0.888,0.889S136.436,83.793,135.947,83.793z M131.063,83.793h-0.444
			c-0.488,0-0.888-0.4-0.888-0.889s0.399-0.889,0.888-0.889h0.444c0.488,0,0.888,0.4,0.888,0.889S131.552,83.793,131.063,83.793z
			 M126.179,83.793h-0.444c-0.488,0-0.888-0.4-0.888-0.889s0.4-0.889,0.888-0.889h0.444c0.488,0,0.888,0.4,0.888,0.889
			S126.667,83.793,126.179,83.793z M121.294,83.793h-0.444c-0.488,0-0.888-0.4-0.888-0.889s0.4-0.889,0.888-0.889h0.444
			c0.488,0,0.888,0.4,0.888,0.889S121.783,83.793,121.294,83.793z M117.875,81.244c-0.488,0-0.888-0.396-0.888-0.884v-0.447
			c0-0.489,0.399-0.885,0.888-0.885c0.489,0,0.889,0.396,0.889,0.885v0.447C118.764,80.848,118.364,81.244,117.875,81.244z
			 M117.875,76.364c-0.488,0-0.888-0.399-0.888-0.888v-0.444c0-0.493,0.399-0.889,0.888-0.889c0.489,0,0.889,0.396,0.889,0.889
			v0.444C118.764,75.964,118.364,76.364,117.875,76.364z M117.875,71.479c-0.488,0-0.888-0.399-0.888-0.888v-0.444
			c0-0.493,0.399-0.888,0.888-0.888c0.489,0,0.889,0.395,0.889,0.888v0.444C118.764,71.08,118.364,71.479,117.875,71.479z
			 M117.875,66.595c-0.488,0-0.888-0.399-0.888-0.892v-0.44c0-0.493,0.399-0.888,0.888-0.888c0.489,0,0.889,0.395,0.889,0.888v0.44
			C118.764,66.196,118.364,66.595,117.875,66.595z M117.875,61.71c-0.488,0-0.888-0.399-0.888-0.888v-0.444
			c0-0.492,0.399-0.888,0.888-0.888c0.489,0,0.889,0.396,0.889,0.888v0.444C118.764,61.311,118.364,61.71,117.875,61.71z"/>
	</g>
	<g>
		<path fill="#73B6E4" d="M221.428,89.219c-0.488,0-0.887-0.4-0.887-0.889v-0.443c0-0.488,0.398-0.889,0.887-0.889
			c0.49,0,0.889,0.4,0.889,0.889v0.443C222.316,88.818,221.918,89.219,221.428,89.219z M222.166,84.533
			c-0.236,0-0.457-0.094-0.627-0.262c-0.168-0.164-0.262-0.391-0.262-0.625c0-0.219,0.08-0.428,0.227-0.592H221.5l0.039-0.035
			c0.004-0.008,0.014-0.018,0.021-0.025c0.133-0.129,0.279-0.254,0.436-0.361c0.387-0.27,0.965-0.168,1.234,0.219
			c0.139,0.189,0.191,0.426,0.146,0.66c-0.039,0.236-0.168,0.439-0.363,0.574c-0.07,0.053-0.137,0.111-0.205,0.172l-0.021,0.023
			C222.619,84.445,222.4,84.533,222.166,84.533z M251.717,83.793h-0.445c-0.488,0-0.887-0.4-0.887-0.889s0.398-0.889,0.887-0.889
			h0.445c0.488,0,0.887,0.4,0.887,0.889S252.205,83.793,251.717,83.793z M246.832,83.793h-0.445c-0.488,0-0.887-0.4-0.887-0.889
			s0.398-0.889,0.887-0.889h0.445c0.488,0,0.887,0.4,0.887,0.889S247.32,83.793,246.832,83.793z M241.947,83.793h-0.445
			c-0.488,0-0.887-0.4-0.887-0.889s0.398-0.889,0.887-0.889h0.445c0.488,0,0.887,0.4,0.887,0.889S242.436,83.793,241.947,83.793z
			 M237.063,83.793h-0.445c-0.486,0-0.887-0.4-0.887-0.889s0.4-0.889,0.887-0.889h0.445c0.488,0,0.887,0.4,0.887,0.889
			S237.551,83.793,237.063,83.793z M232.178,83.793h-0.443c-0.488,0-0.887-0.4-0.887-0.889s0.398-0.889,0.887-0.889h0.443
			c0.488,0,0.889,0.4,0.889,0.889S232.666,83.793,232.178,83.793z M227.295,83.793h-0.445c-0.488,0-0.889-0.4-0.889-0.889
			s0.4-0.889,0.889-0.889h0.445c0.486,0,0.887,0.4,0.887,0.889S227.781,83.793,227.295,83.793z M254.691,81.244
			c-0.49,0-0.889-0.396-0.889-0.884v-0.443c0-0.493,0.398-0.889,0.889-0.889c0.492,0,0.887,0.396,0.887,0.889v0.443
			C255.578,80.848,255.184,81.244,254.691,81.244z M254.691,76.364c-0.49,0-0.889-0.399-0.889-0.893v-0.444
			c0-0.489,0.398-0.888,0.889-0.888c0.492,0,0.887,0.399,0.887,0.888v0.444C255.578,75.964,255.184,76.364,254.691,76.364z
			 M254.691,71.479c-0.49,0-0.889-0.399-0.889-0.888v-0.444c0-0.493,0.398-0.888,0.889-0.888c0.492,0,0.887,0.395,0.887,0.888v0.444
			C255.578,71.08,255.184,71.479,254.691,71.479z M254.691,66.59c-0.49,0-0.889-0.395-0.889-0.887v-0.44
			c0-0.493,0.398-0.888,0.889-0.888c0.492,0,0.887,0.395,0.887,0.888v0.44C255.578,66.196,255.184,66.59,254.691,66.59z
			 M254.691,61.71c-0.49,0-0.889-0.399-0.889-0.888v-0.448c0-0.488,0.398-0.884,0.889-0.884c0.492,0,0.887,0.396,0.887,0.884v0.448
			C255.578,61.311,255.184,61.71,254.691,61.71z"/>
	</g>
	<g>
		<g>
			<path fill-rule="evenodd" clip-rule="evenodd" fill="#4E4E4E" d="M138.557,90.969h91.369c1.898,0,3.455,1.557,3.455,3.455v50.42
				c0,1.9-1.557,3.455-3.455,3.455h-91.369c-1.9,0-3.455-1.555-3.455-3.455v-50.42C135.102,92.525,136.657,90.969,138.557,90.969z"
				/>
		</g>
		<g>
			<rect x="139.401" y="95.27" fill-rule="evenodd" clip-rule="evenodd" fill="#E6E6E5" width="89.679" height="48.73"/>
		</g>
	</g>
	<g>
		<rect x="139.401" y="95.27" fill-rule="evenodd" clip-rule="evenodd" fill="#CDCCCC" width="89.679" height="6.832"/>
	</g>
	<g>
		<g>
			<rect x="144.914" y="97.822" fill-rule="evenodd" clip-rule="evenodd" fill="#FFFFFF" width="82.12" height="1.727"/>
		</g>
	</g>
	<g>
		<rect x="174.132" y="146.445" fill-rule="evenodd" clip-rule="evenodd" fill="#4E4E4E" width="20.22" height="5.758"/>
	</g>
	<g>
		<rect x="163.552" y="151.045" fill-rule="evenodd" clip-rule="evenodd" fill="#4E4E4E" width="41.376" height="2.432"/>
	</g>
	<g>
		<rect x="150.664" y="114.084" fill-rule="evenodd" clip-rule="evenodd" fill="#C9C9C9" width="8.858" height="4.396"/>
	</g>
	<g>
		<rect x="162.772" y="114.084" fill-rule="evenodd" clip-rule="evenodd" fill="#C9C9C9" width="59.772" height="4.396"/>
	</g>
	<g>
		<rect x="150.664" y="106.973" fill-rule="evenodd" clip-rule="evenodd" fill="#C9C9C9" width="8.858" height="4.396"/>
	</g>
	<g>
		<rect x="162.772" y="106.973" fill-rule="evenodd" clip-rule="evenodd" fill="#C9C9C9" width="59.772" height="4.396"/>
	</g>
	<g>
		<rect x="150.664" y="120.482" fill-rule="evenodd" clip-rule="evenodd" fill="#C9C9C9" width="8.858" height="4.396"/>
	</g>
	<g>
		<rect x="162.772" y="120.482" fill-rule="evenodd" clip-rule="evenodd" fill="#C9C9C9" width="59.772" height="4.396"/>
	</g>
	<g>
		<rect x="150.664" y="127.078" fill-rule="evenodd" clip-rule="evenodd" fill="#C9C9C9" width="8.858" height="4.396"/>
	</g>
	<g>
		<rect x="162.772" y="127.078" fill-rule="evenodd" clip-rule="evenodd" fill="#C9C9C9" width="59.772" height="4.396"/>
	</g>
	<g>
		<rect x="150.664" y="133.43" fill-rule="evenodd" clip-rule="evenodd" fill="#C9C9C9" width="8.858" height="4.396"/>
	</g>
	<g>
		<rect x="144.267" y="114.084" fill-rule="evenodd" clip-rule="evenodd" fill="#C9C9C9" width="3.992" height="4.396"/>
	</g>
	<g>
		<rect x="144.267" y="106.973" fill-rule="evenodd" clip-rule="evenodd" fill="#C9C9C9" width="3.992" height="4.396"/>
	</g>
	<g>
		<rect x="145.535" y="108.369" fill-rule="evenodd" clip-rule="evenodd" fill="#E6E6E5" width="1.458" height="1.604"/>
	</g>
	<g>
		<rect x="145.535" y="115.479" fill-rule="evenodd" clip-rule="evenodd" fill="#E6E6E5" width="1.458" height="1.605"/>
	</g>
	<g>
		<rect x="144.267" y="120.482" fill-rule="evenodd" clip-rule="evenodd" fill="#C9C9C9" width="3.992" height="4.396"/>
	</g>
	<g>
		<rect x="144.267" y="127.078" fill-rule="evenodd" clip-rule="evenodd" fill="#C9C9C9" width="3.992" height="4.396"/>
	</g>
	<g>
		<rect x="144.267" y="133.43" fill-rule="evenodd" clip-rule="evenodd" fill="#C9C9C9" width="3.992" height="4.396"/>
	</g>
	<g>
		<rect x="162.772" y="133.43" fill-rule="evenodd" clip-rule="evenodd" fill="#C9C9C9" width="59.772" height="4.396"/>
	</g>
	<g>
		<circle fill-rule="evenodd" clip-rule="evenodd" fill="#FFFFFF" cx="142.698" cy="98.686" r="0.862"/>
	</g>
	<g>
		<rect x="145.535" y="121.879" fill-rule="evenodd" clip-rule="evenodd" fill="#E6E6E5" width="1.458" height="1.605"/>
	</g>
	<g>
		<rect x="145.535" y="128.475" fill-rule="evenodd" clip-rule="evenodd" fill="#E6E6E5" width="1.458" height="1.605"/>
	</g>
	<g>
		<rect x="145.535" y="134.824" fill-rule="evenodd" clip-rule="evenodd" fill="#E6E6E5" width="1.458" height="1.605"/>
	</g>
	<g>
		<g>
			<polygon fill-rule="evenodd" clip-rule="evenodd" fill="#B2D1E5" points="108.814,62.156 99.751,46.461 108.814,30.765 
				126.938,30.765 136,46.461 126.938,62.156 			"/>
		</g>
		<g>
			<g>
				<path fill="#2E404E" d="M119.953,55.231c0,0,3.448,0.504,3.958,1.035c0.443,0.462,1.364,4.886,1.578,5.857
					c-6.053,0-7.789,0-7.789,0v-6.704L119.953,55.231z"/>
			</g>
			<g>
				<rect x="115.887" y="52.862" fill="#D9A88C" width="3.626" height="3.977"/>
			</g>
			<g>
				<g>
					<path fill="#E9C0A7" d="M117.7,41.483c1.761,0,4.546,1,4.546,5.691c0,2.708-0.883,4.482-1.269,4.973
						c-0.354,0.452-2.343,1.415-3.277,1.415C117.7,48.821,117.7,41.483,117.7,41.483z"/>
				</g>
				<g>
					<path fill="#E9C0A7" d="M123.123,48.293c0.076-0.749-0.281-1.415-0.799-1.486c-0.519-0.07-1.001,0.479-1.079,1.229
						c-0.077,0.749,0.28,1.415,0.798,1.485C122.561,49.592,123.044,49.042,123.123,48.293z"/>
				</g>
			</g>
			<g>
				<g>
					<path fill="#F2D8BC" d="M117.701,41.483c-1.761,0-4.547,1-4.547,5.691c0,2.708,0.883,4.482,1.269,4.973
						c0.353,0.452,2.344,1.415,3.278,1.415C117.701,48.821,117.701,41.483,117.701,41.483z"/>
				</g>
				<g>
					<path fill="#F2D8BC" d="M112.279,48.293c-0.078-0.749,0.279-1.415,0.797-1.486c0.518-0.07,1.001,0.479,1.079,1.229
						c0.078,0.749-0.28,1.415-0.798,1.485C112.839,49.592,112.356,49.042,112.279,48.293z"/>
				</g>
			</g>
			<g>
				<path fill="#670E0E" d="M120.282,51.39c-0.91,0-1.562-0.739-2.604-0.739c-1.044,0-1.696,0.739-2.605,0.739
					c-0.999,0-1.626-1.72-1.815-2.324c0.257,1.736,0.846,2.872,1.143,3.25c0.354,0.452,2.343,1.415,3.278,1.415l0,0l0,0
					c0.933,0,2.923-0.962,3.277-1.415c0.295-0.378,0.886-1.514,1.143-3.251C121.909,49.667,121.281,51.39,120.282,51.39z"/>
			</g>
			<g>
				<path fill="#344750" d="M115.447,55.231c0,0-3.448,0.504-3.957,1.035c-0.445,0.462-1.365,4.886-1.58,5.857
					c6.054,0,7.79,0,7.79,0v-6.704L115.447,55.231z"/>
			</g>
			<g>
				<polyline fill="#B9C7CF" points="119.994,55.139 117.7,55.419 115.405,55.139 117.7,62.123 				"/>
			</g>
			<g>
				<polygon fill="#B73D41" points="117.466,56.093 117.007,60.816 117.701,62.123 118.393,60.816 117.935,56.093 				"/>
			</g>
			<g>
				<path fill="#232C31" d="M116.045,58.153l-1.824-2.708c0.5-0.181,1.036-0.316,1.599-0.409l1.881,7.085l-2.637-3.775
					L116.045,58.153z"/>
			</g>
			<g>
				<path fill="#232C31" d="M119.354,58.153l1.825-2.708c-0.498-0.181-1.035-0.316-1.598-0.409l-1.88,7.085l2.636-3.775
					L119.354,58.153z"/>
			</g>
			<g>
				<path fill="#B73D41" d="M118.318,56.054l-0.618,0.62l-0.62-0.62l0.62-0.619L118.318,56.054z"/>
			</g>
			<g>
				<polygon fill="#FFFFFF" points="117.7,55.419 115.858,54.679 115.405,55.139 116.321,57.171 				"/>
			</g>
			<g>
				<polygon fill="#FFFFFF" points="117.7,55.419 119.541,54.679 119.994,55.139 119.079,57.171 				"/>
			</g>
			<g>
				<polygon fill="#FFFFFF" points="117.72,50.665 117.72,51.107 116.375,51.397 116.094,51.397 				"/>
			</g>
			<g>
				<polygon fill="#FFFFFF" points="117.707,50.665 117.707,51.107 119.052,51.397 119.333,51.397 				"/>
			</g>
			<g>
				<path fill="#563929" d="M121.363,47.522c0.189-0.483,0.564-0.793,0.961-0.739c0,0,0.002,0,0.003,0.001
					c0.181-0.557,0.244-1.219-0.002-1.921c-1.31-3.731,0.178-4.399,0.178-4.399s-1.45-0.065-2.575,0.866
					c0.776-1.202,1.125-1.512,1.125-1.512s-1.628-0.349-3.375,1.435c0.388-0.97,0.853-1.463,0.853-1.463s-3.645,0.028-4.964,2.665
					c-0.751,1.503-0.811,3.133-0.627,4.364c0.044-0.017,0.09-0.029,0.137-0.036c0.171-0.024,0.34,0.022,0.49,0.12
					c0-0.568,0-1.072,0-1.15c0.698-0.312,1.435-0.699,1.396-2.25c1.63,0,2.521,0,2.521,0h2.599c0,0-0.116,1.746,1.28,2.172
					C121.363,46.402,121.363,47.045,121.363,47.522z"/>
			</g>
		</g>
	</g>
	<g>
		<polygon fill-rule="evenodd" clip-rule="evenodd" fill="#B2D1E5" points="174.77,68.087 163.565,48.681 174.77,29.275 
			197.178,29.275 208.383,48.681 197.178,68.087 		"/>
	</g>
	<g>
		<path fill="#451A14" d="M192.654,53.064c0,3.674-2.978,1.768-6.652,1.768l0,0c-3.673,0-6.651,1.906-6.651-1.768v-6.013
			c0-3.674,2.979-6.652,6.651-6.652l0,0c3.675,0,6.652,2.979,6.652,6.652V53.064z"/>
	</g>
	<g>
		<circle fill="#451A14" cx="186.031" cy="47.108" r="6.785"/>
	</g>
	<g>
		<polygon fill="#EAC8AE" points="188.302,61.639 186.002,68.087 183.761,61.639 183.761,56.66 188.302,56.66 		"/>
	</g>
	<g>
		<g>
			<path fill="#F2D8BC" d="M186.031,42.862c-2.205,0-5.69,1.253-5.69,7.125c0,3.391,1.322,4.989,1.803,5.604
				c0.443,0.565,2.719,2.393,3.888,2.393C186.031,52.049,186.031,42.862,186.031,42.862z"/>
		</g>
		<g>
			<path fill="#F2D8BC" d="M179.245,51.388c-0.098-0.938,0.35-1.771,0.997-1.86c0.649-0.089,1.255,0.599,1.352,1.538
				c0.097,0.938-0.351,1.771-0.999,1.86C179.946,53.015,179.341,52.326,179.245,51.388z"/>
		</g>
	</g>
	<g>
		<path fill="#E9C0A7" d="M185.886,42.862c2.254,0,5.817,1.253,5.817,7.125c0,3.391-1.35,4.989-1.842,5.604
			c-0.454,0.565-2.779,2.393-3.975,2.393C185.886,52.049,185.886,42.862,185.886,42.862z"/>
	</g>
	<g>
		<path fill="#E9C0A7" d="M192.818,51.388c0.098-0.938-0.35-1.771-0.998-1.86c-0.648-0.089-1.254,0.599-1.351,1.538
			c-0.098,0.938,0.349,1.771,0.997,1.86C192.117,53.015,192.721,52.326,192.818,51.388z"/>
	</g>
	<g>
		<path fill="#EAC8AE" d="M186.002,68.087v-6.202c0,0-1.694-0.419-2.066-1.792c-0.179-0.659-0.174-1.188-0.174-1.188
			s-3.704,1.251-4.53,2.542c-0.688,2.048-0.877,6.639-0.877,6.639H186.002z"/>
	</g>
	<g>
		<path fill="#EAC8AE" d="M186.002,68.087v-6.202c0,0,1.694-0.419,2.068-1.792c0.18-0.659,0.175-1.188,0.175-1.188
			s3.703,1.251,4.531,2.542c0.688,2.048,0.875,6.639,0.875,6.639H186.002z"/>
	</g>
	<g>
		<path fill="#FFFFFF" d="M186.031,55.916c0.86,0,1.556-0.527,1.556-1.178h-3.112C184.475,55.388,185.172,55.916,186.031,55.916z"/>
	</g>
	<g>
		<path fill="#451A14" d="M185.71,41.172c-4.027,0-5.252,3.529-5.252,5.154c-1.461,2.03,0.132,3.847,1.26,4.485
			c0-0.377,0-0.515,0-0.999c0-1.313,1.248-2.529,3.124-2.326c1.681,0.181,2.739-0.769,3.633-2.384
			C189.578,42.941,188.2,41.172,185.71,41.172z"/>
	</g>
	<g>
		<path fill="#451A14" d="M188.302,44.439c0,0,0.941,3.82,3.519,5.089c0.459-3.436,0.73-2.711,0-4.521
			c-0.73-1.809-3.519-3.152-3.519-3.152V44.439z"/>
	</g>
	<g>
		<path fill="#75B6E4" d="M186.002,68.087v-5.216l-2.241-3.966c0,0-3.704,1.251-4.53,2.542c-0.688,2.048-0.877,6.639-0.877,6.639
			H186.002z"/>
	</g>
	<g>
		<path fill="#5FABDC" d="M186.002,68.087v-5.216l2.243-3.966c0,0,3.703,1.251,4.531,2.542c0.688,2.048,0.875,6.639,0.875,6.639
			H186.002z"/>
	</g>
	<g>
		<polygon fill="#FFFFFF" points="186.002,62.871 183.761,58.905 181.702,59.564 183.455,63.496 		"/>
	</g>
	<g>
		<polygon fill="#FFFFFF" points="186.002,62.871 188.245,58.905 190.304,59.564 188.55,63.496 		"/>
	</g>
	<g>
		<g>
			<polygon fill-rule="evenodd" clip-rule="evenodd" fill="#B2D1E5" points="255.311,130.375 246.711,115.479 255.311,100.582 
				272.514,100.582 281.115,115.479 272.514,130.375 			"/>
		</g>
		<g>
			<g>
				<g>
					<rect x="262.109" y="121.162" fill="#D9A88C" width="3.607" height="3.955"/>
				</g>
				<g>
					<path fill="#C0D5E0" d="M266.154,123.52c0,0,3.432,0.502,3.939,1.029c0.439,0.459,1.357,4.861,1.568,5.826
						c-6.021,0-7.75,0-7.75,0v-6.67L266.154,123.52z"/>
				</g>
				<g>
					<g>
						<path fill="#E9C0A7" d="M263.912,109.84c1.752,0,4.523,0.996,4.523,5.662c0,2.695-0.879,4.461-1.262,4.949
							c-0.352,0.449-2.332,1.406-3.262,1.406C263.912,117.141,263.912,109.84,263.912,109.84z"/>
					</g>
					<g>
						<path fill="#E9C0A7" d="M269.309,116.615c0.076-0.746-0.279-1.408-0.795-1.479s-0.996,0.477-1.072,1.223
							c-0.078,0.746,0.277,1.408,0.793,1.479C268.748,117.908,269.229,117.361,269.309,116.615z"/>
					</g>
				</g>
				<g>
					<g>
						<path fill="#F2D8BC" d="M263.912,109.84c-1.752,0-4.523,0.996-4.523,5.662c0,2.695,0.881,4.461,1.264,4.949
							c0.35,0.449,2.332,1.406,3.26,1.406C263.912,117.141,263.912,109.84,263.912,109.84z"/>
					</g>
					<g>
						<path fill="#F2D8BC" d="M258.518,116.615c-0.076-0.746,0.279-1.408,0.795-1.479s0.996,0.477,1.072,1.223
							c0.078,0.746-0.277,1.408-0.793,1.479S258.596,117.361,258.518,116.615z"/>
					</g>
				</g>
				<g>
					<path fill="#D0E1EB" d="M261.672,123.52c0,0-3.434,0.502-3.938,1.029c-0.443,0.459-1.361,4.861-1.572,5.826
						c6.023,0,7.75,0,7.75,0v-6.67L261.672,123.52z"/>
				</g>
				<g>
					<polygon fill="#FFFFFF" points="263.912,123.705 262.082,122.969 261.629,123.428 262.541,125.447 					"/>
				</g>
				<g>
					<polygon fill="#FFFFFF" points="263.912,123.705 265.744,122.969 266.195,123.428 265.283,125.447 					"/>
				</g>
			</g>
			<g>
				<path fill="#8B603D" d="M268.533,115.246c0,0,1.484-6.758-4.65-6.758c-6.17,0-4.619,6.572-4.619,6.572s0.842-0.48,0.842,1.676
					c0.334,0,0.154,0,0.154,0s0.299-1.447,0.391-2.744c2.168,0,4.086-0.277,5.699-1.613c0.916,0,1.041,1.141,1.041,2.014
					l-0.402,0.156c0,0,0.389,0.76,0.416,2.188c0.277,0,0.277,0,0.277,0S267.643,114.355,268.533,115.246z"/>
			</g>
			<g>
				<path fill="#FFFFFF" d="M263.912,120.098c0.818,0,1.479-0.27,1.479-0.604h-2.957
					C262.434,119.828,263.096,120.098,263.912,120.098z"/>
			</g>
		</g>
	</g>
	<g>
		<g>
			<polygon fill-rule="evenodd" clip-rule="evenodd" fill="#B2D1E5" points="248.459,64.191 240.967,51.216 248.459,38.241 
				263.439,38.241 270.932,51.216 263.439,64.191 			"/>
		</g>
		<g>
			<g>
				<path fill="#451A14" d="M252.223,52.122c0,1.714-0.939,1.758-0.873,2.892c0.074,1.257,1.057,1.26,1.057,2.124
					c0,0.863-0.902,1.831-0.104,2.761c3.518,0,3.861,0,3.861,0V49.422L252.223,52.122z"/>
			</g>
			<g>
				<path fill="#451A14" d="M260.102,52.122c0,1.714,0.939,1.758,0.873,2.892c-0.074,1.257-1.057,1.26-1.057,2.124
					c0,0.863,0.902,1.831,0.104,2.761c-3.518,0-3.861,0-3.861,0V49.422L260.102,52.122z"/>
			</g>
			<g>
				<g>
					<circle fill="#451A14" cx="256.182" cy="50.351" r="4.477"/>
				</g>
				<g>
					<polygon fill="#EAC8AE" points="257.68,59.936 256.162,64.191 254.684,59.936 254.684,56.652 257.68,56.652 					"/>
				</g>
				<g>
					<g>
						<path fill="#F2D8BC" d="M256.182,47.55c-1.455,0-3.754,0.827-3.754,4.701c0,2.236,0.871,3.291,1.189,3.696
							c0.293,0.373,1.793,1.578,2.564,1.578C256.182,53.61,256.182,47.55,256.182,47.55z"/>
					</g>
					<g>
						<path fill="#F2D8BC" d="M251.703,53.175c-0.064-0.619,0.232-1.168,0.66-1.227s0.826,0.396,0.891,1.014
							c0.064,0.619-0.232,1.168-0.658,1.227C252.166,54.248,251.77,53.793,251.703,53.175z"/>
					</g>
				</g>
				<g>
					<g>
						<g>
							<path fill="#E9C0A7" d="M256.17,47.55c1.453,0,3.754,0.827,3.754,4.701c0,2.236-0.871,3.291-1.189,3.696
								c-0.293,0.373-1.793,1.578-2.564,1.578C256.17,53.61,256.17,47.55,256.17,47.55z"/>
						</g>
					</g>
					<g>
						<g>
							<path fill="#E9C0A7" d="M260.658,53.175c0.064-0.619-0.23-1.168-0.658-1.227c-0.43-0.059-0.826,0.396-0.891,1.014
								c-0.064,0.619,0.23,1.168,0.658,1.227C260.195,54.248,260.594,53.793,260.658,53.175z"/>
						</g>
					</g>
				</g>
				<g>
					<path fill="#EAC8AE" d="M256.162,64.191V60.1c0,0-1.117-0.278-1.363-1.182c-0.119-0.435-0.115-0.784-0.115-0.784
						s-2.443,0.825-2.988,1.677c-0.453,1.352-0.578,4.38-0.578,4.38H256.162z"/>
				</g>
				<g>
					<path fill="#EAC8AE" d="M256.162,64.191V60.1c0,0,1.117-0.278,1.363-1.182c0.119-0.435,0.115-0.784,0.115-0.784
						s2.443,0.825,2.988,1.677c0.455,1.352,0.578,4.38,0.578,4.38H256.162z"/>
				</g>
				<g>
					<path fill="#FFFFFF" d="M256.182,56.162c0.566,0,1.025-0.348,1.025-0.777h-2.053C255.154,55.814,255.615,56.162,256.182,56.162
						z"/>
				</g>
				<g>
					<path fill="#EA1F3C" d="M256.162,62.59c0,0-1.074-2.691-1.479-4.457c-0.406,0.158-0.742,0.256-0.996,0.388
						c-1.209,2.547-1.26,5.669-1.26,5.669h3.734V62.59z"/>
				</g>
				<g>
					<path fill="#C5202F" d="M256.18,62.59c0,0,1.074-2.691,1.477-4.457c0.408,0.158,0.742,0.256,0.996,0.388
						c1.209,2.547,1.262,5.669,1.262,5.669h-3.734V62.59z"/>
				</g>
			</g>
			<g>
				<path fill="#451A14" d="M255.971,46.436c-2.658,0-3.467,2.329-3.467,3.4c-0.963,1.339,0.088,2.538,0.832,2.958
					c0-0.249,0-0.34,0-0.658c0-0.867,0.824-1.669,2.061-1.535c1.109,0.12,1.807-0.507,2.396-1.572
					C258.521,47.603,257.611,46.436,255.971,46.436z"/>
			</g>
			<g>
				<path fill="#451A14" d="M257.68,48.59c0,0,0.621,2.521,2.32,3.357c0.303-2.266,0.482-1.789,0-2.982s-2.32-2.08-2.32-2.08V48.59z
					"/>
			</g>
		</g>
	</g>
	<g>
		<g>
			<polygon fill-rule="evenodd" clip-rule="evenodd" fill="#B2D1E5" points="105.548,153.637 100.03,144.078 105.548,134.52 
				116.585,134.52 122.102,144.078 116.585,153.637 			"/>
		</g>
		<g>
			<g>
				<g>
					<g>
						<g>
							<g>
								<circle fill="#492C1C" cx="110.925" cy="143.359" r="3.338"/>
							</g>
							<g>
								<polygon fill="#EAC8AE" points="112.042,150.508 110.911,153.682 109.809,150.508 109.809,148.059 112.042,148.059 								
									"/>
							</g>
							<g>
								<g>
									<path fill="#F2D8BC" d="M110.925,141.27c-1.084,0-2.8,0.617-2.8,3.506c0,1.668,0.651,2.455,0.888,2.758
										c0.218,0.277,1.337,1.176,1.913,1.176C110.925,145.791,110.925,141.27,110.925,141.27z"/>
								</g>
								<g>
									<path fill="#F2D8BC" d="M107.585,145.465c-0.047-0.461,0.172-0.871,0.491-0.916c0.319-0.043,0.617,0.297,0.665,0.758
										c0.048,0.461-0.172,0.871-0.492,0.914C107.931,146.266,107.633,145.928,107.585,145.465z"/>
								</g>
							</g>
							<g>
								<g>
									<g>
										<path fill="#E9C0A7" d="M110.916,141.27c1.085,0,2.8,0.617,2.8,3.506c0,1.668-0.65,2.455-0.888,2.758
											c-0.218,0.277-1.337,1.176-1.913,1.176C110.916,145.791,110.916,141.27,110.916,141.27z"/>
									</g>
								</g>
								<g>
									<g>
										<path fill="#E9C0A7" d="M114.264,145.465c0.047-0.461-0.172-0.871-0.491-0.916c-0.319-0.043-0.617,0.297-0.665,0.758
											c-0.048,0.461,0.172,0.871,0.491,0.914C113.919,146.266,114.217,145.928,114.264,145.465z"/>
									</g>
								</g>
							</g>
							<g>
								<path fill="#EAC8AE" d="M110.911,153.682v-3.053c0,0-0.833-0.205-1.017-0.881c-0.088-0.324-0.085-0.584-0.085-0.584
									s-1.822,0.615-2.229,1.25c-0.339,1.008-0.432,3.268-0.432,3.268H110.911z"/>
							</g>
							<g>
								<path fill="#EAC8AE" d="M110.911,153.682v-3.053c0,0,0.833-0.205,1.017-0.881c0.089-0.324,0.086-0.584,0.086-0.584
									s1.822,0.615,2.229,1.25c0.338,1.008,0.431,3.268,0.431,3.268H110.911z"/>
							</g>
							<g>
								<path fill="#EAC8AE" d="M110.911,153.682v-3.053c0,0-0.833-0.205-1.017-0.881c-0.088-0.324-0.085-0.584-0.085-0.584
									s-1.822,0.615-2.229,1.25c-0.339,1.008-0.432,3.268-0.432,3.268H110.911z"/>
							</g>
							<g>
								<path fill="#EAC8AE" d="M110.911,153.682v-3.053c0,0,0.833-0.205,1.017-0.881c0.089-0.324,0.086-0.584,0.086-0.584
									s1.822,0.615,2.229,1.25c0.338,1.008,0.431,3.268,0.431,3.268H110.911z"/>
							</g>
							<g>
								<path fill="#FFFFFF" d="M110.925,147.691c0.423,0,0.765-0.258,0.765-0.578h-1.53
									C110.16,147.434,110.502,147.691,110.925,147.691z"/>
							</g>
						</g>
						<g>
							<path fill="#492C1C" d="M110.767,140.439c-1.982,0-2.584,1.736-2.584,2.535c-0.719,1,0.065,1.893,0.62,2.207
								c0-0.186,0-0.254,0-0.492c0-0.646,0.614-1.244,1.537-1.145c0.827,0.09,1.347-0.377,1.787-1.172
								C112.669,141.309,111.992,140.439,110.767,140.439z"/>
						</g>
						<g>
							<path fill="#492C1C" d="M112.042,142.047c0,0,0.463,1.879,1.731,2.502c0.226-1.689,0.359-1.332,0-2.223
								c-0.359-0.891-1.731-1.551-1.731-1.551V142.047z"/>
						</g>
					</g>
				</g>
			</g>
			<g>
				<path fill="#FAA31F" d="M114.243,150.414c-0.34-0.531-1.663-1.045-2.092-1.201c-0.026,0.662-0.571,1.191-1.24,1.191
					c-0.669,0-1.214-0.529-1.239-1.191c-0.43,0.156-1.753,0.67-2.092,1.201c-0.339,1.008-0.432,3.268-0.432,3.268h3.763h3.763
					C114.674,153.682,114.581,151.422,114.243,150.414z"/>
			</g>
			<g>
				<path fill="#F78F21" d="M114.674,153.682c0,0-0.093-2.26-0.431-3.268c-0.34-0.531-1.663-1.045-2.092-1.201
					c-0.026,0.662-0.571,1.191-1.24,1.191v3.277H114.674z"/>
			</g>
			<g>
				<path fill="#3DB54A" d="M109.263,149.371c0.124,0.799,0.815,1.408,1.648,1.408s1.524-0.609,1.647-1.408
					c-0.167-0.07-0.311-0.125-0.408-0.158c-0.026,0.662-0.571,1.191-1.24,1.191c-0.669,0-1.214-0.529-1.239-1.191
					C109.574,149.246,109.431,149.301,109.263,149.371z"/>
			</g>
			<g>
				<circle fill="#492C1C" cx="110.925" cy="140.021" r="1.116"/>
			</g>
		</g>
	</g>
</g>
</svg>
