<?xml version="1.0" encoding="utf-8"?>
<!-- Generator: Adobe Illustrator 15.0.0, SVG Export Plug-In  -->
<!DOCTYPE svg PUBLIC "-//W3C//DTD SVG 1.1//EN" "http://www.w3.org/Graphics/SVG/1.1/DTD/svg11.dtd" [
	<!ENTITY ns_flows "http://ns.adobe.com/Flows/1.0/">
]>
<svg version="1.1"
	 xmlns="http://www.w3.org/2000/svg" xmlns:xlink="http://www.w3.org/1999/xlink" xmlns:a="http://ns.adobe.com/AdobeSVGViewerExtensions/3.0/"
	 x="0px" y="0px" width="200px" height="137px" viewBox="-10.818 -6.563 200 137" enable-background="new -10.818 -6.563 200 137"
	 xml:space="preserve">
<defs>
</defs>
<path fill="#83BBE7" d="M162.387,121.426h-0.446c-0.49,0-0.892-0.397-0.892-0.892c0-0.491,0.401-0.893,0.892-0.893h0.446
	c0.489,0,0.892,0.401,0.892,0.893C163.278,121.028,162.876,121.426,162.387,121.426z M157.481,121.426h-0.445
	c-0.489,0-0.892-0.397-0.892-0.892c0-0.491,0.402-0.893,0.892-0.893h0.445c0.491,0,0.893,0.401,0.893,0.893
	C158.374,121.028,157.973,121.426,157.481,121.426z M152.578,121.426h-0.445c-0.491,0-0.893-0.397-0.893-0.892
	c0-0.491,0.401-0.893,0.893-0.893h0.445c0.489,0,0.892,0.401,0.892,0.893C153.47,121.028,153.067,121.426,152.578,121.426z
	 M147.674,121.426h-0.446c-0.489,0-0.892-0.397-0.892-0.892c0-0.491,0.402-0.893,0.892-0.893h0.446c0.49,0,0.892,0.401,0.892,0.893
	C148.565,121.028,148.164,121.426,147.674,121.426z M142.77,121.426h-0.445c-0.491,0-0.892-0.397-0.892-0.892
	c0-0.491,0.4-0.893,0.892-0.893h0.445c0.491,0,0.893,0.401,0.893,0.893C143.662,121.028,143.261,121.426,142.77,121.426z
	 M164.825,119.406c-0.491,0-0.892-0.402-0.892-0.892v-0.446c0-0.49,0.4-0.892,0.892-0.892c0.49,0,0.892,0.401,0.892,0.892v0.446
	C165.717,119.004,165.315,119.406,164.825,119.406z M141.16,118.131c-0.495,0-0.892-0.397-0.892-0.888v-0.445
	c0-0.495,0.396-0.896,0.892-0.896c0.49,0,0.892,0.401,0.892,0.896v0.445C142.052,117.733,141.65,118.131,141.16,118.131z
	 M164.825,114.502c-0.491,0-0.892-0.401-0.892-0.893v-0.445c0-0.49,0.4-0.892,0.892-0.892c0.49,0,0.892,0.401,0.892,0.892v0.445
	C165.717,114.101,165.315,114.502,164.825,114.502z M141.16,113.227c-0.495,0-0.892-0.396-0.892-0.887v-0.446
	c0-0.494,0.396-0.896,0.892-0.896c0.49,0,0.892,0.402,0.892,0.896v0.446C142.052,112.83,141.65,113.227,141.16,113.227z
	 M164.825,109.598c-0.491,0-0.892-0.402-0.892-0.892v-0.446c0-0.49,0.4-0.892,0.892-0.892c0.49,0,0.892,0.401,0.892,0.892v0.446
	C165.717,109.195,165.315,109.598,164.825,109.598z M141.16,108.322c-0.495,0-0.892-0.396-0.892-0.888v-0.445
	c0-0.495,0.396-0.896,0.892-0.896c0.49,0,0.892,0.401,0.892,0.896v0.445C142.052,107.926,141.65,108.322,141.16,108.322z
	 M164.825,104.693c-0.491,0-0.892-0.401-0.892-0.892v-0.446c0-0.489,0.4-0.892,0.892-0.892c0.49,0,0.892,0.402,0.892,0.892v0.446
	C165.717,104.292,165.315,104.693,164.825,104.693z M141.16,103.418c-0.495,0-0.892-0.396-0.892-0.887v-0.446
	c0-0.494,0.396-0.896,0.892-0.896c0.49,0,0.892,0.401,0.892,0.896v0.446C142.052,103.021,141.65,103.418,141.16,103.418z
	 M164.825,99.789c-0.491,0-0.892-0.4-0.892-0.892v-0.445c0-0.491,0.4-0.892,0.892-0.892c0.49,0,0.892,0.4,0.892,0.892v0.445
	C165.717,99.389,165.315,99.789,164.825,99.789z M141.16,98.515c-0.495,0-0.892-0.397-0.892-0.887v-0.446
	c0-0.496,0.396-0.896,0.892-0.896c0.49,0,0.892,0.4,0.892,0.896v0.446C142.052,98.117,141.65,98.515,141.16,98.515z M141.16,93.609
	c-0.495,0-0.892-0.396-0.892-0.887v-0.445c0-0.495,0.396-0.896,0.892-0.896c0.49,0,0.892,0.401,0.892,0.896v0.445
	C142.052,93.214,141.65,93.609,141.16,93.609z M140.813,89.054h-0.445c-0.491,0-0.892-0.396-0.892-0.888
	c0-0.494,0.4-0.896,0.892-0.896h0.445c0.491,0,0.893,0.401,0.893,0.896C141.705,88.657,141.304,89.054,140.813,89.054z
	 M135.909,89.054h-0.446c-0.491,0-0.892-0.396-0.892-0.888c0-0.494,0.4-0.896,0.892-0.896h0.446c0.489,0,0.891,0.401,0.891,0.896
	C136.8,88.657,136.398,89.054,135.909,89.054z M131.005,89.054h-0.446c-0.49,0-0.892-0.396-0.892-0.888
	c0-0.494,0.401-0.896,0.892-0.896h0.446c0.49,0,0.892,0.401,0.892,0.896C131.896,88.657,131.495,89.054,131.005,89.054z"/>
<path fill="#83BBE7" d="M25.709,116.16h-0.446c-0.49,0-0.892-0.401-0.892-0.892c0-0.495,0.401-0.892,0.892-0.892h0.446
	c0.49,0,0.892,0.396,0.892,0.892C26.601,115.759,26.199,116.16,25.709,116.16z M20.805,116.16h-0.446
	c-0.495,0-0.892-0.401-0.892-0.892c0-0.495,0.397-0.892,0.892-0.892h0.446c0.49,0,0.892,0.396,0.892,0.892
	C21.697,115.759,21.295,116.16,20.805,116.16z M29.2,115.192c-0.495,0-0.892-0.401-0.892-0.892v-0.445
	c0-0.495,0.397-0.893,0.892-0.893c0.491,0,0.892,0.397,0.892,0.893v0.445C30.092,114.791,29.69,115.192,29.2,115.192z M29.2,110.288
	c-0.495,0-0.892-0.4-0.892-0.891v-0.446c0-0.494,0.397-0.892,0.892-0.892c0.491,0,0.892,0.397,0.892,0.892v0.446
	C30.092,109.888,29.69,110.288,29.2,110.288z M29.2,105.38c-0.495,0-0.892-0.396-0.892-0.888v-0.445
	c0-0.495,0.397-0.892,0.892-0.892c0.491,0,0.892,0.396,0.892,0.892v0.445C30.092,104.983,29.69,105.38,29.2,105.38z M29.2,100.48
	c-0.495,0-0.892-0.401-0.892-0.892v-0.446c0-0.494,0.397-0.892,0.892-0.892c0.491,0,0.892,0.397,0.892,0.892v0.446
	C30.092,100.079,29.69,100.48,29.2,100.48z M29.2,95.576c-0.495,0-0.892-0.401-0.892-0.892v-0.446c0-0.495,0.397-0.892,0.892-0.892
	c0.491,0,0.892,0.396,0.892,0.892v0.446C30.092,95.175,29.69,95.576,29.2,95.576z M36.485,92.606h-0.446
	c-0.49,0-0.892-0.396-0.892-0.892c0-0.489,0.401-0.892,0.892-0.892h0.446c0.495,0,0.892,0.402,0.892,0.892
	C37.376,92.211,36.979,92.606,36.485,92.606z M31.581,92.606h-0.446c-0.49,0-0.891-0.396-0.891-0.892
	c0-0.489,0.401-0.892,0.891-0.892h0.446c0.495,0,0.892,0.402,0.892,0.892C32.472,92.211,32.075,92.606,31.581,92.606z"/>
<path fill="#83BBE7" d="M86.569,75.729c-0.491,0-0.892-0.402-0.892-0.892v-0.446c0-0.495,0.401-0.892,0.892-0.892
	c0.495,0,0.892,0.396,0.892,0.892v0.446C87.46,75.326,87.063,75.729,86.569,75.729z M86.569,70.824
	c-0.491,0-0.892-0.401-0.892-0.892v-0.446c0-0.495,0.401-0.892,0.892-0.892c0.495,0,0.892,0.396,0.892,0.892v0.446
	C87.46,70.423,87.063,70.824,86.569,70.824z M86.569,65.92c-0.491,0-0.892-0.401-0.892-0.892v-0.445
	c0-0.495,0.401-0.893,0.892-0.893c0.495,0,0.892,0.397,0.892,0.893v0.445C87.46,65.519,87.063,65.92,86.569,65.92z M86.569,61.016
	c-0.491,0-0.892-0.402-0.892-0.892v-0.446c0-0.496,0.401-0.892,0.892-0.892c0.495,0,0.892,0.396,0.892,0.892v0.446
	C87.46,60.614,87.063,61.016,86.569,61.016z M86.569,56.112c-0.491,0-0.892-0.401-0.892-0.892v-0.446
	c0-0.491,0.401-0.892,0.892-0.892c0.495,0,0.892,0.401,0.892,0.892v0.446C87.46,55.71,87.063,56.112,86.569,56.112z M86.569,51.208
	c-0.491,0-0.892-0.402-0.892-0.892V49.87c0-0.491,0.401-0.892,0.892-0.892c0.495,0,0.892,0.401,0.892,0.892v0.446
	C87.46,50.806,87.063,51.208,86.569,51.208z M86.569,46.304c-0.491,0-0.892-0.402-0.892-0.892v-0.446
	c0-0.49,0.401-0.892,0.892-0.892c0.495,0,0.892,0.401,0.892,0.892v0.446C87.46,45.902,87.063,46.304,86.569,46.304z M86.569,41.399
	c-0.491,0-0.892-0.401-0.892-0.892v-0.446c0-0.49,0.401-0.892,0.892-0.892c0.495,0,0.892,0.401,0.892,0.892v0.446
	C87.46,40.999,87.063,41.399,86.569,41.399z"/>
<path fill="#83BBE7" d="M51.594,60.187c-0.49,0-0.892-0.401-0.892-0.892v-0.446c0-0.491,0.401-0.892,0.892-0.892
	c0.495,0,0.892,0.401,0.892,0.892v0.446C52.485,59.786,52.089,60.187,51.594,60.187z M50.854,55.483
	c-0.236,0-0.463-0.094-0.628-0.263c-0.067-0.067-0.143-0.129-0.223-0.188c-0.196-0.134-0.326-0.339-0.366-0.575
	c-0.045-0.236,0.009-0.473,0.147-0.665c0.272-0.387,0.852-0.49,1.239-0.218c0.166,0.116,0.321,0.246,0.464,0.388
	c0.165,0.166,0.259,0.393,0.259,0.629c0,0.241-0.094,0.464-0.263,0.629C51.317,55.39,51.095,55.483,50.854,55.483z M46.15,54.738
	h-0.446c-0.49,0-0.892-0.401-0.892-0.892c0-0.49,0.402-0.891,0.892-0.891h0.446c0.491,0,0.892,0.401,0.892,0.891
	C47.042,54.337,46.641,54.738,46.15,54.738z M41.246,54.738H40.8c-0.49,0-0.892-0.401-0.892-0.892c0-0.49,0.401-0.891,0.892-0.891
	h0.446c0.49,0,0.892,0.401,0.892,0.891C42.138,54.337,41.736,54.738,41.246,54.738z M36.342,54.738h-0.445
	c-0.491,0-0.892-0.401-0.892-0.892c0-0.49,0.401-0.891,0.892-0.891h0.445c0.491,0,0.892,0.401,0.892,0.891
	C37.233,54.337,36.833,54.738,36.342,54.738z M31.438,54.738h-0.446c-0.49,0-0.892-0.401-0.892-0.892
	c0-0.49,0.401-0.891,0.892-0.891h0.446c0.49,0,0.892,0.401,0.892,0.891C32.33,54.337,31.928,54.738,31.438,54.738z M26.534,54.738
	h-0.446c-0.49,0-0.892-0.401-0.892-0.892c0-0.49,0.401-0.891,0.892-0.891h0.446c0.49,0,0.891,0.401,0.891,0.891
	C27.425,54.337,27.024,54.738,26.534,54.738z M21.63,54.738h-0.446c-0.49,0-0.892-0.401-0.892-0.892c0-0.49,0.402-0.891,0.892-0.891
	h0.446c0.491,0,0.892,0.401,0.892,0.891C22.521,54.337,22.121,54.738,21.63,54.738z M18.197,52.18c-0.49,0-0.892-0.397-0.892-0.892
	v-0.446c0-0.49,0.401-0.892,0.892-0.892c0.491,0,0.892,0.401,0.892,0.892v0.446C19.089,51.783,18.688,52.18,18.197,52.18z
	 M18.197,47.28c-0.49,0-0.892-0.402-0.892-0.892v-0.446c0-0.495,0.401-0.892,0.892-0.892c0.491,0,0.892,0.396,0.892,0.892v0.446
	C19.089,46.878,18.688,47.28,18.197,47.28z M18.197,42.376c-0.49,0-0.892-0.402-0.892-0.896v-0.446c0-0.49,0.401-0.891,0.892-0.891
	c0.491,0,0.892,0.401,0.892,0.891v0.446C19.089,41.974,18.688,42.376,18.197,42.376z M18.197,37.467
	c-0.49,0-0.892-0.397-0.892-0.887v-0.446c0-0.495,0.401-0.892,0.892-0.892c0.491,0,0.892,0.397,0.892,0.892v0.446
	C19.089,37.07,18.688,37.467,18.197,37.467z M18.197,32.568c-0.49,0-0.892-0.401-0.892-0.892V31.23c0-0.495,0.401-0.896,0.892-0.896
	c0.491,0,0.892,0.401,0.892,0.896v0.446C19.089,32.167,18.688,32.568,18.197,32.568z"/>
<path fill="#83BBE7" d="M122.168,60.187c-0.49,0-0.892-0.401-0.892-0.892v-0.446c0-0.491,0.401-0.892,0.892-0.892
	s0.892,0.401,0.892,0.892v0.446C123.06,59.786,122.658,60.187,122.168,60.187z M122.908,55.483c-0.236,0-0.46-0.094-0.629-0.263
	c-0.17-0.169-0.263-0.393-0.263-0.629s0.093-0.463,0.263-0.629c0.144-0.147,0.299-0.276,0.459-0.388
	c0.388-0.276,0.968-0.169,1.24,0.218c0.285,0.401,0.188,0.959-0.218,1.24c-0.072,0.053-0.14,0.112-0.206,0.174l-0.022,0.022
	C123.363,55.39,123.144,55.483,122.908,55.483z M152.578,54.738h-0.445c-0.491,0-0.893-0.401-0.893-0.892
	c0-0.49,0.401-0.891,0.893-0.891h0.445c0.489,0,0.892,0.401,0.892,0.891C153.47,54.337,153.067,54.738,152.578,54.738z
	 M147.674,54.738h-0.446c-0.489,0-0.892-0.401-0.892-0.892c0-0.49,0.402-0.891,0.892-0.891h0.446c0.49,0,0.892,0.401,0.892,0.891
	C148.565,54.337,148.164,54.738,147.674,54.738z M142.77,54.738h-0.445c-0.491,0-0.892-0.401-0.892-0.892
	c0-0.49,0.4-0.891,0.892-0.891h0.445c0.491,0,0.893,0.401,0.893,0.891C143.662,54.337,143.261,54.738,142.77,54.738z
	 M137.865,54.738h-0.445c-0.49,0-0.892-0.401-0.892-0.892c0-0.49,0.401-0.891,0.892-0.891h0.445c0.49,0,0.892,0.401,0.892,0.891
	C138.757,54.337,138.355,54.738,137.865,54.738z M132.962,54.738h-0.446c-0.49,0-0.892-0.401-0.892-0.892
	c0-0.49,0.401-0.891,0.892-0.891h0.446c0.49,0,0.892,0.401,0.892,0.891C133.854,54.337,133.452,54.738,132.962,54.738z
	 M128.058,54.738h-0.445c-0.491,0-0.892-0.401-0.892-0.892c0-0.49,0.4-0.891,0.892-0.891h0.445c0.49,0,0.891,0.401,0.891,0.891
	C128.948,54.337,128.548,54.738,128.058,54.738z M155.565,52.18c-0.49,0-0.892-0.397-0.892-0.892v-0.441
	c0-0.495,0.401-0.892,0.892-0.892c0.495,0,0.892,0.396,0.892,0.892v0.441C156.457,51.783,156.061,52.18,155.565,52.18z
	 M155.565,47.275c-0.49,0-0.892-0.397-0.892-0.892v-0.441c0-0.495,0.401-0.892,0.892-0.892c0.495,0,0.892,0.396,0.892,0.892v0.441
	C156.457,46.878,156.061,47.275,155.565,47.275z M155.565,42.376c-0.49,0-0.892-0.402-0.892-0.896v-0.441
	c0-0.495,0.401-0.892,0.892-0.892c0.495,0,0.892,0.397,0.892,0.892v0.441C156.457,41.974,156.061,42.376,155.565,42.376z
	 M155.565,37.472c-0.49,0-0.892-0.401-0.892-0.896v-0.441c0-0.495,0.401-0.892,0.892-0.892c0.495,0,0.892,0.397,0.892,0.892v0.441
	C156.457,37.07,156.061,37.472,155.565,37.472z M155.565,32.568c-0.49,0-0.892-0.401-0.892-0.892V31.23
	c0-0.495,0.401-0.891,0.892-0.891c0.495,0,0.892,0.396,0.892,0.891v0.446C156.457,32.167,156.061,32.568,155.565,32.568z"/>
<path fill-rule="evenodd" clip-rule="evenodd" fill="#55514F" d="M38.962,61.943H130.7c1.907,0,3.468,1.562,3.468,3.471v50.622
	c0,1.909-1.561,3.469-3.468,3.469H38.962c-1.908,0-3.469-1.56-3.469-3.469V65.414C35.493,63.505,37.054,61.943,38.962,61.943"/>
<rect x="39.81" y="66.263" fill-rule="evenodd" clip-rule="evenodd" fill="#EDECED" width="90.042" height="48.926"/>
<rect x="39.81" y="66.261" fill-rule="evenodd" clip-rule="evenodd" fill="#D6D4D4" width="90.042" height="6.861"/>
<rect x="45.345" y="68.825" fill-rule="evenodd" clip-rule="evenodd" fill="#FFFFFF" width="82.452" height="1.733"/>
<rect x="74.681" y="117.645" fill-rule="evenodd" clip-rule="evenodd" fill="#55514F" width="20.3" height="5.781"/>
<rect x="64.059" y="122.264" fill-rule="evenodd" clip-rule="evenodd" fill="#55514F" width="41.543" height="2.44"/>
<rect x="51.118" y="85.151" fill-rule="evenodd" clip-rule="evenodd" fill="#D3D1D1" width="8.894" height="4.415"/>
<rect x="63.275" y="85.151" fill-rule="evenodd" clip-rule="evenodd" fill="#D3D1D1" width="60.015" height="4.415"/>
<rect x="51.118" y="78.012" fill-rule="evenodd" clip-rule="evenodd" fill="#D3D1D1" width="8.894" height="4.415"/>
<rect x="63.275" y="78.012" fill-rule="evenodd" clip-rule="evenodd" fill="#D3D1D1" width="60.015" height="4.415"/>
<rect x="51.118" y="91.576" fill-rule="evenodd" clip-rule="evenodd" fill="#D3D1D1" width="8.894" height="4.414"/>
<rect x="63.275" y="91.576" fill-rule="evenodd" clip-rule="evenodd" fill="#D3D1D1" width="60.015" height="4.414"/>
<rect x="51.118" y="98.199" fill-rule="evenodd" clip-rule="evenodd" fill="#D3D1D1" width="8.894" height="4.415"/>
<rect x="63.275" y="98.199" fill-rule="evenodd" clip-rule="evenodd" fill="#D3D1D1" width="60.015" height="4.415"/>
<rect x="51.118" y="104.577" fill-rule="evenodd" clip-rule="evenodd" fill="#D3D1D1" width="8.894" height="4.415"/>
<rect x="44.695" y="85.151" fill-rule="evenodd" clip-rule="evenodd" fill="#D3D1D1" width="4.009" height="4.415"/>
<rect x="44.695" y="78.012" fill-rule="evenodd" clip-rule="evenodd" fill="#D3D1D1" width="4.009" height="4.415"/>
<rect x="45.968" y="79.414" fill-rule="evenodd" clip-rule="evenodd" fill="#EDECED" width="1.463" height="1.611"/>
<rect x="45.968" y="86.554" fill-rule="evenodd" clip-rule="evenodd" fill="#EDECED" width="1.463" height="1.61"/>
<rect x="44.695" y="91.576" fill-rule="evenodd" clip-rule="evenodd" fill="#D3D1D1" width="4.009" height="4.414"/>
<rect x="44.695" y="98.199" fill-rule="evenodd" clip-rule="evenodd" fill="#D3D1D1" width="4.009" height="4.415"/>
<rect x="44.695" y="104.577" fill-rule="evenodd" clip-rule="evenodd" fill="#D3D1D1" width="4.009" height="4.415"/>
<rect x="63.275" y="104.577" fill-rule="evenodd" clip-rule="evenodd" fill="#D3D1D1" width="60.015" height="4.415"/>
<path fill-rule="evenodd" clip-rule="evenodd" fill="#FFFFFF" d="M43.986,69.692c0,0.477-0.388,0.864-0.866,0.864
	c-0.479,0-0.865-0.388-0.865-0.864c0-0.479,0.387-0.866,0.865-0.866C43.598,68.826,43.986,69.214,43.986,69.692"/>
<rect x="45.968" y="92.979" fill-rule="evenodd" clip-rule="evenodd" fill="#EDECED" width="1.463" height="1.611"/>
<rect x="45.968" y="99.601" fill-rule="evenodd" clip-rule="evenodd" fill="#EDECED" width="1.463" height="1.611"/>
<rect x="45.968" y="105.977" fill-rule="evenodd" clip-rule="evenodd" fill="#EDECED" width="1.463" height="1.612"/>
<polygon fill-rule="evenodd" clip-rule="evenodd" fill="#C1D8EC" points="9.099,33.015 0,17.255 9.099,1.497 27.295,1.497 
	36.395,17.255 27.295,33.015 "/>
<path fill="#33414F" d="M20.283,26.062c0,0,3.462,0.506,3.974,1.039c0.445,0.464,1.37,4.905,1.584,5.881H18.02V26.25L20.283,26.062z
	"/>
<rect x="16.2" y="23.683" fill="#DEAE91" width="3.641" height="3.992"/>
<path fill="#EDC7AF" d="M18.02,12.258c1.769,0,4.564,1.004,4.564,5.714c0,2.719-0.886,4.501-1.273,4.994
	c-0.355,0.454-2.353,1.419-3.292,1.419V12.258z"/>
<path fill="#EDC7AF" d="M23.465,19.096c0.077-0.752-0.282-1.42-0.802-1.493c-0.521-0.071-1.005,0.481-1.083,1.234
	c-0.077,0.752,0.281,1.42,0.801,1.492C22.901,20.399,23.386,19.847,23.465,19.096"/>
<path fill="#F6DFC5" d="M18.021,12.258c-1.768,0-4.565,1.004-4.565,5.714c0,2.719,0.886,4.501,1.273,4.994
	c0.354,0.454,2.353,1.419,3.292,1.419V12.258z"/>
<path fill="#F6DFC5" d="M12.578,19.096c-0.079-0.752,0.281-1.42,0.801-1.493c0.52-0.071,1.006,0.481,1.083,1.234
	c0.078,0.752-0.281,1.42-0.801,1.492C13.141,20.399,12.656,19.847,12.578,19.096"/>
<path fill="#6D170E" d="M20.613,22.205c-0.914,0-1.568-0.743-2.615-0.743c-1.049,0-1.703,0.743-2.616,0.743
	c-1.002,0-1.633-1.728-1.822-2.333c0.257,1.743,0.849,2.884,1.147,3.262c0.354,0.455,2.351,1.42,3.291,1.42
	c0.936,0,2.935-0.966,3.292-1.42c0.296-0.378,0.889-1.52,1.146-3.263C22.247,20.474,21.616,22.205,20.613,22.205"/>
<path fill="#3A4852" d="M15.759,26.062c0,0-3.463,0.506-3.974,1.039c-0.446,0.464-1.371,4.905-1.585,5.881h7.82V26.25L15.759,26.062
	z"/>
<polyline fill="#C5CED7" points="20.324,25.969 18.02,26.25 15.717,25.969 18.02,32.981 "/>
<polygon fill="#B93638" points="17.786,26.927 17.325,31.668 18.021,32.981 18.717,31.668 18.257,26.927 "/>
<path fill="#2B2F32" d="M16.36,28.996l-1.832-2.719c0.501-0.181,1.04-0.318,1.604-0.411l1.889,7.115l-2.647-3.791L16.36,28.996z"/>
<path fill="#2B2F32" d="M19.682,28.996l1.832-2.719c-0.5-0.181-1.039-0.318-1.605-0.411l-1.888,7.115l2.647-3.791L19.682,28.996z"/>
<rect x="17.581" y="26.448" transform="matrix(0.7068 -0.7074 0.7074 0.7068 -13.7368 20.6301)" fill="#B93638" width="0.879" height="0.879"/>
<polygon fill="#FFFFFF" points="18.02,26.25 16.172,25.507 15.717,25.969 16.636,28.009 "/>
<polygon fill="#FFFFFF" points="18.02,26.25 19.87,25.507 20.324,25.969 19.405,28.009 "/>
<polygon fill="#FFFFFF" points="18.041,21.478 18.041,21.921 16.691,22.212 16.409,22.212 "/>
<polygon fill="#FFFFFF" points="18.027,21.478 18.027,21.921 19.378,22.212 19.66,22.212 "/>
<path fill="#5F3D29" d="M21.698,18.321c0.19-0.485,0.567-0.796,0.965-0.742c0,0,0.002,0,0.003,0
	c0.182-0.559,0.246-1.224-0.002-1.928c-1.315-3.748,0.179-4.417,0.179-4.417s-1.456-0.064-2.584,0.87
	c0.779-1.206,1.129-1.518,1.129-1.518s-1.635-0.35-3.388,1.44c0.389-0.974,0.856-1.468,0.856-1.468s-3.659,0.028-4.984,2.676
	c-0.755,1.509-0.814,3.146-0.63,4.381c0.044-0.017,0.09-0.029,0.138-0.036c0.172-0.024,0.341,0.022,0.492,0.12v-1.154
	c0.701-0.313,1.44-0.703,1.401-2.259h2.532h2.609c0,0-0.117,1.752,1.285,2.181V18.321z"/>
<polygon fill-rule="evenodd" clip-rule="evenodd" fill="#C1D8EC" points="75.321,38.97 64.072,19.485 75.321,0 97.819,0 
	109.069,19.485 97.819,38.97 "/>
<path fill="#4B2117" d="M93.278,23.886c0,3.688-2.99,1.775-6.679,1.775c-3.689,0-6.679,1.914-6.679-1.775v-6.038
	c0-3.688,2.99-6.679,6.679-6.679c3.688,0,6.679,2.99,6.679,6.679V23.886z"/>
<path fill="#4B2117" d="M93.441,17.906c0-3.763-3.051-6.813-6.813-6.813c-3.763,0-6.813,3.05-6.813,6.813
	c0,3.762,3.05,6.812,6.813,6.812C90.391,24.718,93.441,21.668,93.441,17.906"/>
<polygon fill="#EFD0B5" points="88.907,32.495 86.599,38.969 84.349,32.495 84.349,27.496 88.907,27.496 "/>
<path fill="#F6DFC5" d="M86.628,13.643c-2.214,0-5.713,1.259-5.713,7.154c0,3.405,1.327,5.01,1.81,5.626
	c0.445,0.567,2.729,2.402,3.903,2.402V13.643z"/>
<path fill="#F6DFC5" d="M79.813,22.203c-0.098-0.941,0.352-1.778,1.002-1.867c0.652-0.089,1.259,0.603,1.357,1.543
	c0.097,0.942-0.352,1.778-1.003,1.868C80.518,23.836,79.911,23.145,79.813,22.203"/>
<path fill="#EDC7AF" d="M86.61,13.643c2.213,0,5.713,1.259,5.713,7.154c0,3.405-1.326,5.01-1.81,5.626
	c-0.446,0.567-2.729,2.402-3.903,2.402V13.643z"/>
<path fill="#EDC7AF" d="M93.442,22.203c0.098-0.941-0.351-1.778-1.002-1.867s-1.259,0.603-1.355,1.543
	c-0.099,0.942,0.351,1.778,1.003,1.868C92.738,23.836,93.346,23.145,93.442,22.203"/>
<path fill="#EFD0B5" d="M86.599,38.97v-6.227c0,0-1.701-0.421-2.075-1.798c-0.181-0.662-0.175-1.194-0.175-1.194
	s-3.719,1.256-4.548,2.553C79.11,34.36,78.92,38.97,78.92,38.97H86.599z"/>
<path fill="#EFD0B5" d="M86.599,38.97v-6.227c0,0,1.7-0.421,2.076-1.798c0.181-0.662,0.175-1.194,0.175-1.194
	s3.718,1.256,4.548,2.553c0.69,2.056,0.881,6.666,0.881,6.666H86.599z"/>
<path fill="#FFFFFF" d="M86.628,26.75c0.863,0,1.563-0.53,1.563-1.184h-3.125C85.066,26.22,85.765,26.75,86.628,26.75"/>
<path fill="#4B2117" d="M86.306,11.946c-4.044,0-5.274,3.543-5.274,5.175c-1.467,2.038,0.132,3.862,1.264,4.503v-1.003
	c0-1.318,1.253-2.54,3.137-2.335c1.687,0.181,2.75-0.772,3.647-2.393C90.189,13.722,88.806,11.946,86.306,11.946"/>
<path fill="#4B2117" d="M88.907,15.226c0,0,0.946,3.836,3.533,5.109c0.461-3.449,0.732-2.722,0-4.538
	c-0.731-1.817-3.533-3.166-3.533-3.166V15.226z"/>
<path fill="#84BBE6" d="M86.599,38.97v-5.237l-2.25-3.982c0,0-3.719,1.256-4.548,2.553C79.11,34.36,78.92,38.97,78.92,38.97H86.599z
	"/>
<path fill="#6BAEDF" d="M86.599,38.97v-5.237l2.251-3.982c0,0,3.718,1.256,4.548,2.553c0.69,2.056,0.881,6.666,0.881,6.666H86.599z"
	/>
<polygon fill="#FFFFFF" points="86.599,33.733 84.349,29.75 82.281,30.412 84.042,34.36 "/>
<polygon fill="#FFFFFF" points="86.599,33.733 88.85,29.75 90.918,30.412 89.157,34.36 "/>
<polygon fill-rule="evenodd" clip-rule="evenodd" fill="#C1D8EC" points="156.188,101.51 147.552,86.553 156.188,71.595 
	173.46,71.595 182.096,86.553 173.46,101.51 "/>
<rect x="163.014" y="92.259" fill="#DEAE91" width="3.622" height="3.972"/>
<path fill="#CDDCE7" d="M167.075,94.626c0,0,3.445,0.503,3.954,1.033c0.443,0.462,1.364,4.881,1.576,5.851h-7.781v-6.697
	L167.075,94.626z"/>
<path fill="#EDC7AF" d="M164.824,80.89c1.759,0,4.542,1,4.542,5.687c0,2.705-0.883,4.479-1.268,4.969
	c-0.354,0.451-2.342,1.412-3.274,1.412V80.89z"/>
<path fill="#EDC7AF" d="M170.241,87.693c0.076-0.748-0.28-1.413-0.798-1.484c-0.518-0.07-0.999,0.479-1.077,1.228
	c-0.077,0.749,0.279,1.413,0.797,1.484S170.163,88.442,170.241,87.693"/>
<path fill="#F6DFC5" d="M164.824,80.89c-1.759,0-4.541,1-4.541,5.687c0,2.705,0.882,4.479,1.267,4.969
	c0.354,0.451,2.342,1.412,3.274,1.412V80.89z"/>
<path fill="#F6DFC5" d="M159.408,87.693c-0.077-0.748,0.279-1.413,0.797-1.484c0.518-0.07,1,0.479,1.078,1.228
	c0.077,0.749-0.28,1.413-0.798,1.484S159.485,88.442,159.408,87.693"/>
<path fill="#DAE8F2" d="M162.573,94.626c0,0-3.446,0.503-3.953,1.033c-0.444,0.462-1.365,4.881-1.577,5.851h7.781v-6.697
	L162.573,94.626z"/>
<polygon fill="#FFFFFF" points="164.824,94.813 162.985,94.073 162.532,94.533 163.446,96.563 "/>
<polygon fill="#FFFFFF" points="164.824,94.813 166.663,94.073 167.116,94.533 166.201,96.563 "/>
<path fill="#946237" d="M169.465,86.32c0,0,1.488-6.787-4.672-6.787c-6.192,0-4.638,6.601-4.638,6.601s0.847-0.484,0.847,1.682
	h0.155c0,0,0.299-1.453,0.391-2.755c2.178,0,4.104-0.279,5.723-1.619c0.92,0,1.046,1.146,1.046,2.021l-0.403,0.156
	c0,0,0.39,0.763,0.418,2.196h0.279C168.61,87.815,168.568,85.426,169.465,86.32"/>
<path fill="#FFFFFF" d="M164.824,91.19c0.819,0,1.484-0.271,1.484-0.605h-2.969C163.34,90.919,164.005,91.19,164.824,91.19"/>
<polygon fill-rule="evenodd" clip-rule="evenodd" fill="#C1D8EC" points="149.308,35.058 141.787,22.03 149.308,9.003 164.35,9.003 
	171.872,22.03 164.35,35.058 "/>
<path fill="#4B2117" d="M153.087,22.94c0,1.72-0.944,1.765-0.877,2.904c0.075,1.262,1.062,1.264,1.062,2.131
	c0,0.867-0.907,1.839-0.104,2.772h3.876V20.229L153.087,22.94z"/>
<path fill="#4B2117" d="M160.998,22.94c0,1.72,0.943,1.765,0.876,2.904c-0.074,1.262-1.06,1.264-1.06,2.131
	c0,0.867,0.906,1.839,0.104,2.772h-3.878V20.229L160.998,22.94z"/>
<path fill="#4B2117" d="M161.556,21.162c0-2.482-2.012-4.494-4.494-4.494c-2.481,0-4.494,2.012-4.494,4.494
	c0,2.483,2.013,4.494,4.494,4.494C159.544,25.656,161.556,23.645,161.556,21.162"/>
<polygon fill="#EFD0B5" points="158.564,30.786 157.043,35.058 155.558,30.786 155.558,27.488 158.564,27.488 "/>
<path fill="#F6DFC5" d="M157.062,18.35c-1.46,0-3.769,0.83-3.769,4.72c0,2.245,0.875,3.304,1.194,3.711
	c0.293,0.374,1.801,1.584,2.574,1.584V18.35z"/>
<path fill="#F6DFC5" d="M152.565,23.997c-0.064-0.622,0.233-1.173,0.662-1.231c0.43-0.06,0.831,0.396,0.895,1.018
	c0.064,0.622-0.232,1.172-0.661,1.231C153.03,25.075,152.63,24.618,152.565,23.997"/>
<path fill="#EDC7AF" d="M157.05,18.35c1.46,0,3.77,0.83,3.77,4.72c0,2.245-0.876,3.304-1.195,3.711
	c-0.293,0.374-1.8,1.584-2.574,1.584V18.35z"/>
<path fill="#EDC7AF" d="M161.558,23.997c0.064-0.622-0.232-1.173-0.662-1.231c-0.43-0.06-0.83,0.396-0.895,1.018
	c-0.064,0.622,0.232,1.172,0.661,1.231C161.093,25.075,161.493,24.618,161.558,23.997"/>
<path fill="#EFD0B5" d="M157.043,35.058V30.95c0,0-1.122-0.278-1.369-1.187c-0.119-0.437-0.116-0.788-0.116-0.788
	s-2.452,0.829-3.001,1.685c-0.455,1.356-0.58,4.397-0.58,4.397H157.043z"/>
<path fill="#EFD0B5" d="M157.043,35.058V30.95c0,0,1.122-0.278,1.369-1.187c0.118-0.437,0.115-0.788,0.115-0.788
	s2.453,0.829,3.001,1.685c0.455,1.356,0.58,4.397,0.58,4.397H157.043z"/>
<path fill="#FFFFFF" d="M157.062,26.996c0.569,0,1.03-0.349,1.03-0.78h-2.061C156.031,26.646,156.492,26.996,157.062,26.996"/>
<path fill="#E30D2F" d="M157.043,33.451c0,0-1.081-2.703-1.485-4.476c-0.408,0.159-0.744,0.257-0.999,0.39
	c-1.215,2.557-1.266,5.692-1.266,5.692h3.75V33.451z"/>
<path fill="#C41723" d="M157.059,33.451c0,0,1.08-2.703,1.484-4.476c0.409,0.159,0.744,0.257,1.001,0.39
	c1.214,2.557,1.265,5.692,1.265,5.692h-3.75V33.451z"/>
<path fill="#4B2117" d="M156.85,17.231c-2.669,0-3.479,2.337-3.479,3.414c-0.968,1.345,0.088,2.548,0.834,2.97v-0.662
	c0-0.869,0.827-1.675,2.069-1.541c1.113,0.119,1.813-0.509,2.406-1.579C159.41,18.402,158.497,17.231,156.85,17.231"/>
<path fill="#4B2117" d="M158.564,19.395c0,0,0.624,2.531,2.331,3.371c0.304-2.275,0.484-1.795,0-2.994
	c-0.482-1.198-2.331-2.088-2.331-2.088V19.395z"/>
<polygon fill-rule="evenodd" clip-rule="evenodd" fill="#C1D8EC" points="5.82,124.863 0.279,115.268 5.82,105.671 16.901,105.671 
	22.441,115.268 16.901,124.863 "/>
<path fill="#51311E" d="M14.57,114.545c0-1.85-1.5-3.351-3.352-3.351c-1.851,0-3.352,1.501-3.352,3.351
	c0,1.853,1.501,3.353,3.352,3.353C13.07,117.897,14.57,116.397,14.57,114.545"/>
<polygon fill="#EFD0B5" points="12.34,121.723 11.204,124.908 10.097,121.723 10.097,119.264 12.34,119.264 "/>
<path fill="#F6DFC5" d="M11.218,112.449c-1.089,0-2.812,0.618-2.812,3.52c0,1.675,0.653,2.465,0.891,2.768
	c0.22,0.279,1.343,1.183,1.921,1.183V112.449z"/>
<path fill="#F6DFC5" d="M7.866,116.66c-0.048-0.464,0.173-0.875,0.493-0.919c0.321-0.043,0.62,0.297,0.668,0.76
	c0.048,0.463-0.173,0.874-0.494,0.919C8.212,117.464,7.913,117.124,7.866,116.66"/>
<path fill="#EDC7AF" d="M11.209,112.449c1.088,0,2.812,0.618,2.812,3.52c0,1.675-0.653,2.465-0.891,2.768
	c-0.22,0.279-1.343,1.183-1.92,1.183V112.449z"/>
<path fill="#EDC7AF" d="M14.571,116.66c0.048-0.464-0.174-0.875-0.493-0.919c-0.321-0.043-0.619,0.297-0.668,0.76
	c-0.048,0.463,0.174,0.874,0.494,0.919C14.225,117.464,14.523,117.124,14.571,116.66"/>
<path fill="#EFD0B5" d="M11.204,124.908v-3.063c0,0-0.836-0.207-1.021-0.886c-0.088-0.325-0.086-0.587-0.086-0.587
	s-1.829,0.618-2.238,1.256c-0.341,1.012-0.433,3.279-0.433,3.279H11.204z"/>
<path fill="#EFD0B5" d="M11.204,124.908v-3.063c0,0,0.837-0.207,1.021-0.886c0.089-0.325,0.086-0.587,0.086-0.587
	s1.829,0.618,2.238,1.256c0.34,1.012,0.433,3.279,0.433,3.279H11.204z"/>
<path fill="#EFD0B5" d="M11.204,124.908v-3.063c0,0-0.836-0.207-1.021-0.886c-0.088-0.325-0.086-0.587-0.086-0.587
	s-1.829,0.618-2.238,1.256c-0.341,1.012-0.433,3.279-0.433,3.279H11.204z"/>
<path fill="#EFD0B5" d="M11.204,124.908v-3.063c0,0,0.837-0.207,1.021-0.886c0.089-0.325,0.086-0.587,0.086-0.587
	s1.829,0.618,2.238,1.256c0.34,1.012,0.433,3.279,0.433,3.279H11.204z"/>
<path fill="#FFFFFF" d="M11.218,118.896c0.424,0,0.769-0.261,0.769-0.583H10.45C10.45,118.636,10.793,118.896,11.218,118.896"/>
<path fill="#51311E" d="M11.06,111.614c-1.989,0-2.594,1.743-2.594,2.545c-0.722,1.003,0.065,1.901,0.622,2.216v-0.493
	c0-0.648,0.617-1.248,1.543-1.148c0.831,0.088,1.354-0.381,1.795-1.179C12.97,112.487,12.29,111.614,11.06,111.614"/>
<path fill="#51311E" d="M12.34,113.228c0,0,0.464,1.887,1.738,2.514c0.227-1.697,0.36-1.34,0-2.232
	c-0.361-0.894-1.738-1.558-1.738-1.558V113.228z"/>
<path fill="#F6A300" d="M14.549,121.629c-0.341-0.531-1.67-1.05-2.101-1.207c-0.025,0.665-0.573,1.197-1.244,1.197
	c-0.672,0-1.218-0.532-1.244-1.197c-0.432,0.157-1.76,0.676-2.101,1.207c-0.341,1.013-0.433,3.279-0.433,3.279h3.778h3.778
	C14.982,124.908,14.889,122.642,14.549,121.629"/>
<path fill="#F28D00" d="M14.982,124.908c0,0-0.093-2.268-0.433-3.279c-0.34-0.531-1.67-1.05-2.101-1.207
	c-0.025,0.665-0.573,1.197-1.245,1.197v3.289H14.982z"/>
<path fill="#3EAB37" d="M9.549,120.581c0.125,0.802,0.818,1.415,1.655,1.415s1.53-0.613,1.654-1.415
	c-0.168-0.069-0.312-0.123-0.41-0.159c-0.025,0.665-0.573,1.197-1.244,1.197s-1.218-0.532-1.244-1.197
	C9.862,120.458,9.718,120.512,9.549,120.581"/>
<path fill="#51311E" d="M12.34,111.194c0-0.619-0.501-1.121-1.122-1.121c-0.619,0-1.121,0.502-1.121,1.121
	c0,0.618,0.502,1.121,1.121,1.121C11.838,112.315,12.34,111.813,12.34,111.194"/>
</svg>
