<?xml version="1.0" encoding="utf-8"?>
<!-- Generator: Adobe Illustrator 19.1.0, SVG Export Plug-In . SVG Version: 6.00 Build 0)  -->
<svg version="1.1" id="JIRA_-_Blue" xmlns="http://www.w3.org/2000/svg" xmlns:xlink="http://www.w3.org/1999/xlink" x="0px"
	 y="0px" viewBox="64 -48.7 483 267.7" style="enable-background:new 64 -48.7 483 267.7;" xml:space="preserve">
<style type="text/css">
	.st0{fill:#FFFFFF;}
</style>
<g>
	<g>
		<path class="st0" d="M302.9,8.3h-19.3c-1.7,0-3.1,1.4-3.1,3.2v117.6c0,1.7,1.4,3.1,3.1,3.1h19.3c1.7,0,3.1-1.4,3.1-3.1V11.5
			C306,9.7,304.6,8.3,302.9,8.3z"/>
		<path class="st0" d="M426.8,127l-26.9-38.8c11.6-4.8,17.5-14.9,17.5-30V42.4c0-23.6-12.3-34.1-39.9-34.1h-47.9
			c-1.7,0-3.1,1.4-3.1,3.2v117.6c0,1.7,1.4,3.1,3.1,3.1h19.3c1.7,0,3.1-1.4,3.1-3.1V92.2h19.8l26.9,38.7c0.6,0.8,1.6,1.4,2.6,1.4
			h23.1l0,0c1.7,0,3.1-1.4,3.1-3.1C427.5,128.3,427.2,127.6,426.8,127z M352,31.2h24.5c12.7,0,15.2,5,15.2,13v12
			c0,10-3.8,13.4-15.2,13.4H352V31.2z"/>
	</g>
	<path class="st0" d="M490.2,10.5c-0.4-1.3-1.6-2.2-3-2.2h-29.4c-1.4,0-2.6,0.9-3,2.2l-37.1,117.6c-0.3,1-0.1,2,0.5,2.8
		s1.5,1.3,2.5,1.3H441c1.4,0,2.6-0.9,3-2.3l25.5-86.5c0,0,0.7-2.2,3-2.2c2.4,0,2.9,2.2,2.9,2.2l11.9,41H471c-1.4,0-2.6,0.9-3,2.3
		l-4.6,16.2c-0.3,0.9-0.1,2,0.5,2.8s1.5,1.2,2.5,1.2h27.5l7.1,22.9c0.4,1.3,1.6,2.2,3,2.2h20.2c1,0,1.9-0.5,2.5-1.3s0.8-1.9,0.5-2.8
		L490.2,10.5z"/>
	<path class="st0" d="M257.6,8.3H238c-1.7,0-3,1.3-3,3v92c0,11.6-8.8,15.4-14.8,15.7c-0.8,0-1.7,0.5-2.3,1.3
		c-0.5,0.8-0.7,1.7-0.4,2.6l4.8,15.5c0.4,1.3,1.8,2.1,4,2.1c18.7,0,34.3-14.7,34.3-34.4V11.3c0-0.8-0.3-1.6-0.9-2.1
		C259.1,8.6,258.4,8.3,257.6,8.3z"/>
	<g>
		<g>
			<g>
				<g>
					<path class="st0" d="M106.1-23.8c-6,0-10.9,4.9-10.9,10.9S100.1-2,106.1-2S117-6.9,117-12.9C116.9-18.9,112.1-23.8,106.1-23.8
						L106.1-23.8L106.1-23.8z"/>
				</g>
			</g>
			<g>
				<g>
					<path class="st0" d="M177.5-23.8c-6,0-10.9,4.9-10.9,10.9S171.5-2,177.5-2s10.9-4.9,10.9-10.9S183.5-23.8,177.5-23.8
						L177.5-23.8L177.5-23.8z"/>
				</g>
			</g>
		</g>
		<g>
			<g>
				<path class="st0" d="M141.8-33.7c-6,0-10.9,4.9-10.9,10.9s4.9,10.9,10.9,10.9s10.9-4.9,10.9-10.9
					C152.7-28.9,147.8-33.7,141.8-33.7L141.8-33.7L141.8-33.7z"/>
			</g>
		</g>
	</g>
	<g>
		<path class="st0" d="M203.3,6.6c-0.6-0.5-1.3-0.7-2.1-0.7c-0.4,0-0.8,0.1-1.2,0.2c-7.4,2.8-14.8,5-21.7,6.5
			c-1.4,0.3-2.5,1.4-3,2.6c-5,13.6-17.7,26.6-31,40.2c-0.5,0.5-1.3,1.2-2.5,1.2s-2-0.6-2.5-1.2c-13.3-13.6-26-26.5-31-40.2
			c-0.5-1.2-1.6-2.3-3-2.6C98.5,11,91,8.8,83.6,6c-0.4-0.2-0.8-0.2-1.2-0.2c-0.7,0-1.5,0.2-2.1,0.7c-0.9,0.7-1.4,1.9-1.3,3
			c1.1,11.3,5.6,22.4,13.7,34c7.6,10.9,17.5,21,27.1,30.8c17.6,18,34.3,35,35.8,54.7c0.1,1.8,1.6,3.2,3.4,3.2h20.7
			c0.9,0,1.8-0.4,2.5-1.1c0.6-0.7,1-1.6,0.9-2.5c-0.7-13.2-5.6-26.4-15.2-40.4c-2-2.9-4.1-5.8-6.4-8.6c-0.9-1.1-0.5-2.5,0.2-3.3
			c0.7-0.7,1.4-1.4,2.1-2.1c9.6-9.8,19.5-19.9,27.1-30.8c8.1-11.6,12.6-22.6,13.7-34C204.7,8.5,204.2,7.3,203.3,6.6z"/>
		<g>
			<path class="st0" d="M119.5,89.7c-0.5-0.5-1.2-1-2.4-1c-1.5,0-2.5,1.1-2.8,1.6c-8.7,13.3-13.2,25.8-13.8,38.4
				c0,0.9,0.3,1.9,0.9,2.5c0.6,0.7,1.5,1.1,2.5,1.1h20.7c1.8,0,3.3-1.4,3.4-3.2c0.5-6.1,2.3-12.1,5.8-18.5c1.2-2.2,0.3-4.3-0.4-5.2
				C129.9,100.9,125.8,96.2,119.5,89.7z"/>
		</g>
		<path class="st0" d="M141.8,16.7c6.5,0,10.3-0.4,11.6-0.4c1.6,0,3.1,1.3,3.1,3.2c0,0.5-0.1,0.9-0.3,1.3
			c-0.9,2.3-4.8,10.6-12.1,17.7c-0.8,0.8-1.8,0.9-2.4,0.9l0,0c-0.6,0-1.6-0.1-2.4-0.9c-7.3-7.1-11.2-15.4-12.1-17.7
			c-0.1-0.3-0.3-0.7-0.3-1.3c0-1.8,1.5-3.2,3.1-3.2C131.5,16.3,135.3,16.7,141.8,16.7L141.8,16.7z"/>
	</g>
</g>
</svg>
