<?xml version="1.0" encoding="UTF-8"?>
<svg width="1280px" height="1280px" viewBox="0 0 1280 1280" version="1.1" xmlns="http://www.w3.org/2000/svg" xmlns:xlink="http://www.w3.org/1999/xlink">
    <!-- Generator: Sketch 43.2 (39069) - http://www.bohemiancoding.com/sketch -->
    <title>shutterstock_569963134</title>
    <desc>Created with Sketch.</desc>
    <defs></defs>
    <g id="Page-1" stroke="none" stroke-width="1" fill="none" fill-rule="evenodd">
        <g id="shutterstock_569963134">
            <polygon id="Fill-1" fill="#FFFFFF" points="0.06 1280 1280 1280 1280 0 0.06 0"></polygon>
            <path d="M611.768,381.457 L180.738,381.457 C165.114,381.457 152.33,368.673 152.33,353.048 L152.33,341.656 C152.33,326.031 165.114,313.247 180.738,313.247 L611.768,313.247 C627.393,313.247 640.176,326.031 640.176,341.656 L640.176,353.048 C640.176,368.673 627.393,381.457 611.768,381.457" id="Fill-3" fill="#DFF2FE"></path>
            <path d="M647.056,289.699 L474.245,289.699 C459.283,289.699 447.042,277.457 447.042,262.496 C447.042,247.535 459.283,235.294 474.245,235.294 L647.056,235.294 C662.018,235.294 674.259,247.535 674.259,262.496 C674.259,277.457 662.018,289.699 647.056,289.699" id="Fill-4" fill="#DFF2FE"></path>
            <path d="M679.391,456.974 L506.579,456.974 C491.618,456.974 479.377,444.733 479.377,429.772 C479.377,414.81 491.618,402.569 506.579,402.569 L679.391,402.569 C694.352,402.569 706.594,414.81 706.594,429.772 C706.594,444.733 694.352,456.974 679.391,456.974" id="Fill-5" fill="#DFF2FE"></path>
            <path d="M588.616,404.734 C580.19,404.734 573.36,399.523 573.36,393.095 C573.36,386.668 580.19,381.457 588.616,381.457 L522.055,381.457 C530.481,381.457 537.311,386.668 537.311,393.095 C537.311,399.523 530.481,404.734 522.055,404.734 L588.616,404.734" id="Fill-6" fill="#DFF2FE"></path>
            <path d="M610.177,313.997 C601.382,313.997 594.253,308.558 594.253,301.848 C594.253,295.138 601.382,289.699 610.177,289.699 L540.699,289.699 C549.493,289.699 556.623,295.138 556.623,301.848 C556.623,308.558 549.493,313.997 540.699,313.997 L610.177,313.997" id="Fill-7" fill="#DFF2FE"></path>
            <path d="M192.946,722.001 L623.975,722.001 C639.6,722.001 652.384,734.785 652.384,750.409 L652.384,761.802 C652.384,777.426 639.6,790.21 623.975,790.21 L192.946,790.21 C177.321,790.21 164.537,777.426 164.537,761.802 L164.537,750.409 C164.537,734.785 177.321,722.001 192.946,722.001" id="Fill-8" fill="#DFF2FE"></path>
            <path d="M157.657,813.759 L330.469,813.759 C345.43,813.759 357.672,826 357.672,840.961 C357.672,855.923 345.43,868.164 330.469,868.164 L157.657,868.164 C142.696,868.164 130.455,855.923 130.455,840.961 C130.455,826 142.696,813.759 157.657,813.759" id="Fill-9" fill="#DFF2FE"></path>
            <path d="M125.323,646.483 L298.134,646.483 C313.096,646.483 325.337,658.724 325.337,673.686 C325.337,688.647 313.096,700.888 298.134,700.888 L125.323,700.888 C110.361,700.888 98.12,688.647 98.12,673.686 C98.12,658.724 110.361,646.483 125.323,646.483" id="Fill-10" fill="#DFF2FE"></path>
            <path d="M216.098,698.723 C224.523,698.723 231.353,703.934 231.353,710.362 C231.353,716.79 224.523,722.001 216.098,722.001 L282.658,722.001 C274.233,722.001 267.403,716.79 267.403,710.362 C267.403,703.934 274.233,698.723 282.658,698.723 L216.098,698.723" id="Fill-11" fill="#DFF2FE"></path>
            <path d="M194.537,789.46 C203.331,789.46 210.46,794.9 210.46,801.61 C210.46,808.319 203.331,813.759 194.537,813.759 L264.015,813.759 C255.22,813.759 248.091,808.319 248.091,801.61 C248.091,794.9 255.22,789.46 264.015,789.46 L194.537,789.46" id="Fill-12" fill="#DFF2FE"></path>
            <path d="M723.442,467.605 L1154.47,467.605 C1170.1,467.605 1182.88,480.389 1182.88,496.014 L1182.88,507.406 C1182.88,523.031 1170.1,535.815 1154.47,535.815 L723.442,535.815 C707.817,535.815 695.034,523.031 695.034,507.406 L695.034,496.014 C695.034,480.389 707.817,467.605 723.442,467.605" id="Fill-13" fill="#DFF2FE"></path>
            <path d="M688.154,559.363 L860.965,559.363 C875.927,559.363 888.168,571.604 888.168,586.566 C888.168,601.527 875.927,613.769 860.965,613.769 L688.154,613.769 C673.192,613.769 660.951,601.527 660.951,586.566 C660.951,571.604 673.192,559.363 688.154,559.363" id="Fill-14" fill="#DFF2FE"></path>
            <path d="M655.819,392.088 L828.631,392.088 C843.592,392.088 855.833,404.329 855.833,419.29 C855.833,434.252 843.592,446.493 828.631,446.493 L655.819,446.493 C640.857,446.493 628.616,434.252 628.616,419.29 C628.616,404.329 640.857,392.088 655.819,392.088" id="Fill-15" fill="#DFF2FE"></path>
            <path d="M746.594,444.328 C755.019,444.328 761.849,449.538 761.849,455.966 C761.849,462.395 755.019,467.605 746.594,467.605 L813.154,467.605 C804.729,467.605 797.899,462.395 797.899,455.966 C797.899,449.538 804.729,444.328 813.154,444.328 L746.594,444.328" id="Fill-16" fill="#DFF2FE"></path>
            <path d="M725.033,535.065 C733.827,535.065 740.957,540.504 740.957,547.214 C740.957,553.924 733.827,559.363 725.033,559.363 L794.511,559.363 C785.716,559.363 778.587,553.924 778.587,547.214 C778.587,540.504 785.716,535.065 794.511,535.065 L725.033,535.065" id="Fill-17" fill="#DFF2FE"></path>
            <path d="M997.786,981.805 L566.756,981.805 C551.132,981.805 538.348,969.021 538.348,953.397 L538.348,942.004 C538.348,926.38 551.132,913.596 566.756,913.596 L997.786,913.596 C1013.41,913.596 1026.19,926.38 1026.19,942.004 L1026.19,953.397 C1026.19,969.021 1013.41,981.805 997.786,981.805" id="Fill-18" fill="#DFF2FE"></path>
            <path d="M1033.07,890.047 L860.262,890.047 C845.301,890.047 833.06,877.806 833.06,862.845 C833.06,847.883 845.301,835.642 860.262,835.642 L1033.07,835.642 C1048.04,835.642 1060.28,847.883 1060.28,862.845 C1060.28,877.806 1048.04,890.047 1033.07,890.047" id="Fill-19" fill="#DFF2FE"></path>
            <path d="M1065.41,1057.32 L892.597,1057.32 C877.636,1057.32 865.395,1045.08 865.395,1030.12 C865.395,1015.16 877.636,1002.92 892.597,1002.92 L1065.41,1002.92 C1080.37,1002.92 1092.61,1015.16 1092.61,1030.12 C1092.61,1045.08 1080.37,1057.32 1065.41,1057.32" id="Fill-20" fill="#DFF2FE"></path>
            <path d="M974.633,1005.08 C966.208,1005.08 959.378,999.872 959.378,993.444 C959.378,987.016 966.208,981.805 974.633,981.805 L908.073,981.805 C916.499,981.805 923.329,987.016 923.329,993.444 C923.329,999.872 916.499,1005.08 908.073,1005.08 L974.633,1005.08" id="Fill-21" fill="#DFF2FE"></path>
            <path d="M996.195,914.346 C987.4,914.346 980.271,908.906 980.271,902.196 C980.271,895.487 987.4,890.047 996.195,890.047 L926.717,890.047 C935.511,890.047 942.641,895.487 942.641,902.196 C942.641,908.906 935.511,914.346 926.717,914.346 L996.195,914.346" id="Fill-22" fill="#DFF2FE"></path>
            <path d="M979.502,876.625 L979.502,512.05 C979.502,505.45 974.102,500.05 967.502,500.05 L367.128,500.05 C360.528,500.05 355.128,505.45 355.128,512.05 L355.128,876.625 L979.502,876.625" id="Fill-23" fill="#FFFFFF"></path>
            <path d="M979.502,878.625 C978.397,878.625 977.502,877.729 977.502,876.625 L977.502,512.05 C977.502,506.536 973.016,502.05 967.502,502.05 L367.128,502.05 C361.614,502.05 357.128,506.536 357.128,512.05 L357.128,876.625 C357.128,877.729 356.232,878.625 355.128,878.625 C354.023,878.625 353.128,877.729 353.128,876.625 L353.128,512.05 C353.128,504.33 359.408,498.05 367.128,498.05 L967.502,498.05 C975.222,498.05 981.502,504.33 981.502,512.05 L981.502,876.625 C981.502,877.729 980.606,878.625 979.502,878.625" id="Fill-24" fill="#6A79A8"></path>
            <polygon id="Fill-25" fill="#FFFFFF" points="389.426 857.077 945.205 857.077 945.205 526.746 389.426 526.746"></polygon>
            <path d="M742.133,890.803 L592.497,890.803 C584.673,890.803 578.33,884.46 578.33,876.636 L756.3,876.636 C756.3,884.46 749.958,890.803 742.133,890.803 Z M291.63,876.625 L291.63,878.671 C291.63,896.403 306.004,910.777 323.736,910.777 L1010.85,910.777 C1028.61,910.777 1043,896.383 1043,878.627 L1043,876.625 L291.63,876.625 L291.63,876.625 Z" id="Fill-26" fill="#FFFFFF"></path>
            <path d="M580.494,878.636 C581.451,884.396 586.469,888.803 592.497,888.803 L742.133,888.803 C748.161,888.803 753.18,884.396 754.137,878.636 L580.494,878.636 Z M293.63,878.625 L293.63,878.672 C293.63,895.272 307.136,908.777 323.736,908.777 L1010.85,908.777 C1027.47,908.777 1041,895.252 1041,878.627 L1041,878.625 L758.179,878.625 C757.195,886.604 750.374,892.803 742.133,892.803 L592.497,892.803 C584.256,892.803 577.435,886.604 576.451,878.625 L293.63,878.625 Z M1010.85,912.777 L323.736,912.777 C304.93,912.777 289.63,897.477 289.63,878.672 L289.63,876.625 C289.63,875.52 290.526,874.625 291.63,874.625 L1043,874.625 C1044.1,874.625 1045,875.52 1045,876.625 L1045,878.627 C1045,897.458 1029.68,912.777 1010.85,912.777 L1010.85,912.777 Z" id="Fill-27" fill="#6A79A8"></path>
            <path d="M391.426,855.077 L943.205,855.077 L943.205,528.746 L391.426,528.746 L391.426,855.077 Z M945.205,859.077 L389.426,859.077 C388.321,859.077 387.426,858.182 387.426,857.077 L387.426,526.746 C387.426,525.642 388.321,524.746 389.426,524.746 L945.205,524.746 C946.31,524.746 947.205,525.642 947.205,526.746 L947.205,857.077 C947.205,858.182 946.31,859.077 945.205,859.077 L945.205,859.077 Z" id="Fill-28" fill="#6A79A8"></path>
            <path d="M720.036,468.074 C719.925,468.074 719.811,468.064 719.697,468.045 C718.608,467.859 717.877,466.826 718.063,465.737 C720.902,449.102 735.229,437.029 752.131,437.029 C753.235,437.029 754.131,437.924 754.131,439.029 C754.131,440.133 753.235,441.029 752.131,441.029 C737.185,441.029 724.516,451.703 722.006,466.41 C721.839,467.385 720.993,468.074 720.036,468.074" id="Fill-29" fill="#6A79A8"></path>
            <path d="M462.732,735.084 L453.036,735.084 C450.275,735.084 448.036,732.846 448.036,730.084 C448.036,727.322 450.275,725.084 453.036,725.084 L462.732,725.084 C465.494,725.084 467.732,727.322 467.732,730.084 C467.732,732.846 465.494,735.084 462.732,735.084 Z M492.732,735.084 L477.732,735.084 C474.971,735.084 472.732,732.846 472.732,730.084 C472.732,727.322 474.971,725.084 477.732,725.084 L492.732,725.084 C495.494,725.084 497.732,727.322 497.732,730.084 C497.732,732.846 495.494,735.084 492.732,735.084 Z M522.732,735.084 L507.732,735.084 C504.971,735.084 502.732,732.846 502.732,730.084 C502.732,727.322 504.971,725.084 507.732,725.084 L522.732,725.084 C525.494,725.084 527.732,727.322 527.732,730.084 C527.732,732.846 525.494,735.084 522.732,735.084 Z M552.732,735.084 L537.732,735.084 C534.971,735.084 532.732,732.846 532.732,730.084 C532.732,727.322 534.971,725.084 537.732,725.084 L552.732,725.084 C555.494,725.084 557.732,727.322 557.732,730.084 C557.732,732.846 555.494,735.084 552.732,735.084 Z M582.732,735.084 L567.732,735.084 C564.971,735.084 562.732,732.846 562.732,730.084 C562.732,727.322 564.971,725.084 567.732,725.084 L582.732,725.084 C585.494,725.084 587.732,727.322 587.732,730.084 C587.732,732.846 585.494,735.084 582.732,735.084 Z M612.732,735.084 L597.732,735.084 C594.971,735.084 592.732,732.846 592.732,730.084 C592.732,727.322 594.971,725.084 597.732,725.084 L612.732,725.084 C615.494,725.084 617.732,727.322 617.732,730.084 C617.732,732.846 615.494,735.084 612.732,735.084 Z M642.732,735.084 L627.732,735.084 C624.971,735.084 622.732,732.846 622.732,730.084 C622.732,727.322 624.971,725.084 627.732,725.084 L642.732,725.084 C645.494,725.084 647.732,727.322 647.732,730.084 C647.732,732.846 645.494,735.084 642.732,735.084 Z M672.732,735.084 L657.732,735.084 C654.971,735.084 652.732,732.846 652.732,730.084 C652.732,727.322 654.971,725.084 657.732,725.084 L672.732,725.084 C675.494,725.084 677.732,727.322 677.732,730.084 C677.732,732.846 675.494,735.084 672.732,735.084 Z M702.732,735.084 L687.732,735.084 C684.971,735.084 682.732,732.846 682.732,730.084 C682.732,727.322 684.971,725.084 687.732,725.084 L702.732,725.084 C705.494,725.084 707.732,727.322 707.732,730.084 C707.732,732.846 705.494,735.084 702.732,735.084 Z M732.732,735.084 L717.732,735.084 C714.971,735.084 712.732,732.846 712.732,730.084 C712.732,727.322 714.971,725.084 717.732,725.084 L732.732,725.084 C735.494,725.084 737.732,727.322 737.732,730.084 C737.732,732.846 735.494,735.084 732.732,735.084 Z M762.732,735.084 L747.732,735.084 C744.971,735.084 742.732,732.846 742.732,730.084 C742.732,727.322 744.971,725.084 747.732,725.084 L762.732,725.084 C765.494,725.084 767.732,727.322 767.732,730.084 C767.732,732.846 765.494,735.084 762.732,735.084 Z M792.732,735.084 L777.732,735.084 C774.971,735.084 772.732,732.846 772.732,730.084 C772.732,727.322 774.971,725.084 777.732,725.084 L792.732,725.084 C795.494,725.084 797.732,727.322 797.732,730.084 C797.732,732.846 795.494,735.084 792.732,735.084 Z M822.732,735.084 L807.732,735.084 C804.971,735.084 802.732,732.846 802.732,730.084 C802.732,727.322 804.971,725.084 807.732,725.084 L822.732,725.084 C825.494,725.084 827.732,727.322 827.732,730.084 C827.732,732.846 825.494,735.084 822.732,735.084 Z M852.732,735.084 L837.732,735.084 C834.971,735.084 832.732,732.846 832.732,730.084 C832.732,727.322 834.971,725.084 837.732,725.084 L852.732,725.084 C855.494,725.084 857.732,727.322 857.732,730.084 C857.732,732.846 855.494,735.084 852.732,735.084 Z M882.732,735.084 L867.732,735.084 C864.971,735.084 862.732,732.846 862.732,730.084 C862.732,727.322 864.971,725.084 867.732,725.084 L882.732,725.084 C885.494,725.084 887.732,727.322 887.732,730.084 C887.732,732.846 885.494,735.084 882.732,735.084 L882.732,735.084 Z" id="Fill-30" fill="#FF9C81"></path>
            <polyline id="Fill-31" fill="#FF9C81" points="472.955 713.131 455.992 730.084 472.955 747.038 458.56 747.038 441.607 730.084 458.56 713.131 472.955 713.131"></polyline>
            <path d="M505.601,508.408 L505.601,842.358 C505.601,850.487 512.212,857.077 520.367,857.077 L821.253,857.077 C829.407,857.077 836.018,850.487 836.018,842.358 L836.018,790.311 L835.77,761.626 L835.77,444.491 C835.77,436.362 829.159,429.772 821.004,429.772 L584.236,429.772 L505.602,508.338 L505.601,508.408" id="Fill-32" fill="#FFFFFF"></path>
            <path d="M507.601,509.168 L507.601,842.357 C507.601,849.371 513.328,855.077 520.367,855.077 L821.253,855.077 C828.292,855.077 834.019,849.371 834.019,842.357 L834.019,790.31 L833.77,761.644 L833.77,444.491 C833.77,437.478 828.044,431.771 821.005,431.771 L585.064,431.771 L507.601,509.168 Z M821.253,859.077 L520.367,859.077 C511.122,859.077 503.601,851.577 503.601,842.357 L503.601,508.408 C503.601,508.394 503.601,508.38 503.602,508.366 L503.603,508.296 C503.614,507.78 503.824,507.288 504.189,506.923 L582.822,428.356 C583.197,427.982 583.706,427.771 584.236,427.771 L821.005,427.771 C830.249,427.771 837.77,435.272 837.77,444.491 L837.77,761.626 L838.019,790.293 L838.019,842.357 C838.019,851.577 830.497,859.077 821.253,859.077 L821.253,859.077 Z" id="Fill-33" fill="#6A79A8"></path>
            <path d="M722.974,613.157 L631.894,613.157 C628.907,613.157 626.486,610.736 626.486,607.749 C626.486,604.762 628.907,602.341 631.894,602.341 L722.974,602.341 C725.96,602.341 728.382,604.762 728.382,607.749 C728.382,610.736 725.96,613.157 722.974,613.157" id="Fill-34" fill="#BBDFF6"></path>
            <path d="M763.83,632.79 L576.414,632.79 C574.92,632.79 573.71,631.58 573.71,630.086 C573.71,628.593 574.92,627.382 576.414,627.382 L763.83,627.382 C765.323,627.382 766.534,628.593 766.534,630.086 C766.534,631.58 765.323,632.79 763.83,632.79" id="Fill-35" fill="#6A79A8"></path>
            <path d="M763.83,647.604 L576.414,647.604 C574.92,647.604 573.71,646.394 573.71,644.9 C573.71,643.407 574.92,642.196 576.414,642.196 L763.83,642.196 C765.323,642.196 766.534,643.407 766.534,644.9 C766.534,646.394 765.323,647.604 763.83,647.604" id="Fill-36" fill="#6A79A8"></path>
            <path d="M667.418,662.419 L576.414,662.419 C574.92,662.419 573.71,661.208 573.71,659.715 C573.71,658.221 574.92,657.011 576.414,657.011 L667.418,657.011 C668.911,657.011 670.122,658.221 670.122,659.715 C670.122,661.208 668.911,662.419 667.418,662.419" id="Fill-37" fill="#6A79A8"></path>
            <path d="M639.965,475.923 C639.014,475.923 638.241,476.596 638.241,477.423 C638.241,478.251 639.014,478.923 639.965,478.923 C640.916,478.923 641.689,478.251 641.689,477.423 C641.689,476.596 640.916,475.923 639.965,475.923 Z M639.965,482.923 C636.809,482.923 634.241,480.456 634.241,477.423 C634.241,474.391 636.809,471.923 639.965,471.923 C643.121,471.923 645.689,474.391 645.689,477.423 C645.689,480.456 643.121,482.923 639.965,482.923 L639.965,482.923 Z" id="Fill-38" fill="#6A79A8"></path>
            <path d="M721.97,475.923 C721.02,475.923 720.246,476.596 720.246,477.423 C720.246,478.251 721.02,478.923 721.97,478.923 C722.921,478.923 723.694,478.251 723.694,477.423 C723.694,476.596 722.921,475.923 721.97,475.923 Z M721.97,482.923 C718.813,482.923 716.246,480.456 716.246,477.423 C716.246,474.391 718.813,471.923 721.97,471.923 C725.126,471.923 727.694,474.391 727.694,477.423 C727.694,480.456 725.126,482.923 721.97,482.923 L721.97,482.923 Z" id="Fill-39" fill="#6A79A8"></path>
            <path d="M682.686,521.92 C666.248,521.92 650.354,516.01 637.93,505.279 C637.095,504.557 637.003,503.294 637.724,502.458 C638.446,501.623 639.71,501.53 640.545,502.252 C652.242,512.355 667.208,517.92 682.686,517.92 C697.487,517.92 711.944,512.782 723.394,503.454 C724.249,502.759 725.51,502.886 726.208,503.741 C726.905,504.598 726.776,505.857 725.921,506.556 C713.759,516.463 698.404,521.92 682.686,521.92" id="Fill-40" fill="#6A79A8"></path>
            <path d="M510.43,506.569 L568.897,506.569 C576.342,506.569 582.398,500.512 582.398,493.068 L582.398,434.6 L510.43,506.569 Z M568.897,510.569 L505.601,510.569 C504.792,510.569 504.063,510.081 503.753,509.334 C503.444,508.587 503.615,507.727 504.187,507.155 L582.984,428.357 C583.556,427.785 584.416,427.614 585.164,427.924 C585.911,428.233 586.398,428.962 586.398,429.771 L586.398,493.068 C586.398,502.718 578.547,510.569 568.897,510.569 L568.897,510.569 Z" id="Fill-41" fill="#6A79A8"></path>
            <path d="M673.999,394.556 C674.349,394.759 674.679,395.007 674.98,395.302 L682.571,402.711 C684.548,404.64 684.586,407.805 682.658,409.781 C680.729,411.757 677.559,411.793 675.588,409.867 L667.997,402.459 C666.02,400.53 665.982,397.365 667.911,395.388 C669.544,393.715 672.065,393.431 673.999,394.556" id="Fill-42" fill="#FF9C81"></path>
            <polyline id="Fill-43" fill="#FF9C81" points="652.984 404.51 676.965 404.225 676.665 380.244 686.967 390.299 687.259 414.272 663.286 414.564 652.984 404.51"></polyline>
            <polyline id="Fill-44" fill="#FF9C81" points="757.556 279.386 741.871 283.551 748.105 268.567 739.297 254.937 755.473 256.236 765.715 243.647 769.478 259.434 784.616 265.283 770.765 273.74 769.879 289.945 757.556 279.386"></polyline>
            <polygon id="Fill-45" fill="#6A79A8" points="930.928 312.682 936.928 312.682 936.928 297.818 930.928 297.818"></polygon>
            <polygon id="Fill-46" fill="#6A79A8" points="930.928 342.785 936.928 342.785 936.928 327.922 930.928 327.922"></polygon>
            <polygon id="Fill-47" fill="#6A79A8" points="911.353 323.207 926.217 323.207 926.217 317.207 911.353 317.207"></polygon>
            <polygon id="Fill-48" fill="#6A79A8" points="941.457 323.207 956.32 323.207 956.32 317.207 941.457 317.207"></polygon>
            <polygon id="Fill-49" fill="#6A79A8" points="371.758 252.028 377.758 252.028 377.758 237.165 371.758 237.165"></polygon>
            <polygon id="Fill-50" fill="#6A79A8" points="371.758 282.132 377.758 282.132 377.758 267.268 371.758 267.268"></polygon>
            <polygon id="Fill-51" fill="#6A79A8" points="352.183 262.553 367.046 262.553 367.046 256.553 352.183 256.553"></polygon>
            <polygon id="Fill-52" fill="#6A79A8" points="382.286 262.553 397.149 262.553 397.149 256.553 382.286 256.553"></polygon>
            <polyline id="Fill-53" fill="#C0ECFF" points="373.95 985 364.031 997.845 359.869 982.159 344.588 976.695 358.22 967.889 358.695 951.667 371.282 961.911 386.857 957.35 381.003 972.487 390.154 985.89 373.95 985"></polyline>
            <polygon id="Fill-54" fill="#FF9C81" points="1094.89 691.103 1100.89 691.103 1100.89 676.24 1094.89 676.24"></polygon>
            <polygon id="Fill-55" fill="#FF9C81" points="1094.89 721.206 1100.89 721.206 1100.89 706.343 1094.89 706.343"></polygon>
            <polygon id="Fill-56" fill="#FF9C81" points="1075.32 701.628 1090.18 701.628 1090.18 695.628 1075.32 695.628"></polygon>
            <polygon id="Fill-57" fill="#FF9C81" points="1105.42 701.628 1120.29 701.628 1120.29 695.628 1105.42 695.628"></polygon>
            <polyline id="Fill-58" fill="#BBDFF6" points="1084.33 934.242 1068.65 938.407 1074.88 923.424 1066.07 909.794 1082.25 911.093 1092.49 898.503 1096.25 914.29 1111.39 920.14 1097.54 928.597 1096.65 944.802 1084.33 934.242"></polyline>
            <path d="M229.276,444.652 C222.481,444.652 216.953,450.18 216.953,456.974 C216.953,463.769 222.481,469.297 229.276,469.297 C236.07,469.297 241.598,463.769 241.598,456.974 C241.598,450.18 236.07,444.652 229.276,444.652 Z M229.276,477.297 C218.07,477.297 208.953,468.18 208.953,456.974 C208.953,445.768 218.07,436.652 229.276,436.652 C240.481,436.652 249.598,445.768 249.598,456.974 C249.598,468.18 240.481,477.297 229.276,477.297 L229.276,477.297 Z" id="Fill-59" fill="#BBDFF6"></path>
            <path d="M1031.78,397.404 C1024.99,397.404 1019.46,402.932 1019.46,409.727 C1019.46,416.521 1024.99,422.049 1031.78,422.049 C1038.58,422.049 1044.1,416.521 1044.1,409.727 C1044.1,402.932 1038.58,397.404 1031.78,397.404 Z M1031.78,430.049 C1020.58,430.049 1011.46,420.932 1011.46,409.727 C1011.46,398.521 1020.58,389.404 1031.78,389.404 C1042.99,389.404 1052.1,398.521 1052.1,409.727 C1052.1,420.932 1042.99,430.049 1031.78,430.049 L1031.78,430.049 Z" id="Fill-60" fill="#BBDFF6"></path>
            <polygon id="Fill-61" fill="#FF9C81" points="205.045 905.3 211.045 905.3 211.045 890.436 205.045 890.436"></polygon>
            <polygon id="Fill-62" fill="#FF9C81" points="205.045 935.403 211.045 935.403 211.045 920.54 205.045 920.54"></polygon>
            <polygon id="Fill-63" fill="#FF9C81" points="185.47 915.825 200.333 915.825 200.333 909.825 185.47 909.825"></polygon>
            <polygon id="Fill-64" fill="#FF9C81" points="215.573 915.825 230.436 915.825 230.436 909.825 215.573 909.825"></polygon>
            <polygon id="Fill-65" fill="#6A79A8" points="684.083 1020.42 690.083 1020.42 690.083 1005.55 684.083 1005.55"></polygon>
            <polygon id="Fill-66" fill="#6A79A8" points="684.083 1050.52 690.083 1050.52 690.083 1035.66 684.083 1035.66"></polygon>
            <polygon id="Fill-67" fill="#6A79A8" points="664.508 1030.94 679.371 1030.94 679.371 1024.94 664.508 1024.94"></polygon>
            <polygon id="Fill-68" fill="#6A79A8" points="694.611 1030.94 709.474 1030.94 709.474 1024.94 694.611 1024.94"></polygon>
            <polyline id="Fill-84" fill="#FFFFFF" points="429.374 661.987 322.222 578.493 214.515 661.987 214.553 662.016 214.553 798.183 429.854 798.183 429.854 661.987 429.374 661.987"></polyline>
            <path d="M216.064,796.672 L428.343,796.672 L428.343,663.098 L322.22,580.406 L216.064,662.697 L216.064,796.672 Z M429.854,799.693 L214.554,799.693 C213.719,799.693 213.043,799.017 213.043,798.182 L213.043,662.233 C213.03,662.156 213.023,662.078 213.023,662 C213.024,661.533 213.221,661.078 213.59,660.792 L321.296,577.299 C321.844,576.876 322.606,576.876 323.151,577.301 L429.894,660.476 C430.709,660.497 431.365,661.165 431.365,661.986 L431.365,798.182 C431.365,799.017 430.688,799.693 429.854,799.693 L429.854,799.693 Z" id="Fill-85" fill="#6A79A8"></path>
            <path d="M216.064,796.672 L428.343,796.672 L428.343,663.497 L216.064,663.497 L216.064,796.672 Z M429.854,799.693 L214.554,799.693 C213.719,799.693 213.043,799.017 213.043,798.182 L213.043,661.986 C213.043,661.152 213.719,660.475 214.554,660.475 L429.854,660.475 C430.688,660.475 431.365,661.152 431.365,661.986 L431.365,798.182 C431.365,799.017 430.688,799.693 429.854,799.693 L429.854,799.693 Z" id="Fill-86" fill="#6A79A8"></path>
            <polyline id="Fill-87" fill="#FF9C81" points="429.854 662.361 322.222 578.493 214.515 661.987 286.908 718.193 358.548 718.38 429.854 662.361"></polyline>
            <path d="M287.427,716.683 L358.027,716.867 L427.401,662.365 L322.22,580.406 L216.98,661.987 L287.427,716.683 Z M358.548,719.891 L358.545,719.891 L286.904,719.704 C286.569,719.703 286.245,719.591 285.981,719.386 L213.589,663.18 C213.22,662.893 213.004,662.453 213.004,661.986 C213.004,661.519 213.22,661.078 213.59,660.792 L321.296,577.299 C321.844,576.876 322.606,576.876 323.151,577.301 L430.782,661.169 C431.149,661.454 431.364,661.893 431.365,662.357 C431.365,662.822 431.153,663.262 430.787,663.549 L359.482,719.568 C359.215,719.777 358.887,719.891 358.548,719.891 L358.548,719.891 Z" id="Fill-88" fill="#6A79A8"></path>
            <path d="M214.555,778.506 C214.115,778.506 213.679,778.315 213.38,777.947 C212.854,777.299 212.954,776.348 213.602,775.821 L286.098,717.019 C286.367,716.801 286.703,716.682 287.05,716.682 L357.393,716.682 C357.74,716.682 358.076,716.801 358.345,717.02 L430.805,775.822 C431.454,776.348 431.553,777.299 431.027,777.947 C430.502,778.596 429.549,778.694 428.902,778.168 L356.857,719.704 L287.586,719.704 L215.505,778.169 C215.225,778.396 214.889,778.506 214.555,778.506" id="Fill-89" fill="#6A79A8"></path>
            <path d="M484.121,323.564 C481.488,323.564 479.283,321.506 479.133,318.845 C478.979,316.087 481.088,313.727 483.845,313.572 C488.912,313.288 494.079,313.167 499.167,313.217 C501.928,313.245 504.144,315.506 504.116,318.267 C504.089,321.011 501.856,323.217 499.118,323.217 L499.067,323.217 C494.196,323.168 489.253,323.284 484.406,323.557 C484.311,323.562 484.215,323.564 484.121,323.564 Z M529.021,325.49 C528.784,325.49 528.545,325.473 528.304,325.438 C523.492,324.749 518.585,324.211 513.72,323.842 C510.966,323.633 508.903,321.232 509.112,318.478 C509.321,315.725 511.715,313.665 514.477,313.871 C519.563,314.257 524.693,314.818 529.724,315.54 C532.458,315.932 534.355,318.466 533.963,321.199 C533.606,323.692 531.467,325.49 529.021,325.49 Z M454.38,327.232 C452.03,327.232 449.935,325.567 449.476,323.174 C448.955,320.462 450.731,317.842 453.443,317.321 C458.439,316.362 463.533,315.561 468.584,314.939 C471.319,314.593 473.82,316.549 474.157,319.291 C474.495,322.031 472.546,324.526 469.806,324.864 C464.977,325.458 460.105,326.225 455.328,327.142 C455.01,327.203 454.693,327.232 454.38,327.232 Z M558.351,331.731 C557.898,331.731 557.438,331.669 556.981,331.539 C552.298,330.208 547.509,329.02 542.747,328.006 C540.046,327.432 538.322,324.776 538.896,322.076 C539.471,319.374 542.127,317.651 544.827,318.225 C549.809,319.285 554.818,320.528 559.715,321.92 C562.372,322.675 563.913,325.44 563.158,328.097 C562.532,330.296 560.529,331.731 558.351,331.731 Z M425.402,334.848 C423.313,334.848 421.365,333.529 420.663,331.439 C419.783,328.822 421.192,325.987 423.809,325.107 C428.629,323.487 433.57,322.009 438.495,320.715 C441.162,320.014 443.9,321.609 444.602,324.28 C445.303,326.951 443.707,329.685 441.037,330.387 C436.328,331.624 431.604,333.037 426.996,334.585 C426.467,334.763 425.93,334.848 425.402,334.848 Z M586.571,341.857 C585.902,341.857 585.224,341.722 584.572,341.438 C580.109,339.488 575.524,337.667 570.943,336.023 C568.344,335.091 566.993,332.228 567.926,329.628 C568.857,327.03 571.722,325.681 574.32,326.61 C579.111,328.33 583.907,330.235 588.575,332.273 C591.105,333.379 592.261,336.326 591.155,338.857 C590.334,340.736 588.498,341.857 586.571,341.857 Z M397.723,346.277 C395.88,346.277 394.108,345.255 393.236,343.491 C392.013,341.015 393.029,338.017 395.505,336.793 C400.06,334.543 404.752,332.418 409.451,330.477 C412.005,329.422 414.927,330.637 415.981,333.189 C417.036,335.741 415.822,338.665 413.27,339.719 C408.775,341.576 404.289,343.608 399.934,345.759 C399.222,346.111 398.467,346.277 397.723,346.277 Z M613.176,355.673 C612.292,355.673 611.396,355.438 610.584,354.945 C606.424,352.417 602.124,349.998 597.805,347.755 C595.354,346.482 594.399,343.464 595.672,341.013 C596.944,338.563 599.963,337.606 602.414,338.88 C606.931,341.226 611.427,343.755 615.778,346.399 C618.138,347.833 618.888,350.909 617.454,353.269 C616.513,354.817 614.865,355.673 613.176,355.673 Z M371.822,361.306 C370.214,361.306 368.636,360.532 367.67,359.098 C366.127,356.808 366.734,353.701 369.025,352.158 C373.247,349.315 377.615,346.582 382.009,344.032 C384.398,342.648 387.458,343.46 388.843,345.848 C390.229,348.236 389.416,351.296 387.028,352.682 C382.826,355.12 378.647,357.734 374.61,360.453 C373.753,361.03 372.782,361.306 371.822,361.306 Z M637.703,372.916 C636.6,372.916 635.489,372.552 634.564,371.805 C630.776,368.745 626.836,365.774 622.855,362.976 C620.597,361.387 620.053,358.268 621.642,356.009 C623.229,353.75 626.348,353.207 628.607,354.795 C632.769,357.721 636.887,360.827 640.848,364.026 C642.996,365.761 643.331,368.909 641.596,371.057 C640.608,372.28 639.162,372.916 637.703,372.916 Z M348.136,379.656 C346.756,379.656 345.382,379.088 344.395,377.975 C342.562,375.909 342.75,372.749 344.816,370.917 C348.62,367.541 352.588,364.249 356.609,361.133 C358.791,359.441 361.932,359.839 363.625,362.023 C365.315,364.206 364.917,367.347 362.734,369.038 C358.888,372.018 355.092,375.167 351.453,378.396 C350.501,379.241 349.316,379.656 348.136,379.656 Z M659.723,393.26 C658.397,393.26 657.075,392.737 656.092,391.699 C652.746,388.167 649.236,384.7 645.659,381.394 C643.631,379.52 643.507,376.356 645.381,374.329 C647.255,372.3 650.417,372.175 652.446,374.05 C656.186,377.506 659.854,381.13 663.352,384.822 C665.251,386.827 665.165,389.991 663.16,391.89 C662.193,392.806 660.957,393.26 659.723,393.26 Z M327.083,400.994 C325.926,400.994 324.763,400.594 323.818,399.778 C321.728,397.974 321.496,394.816 323.301,392.727 C326.624,388.876 330.122,385.087 333.697,381.463 C335.635,379.497 338.802,379.475 340.768,381.415 C342.733,383.354 342.755,386.52 340.816,388.485 C337.396,391.953 334.05,395.578 330.87,399.261 C329.881,400.406 328.486,400.994 327.083,400.994 Z M309.042,424.945 C308.104,424.945 307.156,424.681 306.312,424.13 C304,422.619 303.351,419.521 304.862,417.209 C307.646,412.949 310.611,408.727 313.674,404.659 C315.335,402.454 318.471,402.013 320.676,403.674 C322.882,405.335 323.323,408.47 321.662,410.676 C318.731,414.566 315.896,418.604 313.233,422.68 C312.274,424.147 310.674,424.945 309.042,424.945 Z M294.353,451.096 C293.632,451.096 292.9,450.94 292.206,450.609 C289.712,449.421 288.655,446.437 289.843,443.944 C292.032,439.351 294.408,434.768 296.905,430.323 C298.258,427.915 301.305,427.061 303.713,428.413 C306.121,429.765 306.976,432.813 305.624,435.221 C303.235,439.472 300.963,443.854 298.87,448.246 C298.013,450.045 296.221,451.096 294.353,451.096 Z M283.3,478.994 C282.795,478.994 282.281,478.917 281.774,478.754 C279.144,477.912 277.695,475.098 278.537,472.468 C280.091,467.617 281.831,462.754 283.709,458.013 C284.727,455.446 287.634,454.192 290.2,455.207 C292.767,456.225 294.023,459.13 293.006,461.698 C291.21,466.23 289.546,470.88 288.061,475.518 C287.381,477.641 285.416,478.994 283.3,478.994 Z M276.108,508.083 C275.818,508.083 275.525,508.058 275.23,508.006 C272.511,507.524 270.697,504.93 271.179,502.21 C272.066,497.198 273.136,492.153 274.357,487.216 C275.02,484.536 277.731,482.898 280.411,483.563 C283.092,484.226 284.727,486.937 284.064,489.618 C282.896,494.338 281.875,499.161 281.025,503.955 C280.596,506.378 278.487,508.083 276.108,508.083 Z M272.862,537.872 C272.791,537.872 272.72,537.871 272.648,537.868 C269.889,537.751 267.747,535.421 267.863,532.662 C268.077,527.575 268.463,522.435 269.013,517.383 C269.311,514.639 271.787,512.66 274.524,512.953 C277.269,513.251 279.252,515.719 278.954,518.464 C278.429,523.296 278.059,528.215 277.854,533.082 C277.741,535.77 275.527,537.872 272.862,537.872 Z M273.566,567.837 C271.007,567.837 268.826,565.883 268.592,563.286 C268.136,558.227 267.844,553.079 267.723,547.983 C267.658,545.223 269.843,542.932 272.604,542.867 C275.352,542.809 277.655,544.986 277.72,547.747 C277.835,552.622 278.115,557.548 278.552,562.388 C278.799,565.138 276.771,567.569 274.021,567.817 C273.868,567.831 273.716,567.837 273.566,567.837 Z M278.247,597.446 C275.965,597.446 273.904,595.875 273.376,593.555 C272.247,588.595 271.271,583.53 270.477,578.5 C270.046,575.771 271.908,573.211 274.635,572.78 C277.362,572.35 279.923,574.211 280.354,576.939 C281.114,581.749 282.047,586.593 283.126,591.335 C283.74,594.028 282.054,596.708 279.361,597.32 C278.988,597.406 278.614,597.446 278.247,597.446 L278.247,597.446 Z" id="Fill-90" fill="#FF9C81"></path>
            <path d="M714.323,761.868 C714.323,782.242 697.807,798.758 677.434,798.758 C657.06,798.758 640.544,782.242 640.544,761.868 C640.544,741.495 657.06,724.979 677.434,724.979 C697.807,724.979 714.323,741.495 714.323,761.868" id="Fill-91" fill="#12DE91"></path>
            <path d="M671.316,783.375 C670.805,783.375 670.293,783.18 669.902,782.789 L651.914,764.802 C651.133,764.02 651.133,762.755 651.914,761.974 C652.695,761.192 653.961,761.192 654.742,761.974 L671.316,778.547 L704.735,745.128 C705.517,744.347 706.782,744.347 707.563,745.128 C708.345,745.909 708.345,747.175 707.563,747.956 L672.73,782.789 C672.34,783.18 671.828,783.375 671.316,783.375" id="Fill-92" fill="#FFFFFF"></path>
            <polygon id="Fill-93" fill="#FFFFFF" points="907.073 768.753 1032.49 768.753 1032.49 689.416 907.073 689.416"></polygon>
            <path d="M909.073,766.753 L1030.49,766.753 L1030.49,691.416 L909.073,691.416 L909.073,766.753 Z M905.073,770.753 L1034.49,770.753 L1034.49,687.416 L905.073,687.416 L905.073,770.753 Z" id="Fill-94" fill="#6A79A8"></path>
            <path d="M909.073,766.753 L1030.49,766.753 L1030.49,691.416 L909.073,691.416 L909.073,766.753 Z M905.073,770.753 L1034.49,770.753 L1034.49,687.416 L905.073,687.416 L905.073,770.753 Z" id="Fill-95" fill="#6A79A8"></path>
            <polyline id="Fill-96" fill="#6A79A8" points="908.333 757.964 905.813 754.856 948.044 720.604 950.563 723.711 908.333 757.964"></polyline>
            <polyline id="Fill-97" fill="#6A79A8" points="1031.23 757.963 989.02 723.71 991.54 720.604 1033.75 754.857 1031.23 757.963"></polyline>
            <path d="M912.918,691.416 L969.781,735.503 L1019.77,696.745 L1021,698.326 L1019.77,696.745 L1026.65,691.416 L912.918,691.416 Z M969.781,740.563 L906.088,691.183 C905.38,690.638 905.095,689.694 905.386,688.84 C905.675,687.988 906.473,687.416 907.37,687.416 L1031.8,687.416 C1032.75,687.416 1033.59,688.023 1033.9,688.928 C1034.21,689.839 1033.91,690.846 1033.15,691.433 L969.781,740.563 L969.781,740.563 Z" id="Fill-98" fill="#6A79A8"></path>
        </g>
    </g>
</svg>